<svg width="350" height="351" viewBox="0 0 350 351" fill="none" xmlns="http://www.w3.org/2000/svg">
<path d="M329.644 196.146C319.34 223.747 298.284 253.623 268.653 262.464C223.853 275.834 218.533 311.926 138.341 308.58C126.632 308.143 115.004 306.437 103.663 303.491C98.1176 302.035 92.672 300.223 87.36 298.066C40.509 279.096 16.1 237.334 14.042 193.633C11.361 136.163 51.464 108.772 77.525 92.7277C103.586 76.6837 134.995 14.5377 213.857 17.2117C225.899 17.5677 237.859 19.3129 249.501 22.4127C276.038 29.5947 303.009 45.5127 318.682 68.7037C319.858 70.4444 320.983 72.2271 322.056 74.0517C343.035 109.64 343.7 158.514 329.644 196.146Z" fill="#00FFB0"/>
<path opacity="0.7" d="M329.644 196.146C319.34 223.747 298.284 253.623 268.653 262.464C223.853 275.834 218.533 311.926 138.341 308.58C126.632 308.143 115.004 306.437 103.663 303.491C98.1176 302.035 92.672 300.223 87.36 298.066C40.509 279.096 16.1 237.334 14.042 193.633C11.361 136.163 51.464 108.772 77.525 92.7277C103.586 76.6837 134.995 14.5377 213.857 17.2117C225.899 17.5677 237.859 19.3129 249.501 22.4127C276.038 29.5947 303.009 45.5127 318.682 68.7037C319.858 70.4444 320.983 72.2271 322.056 74.0517C343.035 109.64 343.7 158.514 329.644 196.146Z" fill="white"/>
<path d="M15.561 271.508C17.08 272.173 20.797 272.089 20.797 272.089C20.797 272.089 19.999 269.66 19.929 269.513C19.11 267.805 16.534 264.991 14.434 265.271C14.0867 265.328 13.7554 265.457 13.4615 265.651C13.1676 265.844 12.9178 266.098 12.7282 266.394C12.5387 266.69 12.4138 267.024 12.3615 267.372C12.3093 267.72 12.3309 268.075 12.425 268.414C12.775 269.863 14.266 270.948 15.561 271.508Z" fill="#00FFB0"/>
<path d="M16.8419 282.281C18.4169 282.505 21.7419 281.546 22.0009 281.469C22.5448 283.367 23.216 285.226 24.0099 287.034C24.4649 288.091 24.9619 289.134 25.4659 290.191C25.1649 289.743 24.8919 289.351 24.8429 289.302C23.6109 287.867 20.3769 285.802 18.4309 286.663C18.1106 286.808 17.8247 287.019 17.5917 287.283C17.3587 287.546 17.184 287.856 17.079 288.192C16.9739 288.527 16.9409 288.881 16.982 289.231C17.0232 289.58 17.1376 289.917 17.3179 290.219C18.0179 291.528 19.7609 292.179 21.1609 292.382C22.5609 292.585 25.4239 291.829 26.1729 291.612C26.3689 292.011 26.5649 292.417 26.7679 292.816C27.7269 294.727 28.6929 296.631 29.5679 298.528C29.8829 299.193 30.1699 299.865 30.4569 300.537C30.1839 300.138 29.9599 299.837 29.9179 299.767C28.6789 298.367 25.4449 296.302 23.4989 297.128C23.1803 297.276 22.8964 297.489 22.6655 297.754C22.4346 298.019 22.2618 298.329 22.1582 298.665C22.0547 299.001 22.0227 299.355 22.0643 299.704C22.1059 300.052 22.2202 300.389 22.3999 300.691C23.0999 302 24.8499 302.644 26.2429 302.847C27.6359 303.05 30.2329 302.364 31.1429 302.147C31.4159 302.847 31.6889 303.547 31.9269 304.247C32.0739 304.716 32.2559 305.164 32.3749 305.647C32.4939 306.13 32.6409 306.585 32.7669 307.047C32.9839 307.95 33.2149 308.881 33.4039 309.77C33.5439 310.386 33.6629 310.981 33.7819 311.569C33.4739 310.904 32.8509 309.609 32.7879 309.504C31.7799 307.901 28.8959 305.402 26.8449 305.92C26.5121 306.017 26.2031 306.182 25.9372 306.404C25.6712 306.627 25.4542 306.902 25.2997 307.212C25.1452 307.522 25.0566 307.861 25.0394 308.207C25.0222 308.554 25.0769 308.9 25.1999 309.224C25.7109 310.624 27.2999 311.534 28.6999 311.947C30.1839 312.395 33.4739 311.982 33.8869 311.947C34.0829 312.934 34.2649 313.893 34.4259 314.796C34.7759 316.805 35.0419 318.597 35.2449 320.116H36.6449C36.3999 318.541 36.0849 316.672 35.6649 314.572C35.4689 313.571 35.2379 312.507 34.9649 311.415C35.9572 311.018 36.9249 310.562 37.8629 310.05C38.9479 311.226 41.7199 312.598 42.0629 312.773C41.6849 313.704 41.3069 314.607 40.9359 315.447C40.1659 317.218 39.4379 318.786 38.7939 320.116H40.2989C40.8519 318.884 41.4609 317.484 42.0909 315.916C42.4829 314.971 42.8749 313.956 43.2739 312.913C43.6729 312.997 46.9279 313.655 48.4469 313.312C49.8469 313.004 51.4919 312.227 52.1149 310.862C52.2696 310.545 52.3559 310.199 52.3683 309.847C52.3807 309.495 52.3189 309.144 52.1869 308.817C52.0548 308.491 51.8556 308.195 51.602 307.95C51.3484 307.706 51.0461 307.517 50.7149 307.397C48.7059 306.697 45.6469 309.007 44.5199 310.526C44.4569 310.617 43.8199 311.667 43.4699 312.339C43.6309 311.912 43.7919 311.499 43.9459 311.058C44.2679 310.183 44.5619 309.301 44.8839 308.356L45.3039 306.956C45.4509 306.487 45.5489 305.983 45.6819 305.486C45.9549 304.345 46.1719 303.169 46.3819 301.986C47.1519 302.266 49.8819 303.218 51.2819 303.113C52.6819 303.008 54.4599 302.497 55.2719 301.244C55.475 300.956 55.615 300.629 55.6828 300.283C55.7506 299.938 55.7447 299.582 55.6654 299.239C55.5861 298.896 55.4352 298.574 55.2226 298.293C55.01 298.013 54.7406 297.78 54.4319 297.611C52.5489 296.645 49.1749 298.43 47.8379 299.767C47.7539 299.851 46.8999 300.915 46.4379 301.51C46.5499 300.81 46.6689 300.11 46.7599 299.354C47.0189 297.254 47.2149 295.119 47.4599 292.991C47.5229 292.34 47.5929 291.689 47.6629 291.038C47.9359 291.143 51.1629 292.34 52.7449 292.235C54.1449 292.13 55.9159 291.619 56.7349 290.366C56.9369 290.078 57.076 289.751 57.1432 289.405C57.2104 289.06 57.2042 288.705 57.125 288.362C57.0458 288.019 56.8953 287.697 56.6833 287.416C56.4714 287.136 56.2028 286.903 55.8949 286.733C54.0119 285.76 50.6379 287.545 49.2939 288.882C49.1959 288.98 47.9709 290.52 47.6769 290.926C47.8239 289.491 47.9919 288.07 48.2089 286.67C48.4968 284.779 48.9036 282.909 49.4269 281.07C49.5529 281.119 52.9269 282.386 54.5369 282.274C55.9369 282.176 57.7149 281.658 58.5269 280.405C58.7289 280.117 58.868 279.79 58.9352 279.444C59.0024 279.099 58.9962 278.744 58.917 278.401C58.8378 278.058 58.6873 277.736 58.4753 277.455C58.2634 277.175 57.9948 276.942 57.6869 276.772C55.8039 275.799 52.4299 277.591 51.0929 278.921C50.9879 279.026 49.6929 280.678 49.4479 281.021C49.4479 280.916 49.5039 280.804 49.5319 280.699C50.1116 278.872 50.8543 277.101 51.7509 275.407C52.2269 274.462 52.7449 273.587 53.2629 272.754C53.8649 273.055 56.6229 274.392 58.0999 274.455C59.5769 274.518 61.3199 274.189 62.2999 273.055C62.533 272.791 62.7078 272.481 62.8127 272.145C62.9176 271.809 62.9503 271.454 62.9087 271.104C62.867 270.755 62.752 270.418 62.5711 270.116C62.3902 269.814 62.1474 269.553 61.8589 269.352C60.0949 268.176 56.5459 269.59 55.0689 270.752C54.9849 270.815 54.2429 271.557 53.7109 272.103C53.9489 271.732 54.1869 271.34 54.4109 270.983C55.2929 269.653 56.1889 268.484 56.9869 267.483C57.4489 266.902 57.8759 266.391 58.2819 265.908C59.0239 265.908 62.0199 265.803 63.3289 265.208C64.6379 264.613 66.0729 263.493 66.3809 262.03C66.4657 261.688 66.4774 261.332 66.4153 260.985C66.3532 260.638 66.2187 260.308 66.0205 260.017C65.8224 259.726 65.565 259.48 65.2653 259.294C64.9655 259.109 64.6301 258.989 64.2809 258.943C62.1809 258.719 59.6749 261.603 58.9049 263.332C58.8419 263.479 58.0719 265.936 58.1069 265.936H58.0999C57.7009 266.391 57.2739 266.881 56.8259 267.427C55.9999 268.435 55.0829 269.59 54.1659 270.927C53.1445 272.337 52.2094 273.807 51.3659 275.33C50.4229 277.024 49.6334 278.8 49.0069 280.636V280.706C49.0069 280.083 49.0069 278.347 49.0069 278.214C48.7619 276.338 47.1869 272.859 45.1079 272.474C44.7601 272.419 44.4047 272.439 44.0649 272.531C43.7251 272.623 43.4086 272.785 43.1358 273.008C42.8631 273.23 42.6403 273.508 42.4819 273.822C42.3236 274.137 42.2333 274.481 42.2169 274.833C42.0979 276.324 43.1759 277.815 44.2259 278.753C45.4159 279.817 48.7129 280.853 48.9789 280.923C48.3842 282.807 47.9165 284.73 47.5789 286.677C47.3759 287.811 47.2079 288.959 47.0539 290.107C47.0539 289.575 47.0539 289.092 47.0539 289.029C46.8089 287.153 45.2339 283.674 43.1549 283.289C42.8076 283.234 42.4528 283.254 42.1135 283.345C41.7742 283.437 41.4579 283.599 41.1853 283.821C40.9127 284.042 40.6897 284.319 40.531 284.633C40.3722 284.946 40.2812 285.29 40.2639 285.641C40.1449 287.132 41.2229 288.623 42.2729 289.568C43.3229 290.513 46.1369 291.451 46.8789 291.668L46.7109 292.998C46.4589 295.098 46.2139 297.24 45.9129 299.298C45.8079 299.998 45.6749 300.74 45.5419 301.461C45.5419 300.985 45.5419 300.579 45.5419 300.523C45.2969 298.647 43.7289 295.161 41.6429 294.776C41.2952 294.722 40.9403 294.743 40.601 294.835C40.2616 294.928 39.9455 295.09 39.673 295.313C39.4005 295.535 39.1777 295.812 39.019 296.126C38.8604 296.44 38.7693 296.783 38.7519 297.135C38.6329 298.626 39.7109 300.117 40.7679 301.055C41.8249 301.993 44.3519 302.854 45.2339 303.155C45.0799 303.855 44.9259 304.611 44.7439 305.318C44.6109 305.787 44.5129 306.256 44.3519 306.718C44.1909 307.18 44.0509 307.656 43.9039 308.118C43.5819 308.993 43.2599 309.896 42.9309 310.743L42.2309 312.451C42.3429 311.751 42.5389 310.302 42.5389 310.176C42.5132 308.513 42.0652 306.885 41.2369 305.444C41.2508 305.26 41.2508 305.075 41.2369 304.891C41.1887 304.544 41.0688 304.212 40.8847 303.914C40.7006 303.617 40.4564 303.361 40.1678 303.163C39.8792 302.966 39.5526 302.83 39.2087 302.766C38.8648 302.702 38.5113 302.71 38.1709 302.791C36.1269 303.337 34.8249 306.928 34.7269 308.818C34.7269 308.93 34.7969 310.148 34.8529 310.918C34.7549 310.47 34.6569 310.043 34.5449 309.581C34.3279 308.678 34.0899 307.782 33.8449 306.816C33.7049 306.354 33.5579 305.885 33.4179 305.416C33.2779 304.947 33.0889 304.464 32.9209 303.981C32.5219 302.875 32.0529 301.776 31.5629 300.677C32.3539 300.488 35.1609 299.774 36.2809 298.906C37.4009 298.038 38.5909 296.638 38.5839 295.147C38.5928 294.795 38.5277 294.445 38.3928 294.12C38.2579 293.795 38.0563 293.502 37.8009 293.26C37.5455 293.017 37.2421 292.832 36.9103 292.714C36.5785 292.597 36.2257 292.55 35.8749 292.578C33.7749 292.809 31.9409 296.162 31.5629 298.017C31.5629 298.129 31.4159 299.487 31.3599 300.236C31.0589 299.578 30.7579 298.92 30.4359 298.262C29.4909 296.372 28.4829 294.482 27.4819 292.592L26.5719 290.856C26.8589 290.786 30.2049 290.009 31.4719 289.043C32.5989 288.182 33.7819 286.775 33.7749 285.284C33.7838 284.932 33.7187 284.582 33.5838 284.257C33.4489 283.932 33.2473 283.639 32.9919 283.397C32.7365 283.154 32.4331 282.969 32.1013 282.851C31.7695 282.734 31.4167 282.687 31.0659 282.715C28.9659 282.946 27.1319 286.299 26.7539 288.154C26.7539 288.294 26.5439 290.254 26.5299 290.751C25.8299 289.47 25.2139 288.196 24.6259 286.908C23.8083 285.176 23.1068 283.392 22.5259 281.567C22.6589 281.567 26.1589 280.741 27.4259 279.754C28.5459 278.893 29.7359 277.486 29.7219 275.995C29.7318 275.643 29.6676 275.294 29.5335 274.968C29.3995 274.643 29.1985 274.35 28.9436 274.108C28.6888 273.866 28.3858 273.68 28.0543 273.562C27.7229 273.445 27.3704 273.398 27.0199 273.426C24.9199 273.657 23.0859 277.01 22.7009 278.858C22.7009 279.005 22.4839 281.112 22.4769 281.497L22.3649 281.175C21.8445 279.331 21.4861 277.446 21.2939 275.54C21.1749 274.49 21.1259 273.475 21.0909 272.495C21.7909 272.411 24.8079 272.005 26.0679 271.242C27.3279 270.479 28.6089 269.24 28.7629 267.742C28.8112 267.393 28.7855 267.038 28.6876 266.7C28.5897 266.362 28.4217 266.049 28.1945 265.78C27.9674 265.511 27.6862 265.293 27.3692 265.14C27.0522 264.988 26.7066 264.903 26.3549 264.893C24.2549 264.893 22.0569 268.022 21.4549 269.793C21.4549 269.891 21.2099 270.92 21.0699 271.676C21.0699 271.228 21.0699 270.773 21.0699 270.346C21.0699 268.743 21.1749 267.273 21.2729 265.978C21.3359 265.278 21.4059 264.578 21.4829 263.955C22.0919 263.535 24.5419 261.806 25.2979 260.567C26.0539 259.328 26.6349 257.62 26.0819 256.234C25.963 255.904 25.776 255.603 25.5331 255.35C25.2902 255.097 24.9968 254.898 24.672 254.766C24.3471 254.634 23.9981 254.572 23.6477 254.583C23.2973 254.595 22.9532 254.68 22.6379 254.834C20.7549 255.807 20.2579 259.594 20.5379 261.456C20.5379 261.617 21.2799 264.095 21.3079 264.074H21.3499C21.2659 264.669 21.1819 265.313 21.1119 266.013C20.9789 267.315 20.8459 268.778 20.8109 270.388C20.7516 272.12 20.7913 273.854 20.9299 275.582C21.0834 277.515 21.4066 279.431 21.8959 281.308V281.378C21.5599 280.853 20.5799 279.425 20.4959 279.32C19.2569 277.92 16.0229 275.855 14.0769 276.681C13.7783 276.831 13.513 277.04 13.2965 277.295C13.0799 277.55 12.9166 277.846 12.8162 278.165C12.7157 278.484 12.6801 278.82 12.7115 279.153C12.7429 279.486 12.8406 279.809 12.9989 280.104C13.7199 281.427 15.4419 282.071 16.8419 282.281Z" fill="#00FFB0"/>
<path d="M53.1579 272.327C53.1579 272.327 53.8579 269.856 53.8579 269.695C54.1239 267.826 53.5219 264.053 51.6179 263.129C51.2971 262.984 50.9492 262.908 50.5971 262.907C50.245 262.905 49.8966 262.978 49.5748 263.121C49.2529 263.264 48.9648 263.473 48.7294 263.735C48.4941 263.997 48.3167 264.306 48.2089 264.641C47.6979 266.041 48.3419 267.77 49.1119 268.953C50.0079 270.346 53.1509 272.327 53.1579 272.327Z" fill="#00FFB0"/>
<path d="M273.938 271.508C275.457 272.173 279.174 272.089 279.174 272.089C279.174 272.089 278.376 269.66 278.306 269.513C277.487 267.805 274.911 264.991 272.811 265.271C272.464 265.328 272.132 265.457 271.838 265.651C271.545 265.844 271.295 266.098 271.105 266.394C270.916 266.69 270.791 267.024 270.738 267.372C270.686 267.72 270.708 268.075 270.802 268.414C271.152 269.863 272.643 270.948 273.938 271.508Z" fill="#00FFB0"/>
<path d="M275.219 282.281C276.794 282.505 280.119 281.546 280.378 281.469C280.925 283.366 281.596 285.225 282.387 287.034C282.842 288.091 283.339 289.134 283.843 290.191C283.542 289.743 283.269 289.351 283.22 289.302C281.988 287.867 278.754 285.802 276.808 286.663C276.488 286.808 276.202 287.019 275.969 287.283C275.736 287.546 275.561 287.856 275.456 288.192C275.351 288.527 275.318 288.881 275.359 289.231C275.4 289.58 275.515 289.917 275.695 290.219C276.395 291.528 278.138 292.179 279.538 292.382C280.938 292.585 283.801 291.829 284.55 291.612C284.746 292.011 284.942 292.417 285.145 292.816C286.104 294.727 287.07 296.631 287.945 298.528C288.26 299.193 288.547 299.865 288.834 300.537C288.561 300.138 288.337 299.837 288.295 299.767C287.056 298.367 283.829 296.302 281.876 297.128C281.556 297.275 281.271 297.487 281.039 297.751C280.806 298.016 280.632 298.326 280.527 298.662C280.422 298.998 280.389 299.352 280.429 299.701C280.47 300.051 280.584 300.388 280.763 300.691C281.463 302 283.213 302.644 284.606 302.847C285.999 303.05 288.596 302.364 289.506 302.147C289.779 302.847 290.059 303.547 290.29 304.247C290.437 304.716 290.619 305.164 290.738 305.647C290.857 306.13 291.004 306.585 291.13 307.047C291.347 307.95 291.578 308.881 291.767 309.77C291.907 310.386 292.026 310.981 292.145 311.569C291.837 310.904 291.214 309.609 291.151 309.504C290.143 307.901 287.259 305.402 285.208 305.92C284.87 306.017 284.556 306.184 284.286 306.41C284.017 306.636 283.798 306.916 283.643 307.232C283.489 307.548 283.403 307.893 283.39 308.245C283.377 308.596 283.439 308.946 283.57 309.273C284.081 310.673 285.67 311.583 287.07 311.996C288.554 312.444 291.844 312.031 292.257 311.996C292.453 312.983 292.635 313.942 292.796 314.845C293.146 316.854 293.412 318.646 293.615 320.165H295.015C294.77 318.59 294.455 316.721 294.035 314.621C293.839 313.62 293.608 312.556 293.335 311.464C294.327 311.067 295.295 310.611 296.233 310.099C297.318 311.275 300.09 312.647 300.433 312.822C300.055 313.753 299.677 314.656 299.306 315.496C298.536 317.267 297.808 318.835 297.164 320.165H298.669C299.222 318.933 299.831 317.533 300.461 315.965C300.853 315.02 301.245 314.005 301.644 312.962C302.043 313.046 305.298 313.704 306.817 313.361C308.217 313.053 309.862 312.276 310.485 310.911C310.64 310.594 310.726 310.248 310.738 309.896C310.751 309.544 310.689 309.193 310.557 308.866C310.425 308.54 310.226 308.244 309.972 307.999C309.718 307.755 309.416 307.566 309.085 307.446C307.076 306.746 304.017 309.056 302.89 310.575C302.827 310.666 302.19 311.716 301.84 312.388C302.001 311.961 302.162 311.548 302.323 311.107C302.638 310.232 302.932 309.35 303.254 308.405L303.674 307.005C303.821 306.536 303.919 306.032 304.052 305.535C304.325 304.394 304.542 303.218 304.752 302.035C305.522 302.315 308.252 303.267 309.652 303.162C311.052 303.057 312.83 302.546 313.642 301.293C313.845 301.005 313.985 300.678 314.053 300.332C314.121 299.987 314.115 299.631 314.035 299.288C313.956 298.945 313.805 298.623 313.593 298.342C313.38 298.061 313.111 297.829 312.802 297.66C310.919 296.694 307.545 298.479 306.208 299.816C306.124 299.9 305.27 300.964 304.808 301.559C304.92 300.859 305.039 300.159 305.13 299.403C305.389 297.303 305.585 295.168 305.795 293.04C305.858 292.389 305.928 291.738 305.998 291.087C306.271 291.192 309.498 292.389 311.08 292.284C312.48 292.179 314.251 291.668 315.07 290.415C315.272 290.127 315.411 289.8 315.478 289.454C315.545 289.109 315.539 288.754 315.46 288.411C315.381 288.068 315.23 287.746 315.018 287.465C314.806 287.185 314.538 286.952 314.23 286.782C312.347 285.809 308.973 287.594 307.629 288.931C307.531 289.029 306.306 290.569 306.012 290.975C306.159 289.54 306.327 288.119 306.544 286.719C306.832 284.828 307.239 282.958 307.762 281.119C307.888 281.168 311.262 282.435 312.872 282.323C314.272 282.225 316.05 281.707 316.862 280.454C317.064 280.166 317.203 279.839 317.27 279.493C317.337 279.148 317.331 278.793 317.252 278.45C317.173 278.107 317.022 277.785 316.81 277.504C316.598 277.224 316.33 276.991 316.022 276.821C314.139 275.848 310.765 277.64 309.428 278.97C309.323 279.075 308.028 280.727 307.783 281.07C307.783 280.965 307.839 280.853 307.867 280.748C308.447 278.921 309.189 277.15 310.086 275.456C310.562 274.511 311.08 273.636 311.598 272.803C312.2 273.104 314.958 274.441 316.435 274.504C317.912 274.567 319.655 274.238 320.635 273.104C320.868 272.84 321.043 272.53 321.148 272.194C321.253 271.858 321.285 271.503 321.244 271.153C321.202 270.804 321.087 270.467 320.906 270.165C320.725 269.863 320.482 269.602 320.194 269.401C318.43 268.225 314.881 269.639 313.404 270.801C313.327 270.864 312.578 271.606 312.046 272.152C312.284 271.781 312.522 271.389 312.746 271.032C313.635 269.702 314.524 268.533 315.322 267.532C315.784 266.951 316.211 266.44 316.617 265.957C317.359 265.957 320.355 265.852 321.664 265.257C322.973 264.662 324.408 263.542 324.716 262.079C324.801 261.737 324.812 261.381 324.75 261.034C324.688 260.687 324.554 260.357 324.356 260.066C324.157 259.775 323.9 259.529 323.6 259.343C323.301 259.158 322.965 259.038 322.616 258.992C320.516 258.768 318.003 261.652 317.233 263.381C317.17 263.528 316.4 265.985 316.435 265.985H316.484C316.085 266.44 315.658 266.93 315.21 267.476C314.384 268.484 313.467 269.639 312.55 270.976C311.54 272.386 310.617 273.857 309.785 275.379C308.842 277.073 308.052 278.849 307.426 280.685C307.429 280.708 307.429 280.731 307.426 280.755C307.426 280.132 307.426 278.396 307.426 278.263C307.181 276.387 305.606 272.908 303.527 272.523C303.179 272.468 302.824 272.488 302.484 272.58C302.144 272.672 301.828 272.834 301.555 273.057C301.282 273.279 301.059 273.557 300.901 273.871C300.743 274.186 300.652 274.53 300.636 274.882C300.517 276.373 301.595 277.864 302.645 278.802C303.835 279.866 307.132 280.902 307.398 280.972C306.803 282.856 306.336 284.779 305.998 286.726C305.795 287.86 305.627 289.008 305.473 290.156C305.473 289.624 305.473 289.141 305.473 289.078C305.228 287.202 303.653 283.723 301.574 283.338C301.227 283.283 300.872 283.303 300.533 283.394C300.193 283.486 299.877 283.648 299.604 283.87C299.332 284.091 299.109 284.368 298.95 284.682C298.791 284.995 298.7 285.339 298.683 285.69C298.564 287.181 299.642 288.672 300.692 289.617C301.742 290.562 304.556 291.5 305.298 291.717C305.249 292.158 305.186 292.599 305.13 293.047C304.878 295.147 304.633 297.289 304.332 299.347C304.227 300.047 304.094 300.789 303.961 301.51C303.961 301.034 303.961 300.628 303.961 300.572C303.716 298.696 302.148 295.21 300.062 294.825C299.714 294.771 299.359 294.792 299.02 294.884C298.681 294.977 298.365 295.139 298.092 295.362C297.82 295.584 297.597 295.861 297.438 296.175C297.279 296.489 297.188 296.832 297.171 297.184C297.052 298.675 298.13 300.166 299.187 301.104C300.244 302.042 302.778 302.903 303.653 303.204C303.499 303.904 303.345 304.66 303.163 305.367C303.03 305.836 302.932 306.305 302.771 306.767C302.61 307.229 302.47 307.705 302.323 308.167C302.001 309.042 301.679 309.945 301.35 310.792L300.65 312.5C300.762 311.8 300.958 310.351 300.958 310.225C300.936 308.562 300.487 306.933 299.656 305.493C299.658 305.308 299.646 305.123 299.621 304.94C299.573 304.593 299.453 304.261 299.269 303.963C299.085 303.666 298.84 303.41 298.552 303.212C298.263 303.015 297.937 302.879 297.593 302.815C297.249 302.751 296.895 302.759 296.555 302.84C294.511 303.386 293.209 306.977 293.111 308.867C293.111 308.979 293.181 310.197 293.237 310.967C293.139 310.519 293.041 310.092 292.929 309.63C292.712 308.727 292.474 307.831 292.229 306.865C292.089 306.403 291.942 305.934 291.802 305.465C291.662 304.996 291.473 304.513 291.305 304.03C290.906 302.924 290.437 301.825 289.947 300.726C290.738 300.537 293.545 299.823 294.665 298.955C295.785 298.087 296.975 296.687 296.968 295.196C296.977 294.844 296.912 294.494 296.777 294.169C296.642 293.844 296.44 293.551 296.185 293.309C295.93 293.066 295.626 292.881 295.294 292.763C294.963 292.646 294.61 292.599 294.259 292.627C292.159 292.858 290.325 296.211 289.947 298.066C289.947 298.178 289.8 299.536 289.744 300.285C289.443 299.627 289.142 298.969 288.82 298.311C287.875 296.421 286.867 294.531 285.866 292.641L284.956 290.905C285.243 290.835 288.589 290.058 289.856 289.092C290.983 288.231 292.166 286.824 292.159 285.333C292.168 284.981 292.103 284.631 291.968 284.306C291.833 283.981 291.631 283.688 291.376 283.446C291.121 283.203 290.817 283.018 290.485 282.9C290.154 282.783 289.801 282.736 289.45 282.764C287.35 282.995 285.516 286.348 285.138 288.203C285.138 288.343 284.928 290.303 284.914 290.8C284.249 289.519 283.598 288.245 283.01 286.957C282.204 285.224 281.514 283.44 280.945 281.616C281.078 281.616 284.578 280.79 285.845 279.803C286.965 278.942 288.155 277.535 288.141 276.044C288.151 275.692 288.087 275.343 287.953 275.017C287.818 274.692 287.617 274.399 287.363 274.157C287.108 273.915 286.805 273.729 286.473 273.611C286.142 273.494 285.789 273.447 285.439 273.475C283.339 273.706 281.505 277.059 281.12 278.907C281.12 279.054 280.903 281.161 280.896 281.546L280.784 281.224C280.264 279.38 279.905 277.495 279.713 275.589C279.601 274.539 279.545 273.524 279.51 272.544C280.21 272.46 283.227 272.054 284.487 271.291C285.747 270.528 287.028 269.289 287.182 267.791C287.23 267.442 287.205 267.087 287.107 266.749C287.009 266.411 286.841 266.098 286.614 265.829C286.386 265.56 286.105 265.342 285.788 265.189C285.471 265.037 285.126 264.952 284.774 264.942C282.674 264.942 280.476 268.071 279.874 269.842C279.874 269.94 279.629 270.969 279.489 271.725C279.489 271.277 279.489 270.822 279.489 270.395C279.489 268.792 279.594 267.322 279.692 266.027C279.755 265.327 279.825 264.627 279.902 264.004C280.511 263.584 282.961 261.855 283.717 260.616C284.473 259.377 285.054 257.669 284.501 256.283C284.382 255.953 284.195 255.652 283.952 255.399C283.709 255.146 283.416 254.947 283.091 254.815C282.766 254.683 282.417 254.621 282.067 254.632C281.716 254.644 281.372 254.729 281.057 254.883C279.174 255.856 278.677 259.643 278.992 261.505C278.992 261.666 279.692 264.144 279.762 264.123H279.797C279.713 264.718 279.629 265.362 279.559 266.062C279.426 267.364 279.293 268.827 279.258 270.437C279.199 272.169 279.238 273.903 279.377 275.631C279.53 277.564 279.854 279.48 280.343 281.357V281.427C280.007 280.902 279.027 279.474 278.943 279.369C277.704 277.969 274.47 275.904 272.524 276.73C272.203 276.876 271.917 277.088 271.684 277.352C271.451 277.616 271.277 277.926 271.172 278.263C271.067 278.599 271.034 278.953 271.075 279.303C271.116 279.653 271.231 279.99 271.411 280.293C272.097 281.427 273.819 282.071 275.219 282.281Z" fill="#00FFB0"/>
<path d="M311.535 272.327C311.535 272.327 312.235 269.856 312.235 269.695C312.501 267.826 311.899 264.053 309.995 263.129C309.674 262.984 309.326 262.908 308.974 262.907C308.622 262.905 308.274 262.978 307.952 263.121C307.63 263.264 307.342 263.473 307.106 263.735C306.871 263.997 306.694 264.306 306.586 264.641C306.075 266.041 306.719 267.77 307.489 268.953C308.385 270.346 311.5 272.327 311.535 272.327Z" fill="#00FFB0"/>
<path d="M244.531 125.803C244.531 125.803 244.748 117.9 249.305 115.66C253.862 113.42 254.121 120.819 254.121 120.819C254.121 120.819 264.544 114.197 266.805 119.216C269.066 124.235 265.909 126.664 265.909 126.664C265.909 126.664 275.163 126.342 275.807 131.417C276.451 136.492 271.67 138.977 271.67 138.977C271.67 138.977 277.389 143.646 275.38 145.802C273.371 147.958 268.975 148.112 268.975 148.112C268.975 148.112 271.467 153.117 267.12 154.895C262.773 156.673 257.803 153.362 257.803 153.362C257.803 153.362 258.573 155.658 255.311 155.077C252.049 154.496 248.752 152.977 246.729 148.189C244.706 143.401 242.095 129.842 244.531 125.803Z" fill="#263238" stroke="#263238" stroke-width="0.7" stroke-linecap="round" stroke-linejoin="round"/>
<path d="M196.413 278.438C196.413 278.438 193.816 288.35 193.858 289.449C193.9 290.548 192.997 293.04 193.76 293.747C195.188 294.911 196.702 295.967 198.289 296.904C198.936 296.895 199.567 296.703 200.109 296.351C200.284 296.193 200.425 296.001 200.523 295.787C200.62 295.573 200.673 295.34 200.676 295.105C200.676 294.734 199.633 293.18 199.493 292.816C199.353 292.452 201.404 287.713 202.181 285.354C202.763 283.247 203.179 281.099 203.427 278.928L196.413 278.438Z" fill="#BDBDBD" stroke="#263238" stroke-width="0.7" stroke-miterlimit="10"/>
<path d="M199.234 285.34C199.234 285.34 197.757 288.84 197.659 289.442C197.561 290.044 195.559 291.724 195.825 293.068C196.091 294.412 199.045 294.055 200.501 290.079" fill="#BDBDBD"/>
<path d="M199.234 285.34C199.234 285.34 197.757 288.84 197.659 289.442C197.561 290.044 195.559 291.724 195.825 293.068C196.091 294.412 199.045 294.055 200.501 290.079" stroke="#263238" stroke-width="0.7" stroke-miterlimit="10"/>
<path d="M205.849 224.594C205.849 224.594 204.61 244.81 204.141 246.595C203.672 248.38 198.044 264.683 196.805 269.695C196.045 272.798 195.505 275.951 195.188 279.131L202.741 280.72L206.983 262.086C206.983 262.086 212.527 245.104 211.4 237.145C210.822 232.507 208.892 228.142 205.849 224.594Z" fill="#00FFB0" stroke="#263238" stroke-width="0.7" stroke-miterlimit="10"/>
<path d="M245.196 320.095C245.287 315.699 245.469 309.77 245.896 306.375C246.596 300.509 249.102 296.883 251.678 289.575C254.254 282.267 254.478 272.663 254.478 272.663L208.348 274.273C208.348 274.273 203 294.104 199.759 308.692C198.879 312.434 198.366 316.253 198.226 320.095" fill="#00FFB0"/>
<path d="M245.196 320.095C245.287 315.699 245.469 309.77 245.896 306.375C246.596 300.509 249.102 296.883 251.678 289.575C254.254 282.267 254.478 272.663 254.478 272.663L208.348 274.273C208.348 274.273 203 294.104 199.759 308.692C198.879 312.434 198.366 316.253 198.226 320.095" stroke="#263238" stroke-width="0.7" stroke-miterlimit="10"/>
<path d="M214.389 281.707L252.77 282.785L253.582 279.817L214.389 281.707Z" fill="#263238" stroke="#263238" stroke-width="0.7" stroke-linecap="round" stroke-linejoin="round"/>
<path d="M212.45 319.395C212.45 319.395 211.694 295.392 211.673 282.365L212.45 319.395Z" fill="white"/>
<path d="M212.45 319.395C212.45 319.395 211.694 295.392 211.673 282.365" stroke="#263238" stroke-width="0.7" stroke-miterlimit="10"/>
<path d="M241.871 173.816L247.471 177.582C247.471 177.582 254.1 183.504 255.731 188.404C257.362 193.304 256.179 222.403 254.534 231.804C252.889 241.205 256.998 252.916 258.461 259.524C259.924 266.132 260.561 278.424 260.561 278.424C260.561 278.424 261.597 279.866 243.621 280.489C225.645 281.112 213.108 282.05 211.638 282.344C210.75 282.526 209.849 282.641 208.943 282.687L208.243 276.303L206.5 281.56L202.769 280.706C202.769 280.706 205.086 269.282 205.667 264.83C206.248 260.378 209.916 245.23 209.965 239.532C210.014 233.834 205.254 224.664 204.323 219.022C203.392 213.38 205.268 203.706 209.923 196.398C214.578 189.09 217.7 186.262 226.8 178.8C235.9 171.338 241.871 173.816 241.871 173.816Z" fill="#00FFB0" stroke="#263238" stroke-width="0.7" stroke-miterlimit="10"/>
<path d="M227.283 259.111L246.064 261.239L245.007 256.325L233.289 255.317" stroke="#263238" stroke-width="0.7" stroke-miterlimit="10"/>
<path d="M220.717 255.044L219.765 258.264L224.476 258.796" stroke="#263238" stroke-width="0.7" stroke-miterlimit="10"/>
<path d="M227.766 222.865C226.883 222.047 226.073 221.155 225.344 220.198" stroke="#263238" stroke-width="0.7" stroke-miterlimit="10"/>
<path d="M234.297 228.381C234.297 228.381 232.316 226.883 230.146 225.021" stroke="#263238" stroke-width="0.7" stroke-miterlimit="10"/>
<path d="M241.871 173.816C241.871 173.816 235.9 171.331 226.8 178.8C217.7 186.269 214.585 189.104 209.909 196.398C207.116 200.907 205.259 205.933 204.449 211.175C204.561 211.721 204.68 212.274 204.813 212.841C207.417 223.845 210.315 229.165 210.315 229.165C210.315 229.165 215.355 204.091 224.126 193.927C232.897 183.763 247.464 177.582 247.464 177.582L241.871 173.816Z" fill="#00FFB0" stroke="#263238" stroke-width="0.7" stroke-miterlimit="10"/>
<path d="M219.982 124.907C219.982 124.907 213.409 131.046 212.919 135.883C212.429 140.72 211.918 144.892 211.099 146.453C210.28 148.014 206.15 149.036 207.55 151.395C208.95 153.754 210.259 153.705 210.259 153.705C210.259 153.705 212.359 164.142 213.955 165.605C215.551 167.068 221.2 166.228 221.2 166.228L222.95 178.884C222.95 178.884 211.197 189.307 208.908 203.832C206.619 218.357 209.237 226.645 209.237 226.645C209.237 226.645 210.77 203.762 216.062 195.194C221.354 186.626 233.646 178.513 235.459 177.05C237.272 175.587 241.871 173.802 241.871 173.802C241.871 173.802 239.687 168.902 239.393 166.69C239.099 164.478 239.197 161.223 239.61 160.334C240.023 159.445 247.366 156.778 250.11 148.364C252.854 139.95 248.815 130.017 244.51 125.789C240.205 121.561 225.484 119.461 219.982 124.907Z" fill="#BDBDBD" stroke="#263238" stroke-width="0.7" stroke-miterlimit="10"/>
<path d="M250.138 148.378C252.938 139.978 248.843 130.031 244.538 125.803C240.233 121.575 225.491 119.461 219.989 124.907C219.989 124.907 219.639 125.236 219.093 125.803C221.184 125.28 223.363 125.208 225.484 125.593C229.887 126.293 229.789 129.793 228.592 133.146C227.395 136.499 228.298 137.094 230.545 138.746C232.792 140.398 230.489 143.569 232.071 144.829C233.653 146.089 234.941 139.229 238.371 144.171C241.801 149.113 239.498 151.353 237.356 152.739C236.156 153.54 234.854 154.176 233.485 154.629C233.485 154.629 236.726 158.43 239.925 159.998C241.458 158.857 247.646 155.938 250.138 148.378Z" fill="#263238" stroke="#263238" stroke-width="0.7" stroke-linecap="round" stroke-linejoin="round"/>
<path d="M213.822 155.553C213.822 155.553 218.407 155.175 220.528 153.131" stroke="#263238" stroke-width="0.7" stroke-miterlimit="10"/>
<path d="M216.734 144.724C216.769 145.809 216.356 146.705 215.817 146.726C215.278 146.747 214.802 145.879 214.76 144.794C214.718 143.709 215.138 142.813 215.677 142.792C216.216 142.771 216.692 143.639 216.734 144.724Z" fill="#263238"/>
<path d="M214.76 140.293C214.76 140.293 216.237 138.305 218.351 140.65" stroke="#263238" stroke-width="0.7" stroke-miterlimit="10"/>
<path d="M221.2 166.242L226.667 164.184L222.859 171.023L221.2 166.242Z" fill="#263238" stroke="#263238" stroke-width="0.7" stroke-miterlimit="10"/>
<path d="M205.457 266.713L198.289 296.904L204.722 298.402L208.264 276.324L205.457 266.713Z" fill="white" stroke="#263238" stroke-width="0.7" stroke-miterlimit="10"/>
<path d="M211.792 194.431C210.416 197.427 209.446 200.593 208.908 203.846C206.619 218.364 209.237 226.659 209.237 226.659C209.237 226.659 210.756 204.084 215.957 195.39C214.537 195.229 213.139 194.908 211.792 194.431Z" fill="white" stroke="#263238" stroke-width="0.7" stroke-miterlimit="10"/>
<path d="M233.94 203.853L233.45 229.473L188.615 236.865L189.595 248.94C189.595 248.94 214.48 249.43 226.058 248.443C237.636 247.456 247.758 246.721 249.214 245.489C250.67 244.257 254.891 220.443 256.613 203.692C258.335 186.941 254.891 181.292 247.996 182.258" fill="#00FFB0"/>
<path d="M233.94 203.853L233.45 229.473L188.615 236.865L189.595 248.94C189.595 248.94 214.48 249.43 226.058 248.443C237.636 247.456 247.758 246.721 249.214 245.489C250.67 244.257 254.891 220.443 256.613 203.692C258.335 186.941 254.891 181.292 247.996 182.258" stroke="#263238" stroke-width="0.7" stroke-miterlimit="10"/>
<path d="M161.791 235.78L158.2 246.672L161.7 248.576C161.7 248.576 166.145 252.02 168.581 253.882C171.017 255.744 172.886 255.744 174.181 255.17C175.476 254.596 181.349 246.28 182.063 244.705C182.777 243.13 179.34 238.405 175.903 236.389C172.466 234.373 169.603 234.387 167.587 234.989C165.679 235.404 163.741 235.668 161.791 235.78Z" fill="white" stroke="#263238" stroke-width="0.7" stroke-miterlimit="10"/>
<path d="M188.615 236.865L182.945 236.375C181.166 235.911 179.355 235.581 177.527 235.388C176.05 235.388 174.076 236.865 173.089 237.607C172.102 238.349 161.266 250.172 161.266 250.172C161.266 250.172 162.253 252.139 163.73 251.649C165.207 251.159 167.93 249.92 167.93 249.92C167.93 249.92 164.976 252.881 166.453 254.358C167.93 255.835 170.394 255.835 170.394 255.835L172.123 254.848C172.85 255.421 173.686 255.84 174.58 256.08C175.812 256.325 177.786 255.835 179.48 254.848C181.174 253.861 185.577 248.723 185.577 248.723L189.357 247.26L188.615 236.865Z" fill="#BDBDBD" stroke="#263238" stroke-width="0.7" stroke-miterlimit="10"/>
<path d="M163.744 236.249C163.744 236.249 170.912 232.091 174.062 233.239C177.212 234.387 181.377 241.408 180.229 242.416C179.081 243.424 177.219 242.983 176.218 241.982C175.381 241.222 174.468 240.548 173.495 239.973C171.607 241.033 169.492 241.624 167.328 241.695" fill="white"/>
<path d="M163.744 236.249C163.744 236.249 170.912 232.091 174.062 233.239C177.212 234.387 181.377 241.408 180.229 242.416C179.081 243.424 177.219 242.983 176.218 241.982C175.381 241.222 174.468 240.548 173.495 239.973C171.607 241.033 169.492 241.624 167.328 241.695" stroke="#263238" stroke-width="0.7" stroke-miterlimit="10"/>
<path d="M185.122 252.524L182.847 251.306C182.664 251.209 182.501 251.076 182.37 250.916C182.238 250.756 182.138 250.572 182.078 250.373C182.018 250.175 181.997 249.967 182.017 249.76C182.037 249.554 182.098 249.354 182.196 249.171C182.294 248.988 182.426 248.826 182.587 248.695C182.747 248.564 182.932 248.466 183.13 248.406C183.328 248.346 183.536 248.326 183.742 248.347C183.949 248.367 184.149 248.429 184.331 248.527L186.606 249.738C186.975 249.935 187.25 250.271 187.372 250.671C187.494 251.071 187.453 251.503 187.257 251.873C187.059 252.241 186.724 252.517 186.324 252.639C185.924 252.761 185.492 252.72 185.122 252.524Z" fill="white" stroke="#263238" stroke-width="0.7" stroke-miterlimit="10"/>
<path d="M183.113 254.96L180.838 253.742C180.478 253.544 180.209 253.215 180.088 252.823C179.967 252.432 180.002 252.008 180.187 251.642C180.385 251.283 180.715 251.016 181.107 250.896C181.499 250.776 181.922 250.812 182.287 250.998L184.562 252.209C184.923 252.405 185.193 252.734 185.314 253.126C185.436 253.519 185.4 253.943 185.213 254.309C185.017 254.67 184.688 254.94 184.295 255.061C183.903 255.183 183.479 255.146 183.113 254.96Z" fill="white" stroke="#263238" stroke-width="0.7" stroke-miterlimit="10"/>
<path d="M180.817 257.109L178.542 255.891C178.358 255.794 178.196 255.661 178.064 255.501C177.933 255.341 177.834 255.156 177.774 254.958C177.714 254.759 177.694 254.551 177.716 254.344C177.737 254.138 177.799 253.938 177.898 253.756C177.996 253.573 178.128 253.412 178.289 253.28C178.449 253.149 178.633 253.051 178.832 252.991C179.03 252.931 179.238 252.911 179.444 252.932C179.65 252.952 179.85 253.014 180.033 253.112L182.308 254.33C182.49 254.427 182.652 254.56 182.783 254.72C182.915 254.881 183.013 255.065 183.073 255.264C183.133 255.462 183.153 255.67 183.132 255.876C183.111 256.082 183.05 256.282 182.952 256.465C182.854 256.647 182.721 256.809 182.561 256.94C182.401 257.071 182.216 257.17 182.018 257.23C181.82 257.289 181.611 257.31 181.405 257.289C181.199 257.268 180.999 257.207 180.817 257.109Z" fill="white" stroke="#263238" stroke-width="0.7" stroke-miterlimit="10"/>
<path d="M175.987 257.214L175.392 256.899C175.209 256.802 175.046 256.669 174.914 256.509C174.782 256.349 174.683 256.165 174.623 255.966C174.562 255.768 174.542 255.56 174.562 255.353C174.582 255.147 174.643 254.947 174.741 254.764C174.938 254.395 175.274 254.12 175.674 253.998C176.074 253.876 176.506 253.917 176.876 254.113L177.471 254.435C177.654 254.532 177.816 254.664 177.948 254.824C178.08 254.984 178.179 255.169 178.24 255.367C178.3 255.565 178.321 255.774 178.301 255.98C178.281 256.187 178.22 256.387 178.122 256.57C178.024 256.752 177.891 256.914 177.731 257.045C177.571 257.176 177.386 257.275 177.188 257.335C176.99 257.394 176.782 257.415 176.575 257.394C176.369 257.373 176.169 257.312 175.987 257.214Z" fill="white" stroke="#263238" stroke-width="0.7" stroke-miterlimit="10"/>
<path d="M161.791 235.78L131.705 223.061L132.818 242.99L157.661 248.681L161.791 235.78Z" fill="#263238" stroke="#263238" stroke-width="0.7" stroke-linecap="round" stroke-linejoin="round"/>
<path d="M157.661 248.681L161.791 235.78L157.584 233.918L157.5 234.345L153.65 247.708L157.661 248.681Z" fill="white" stroke="#263238" stroke-width="0.7" stroke-miterlimit="10"/>
<path d="M114.8 156.064L122.5 159.641C122.5 159.641 125.734 168.804 124.656 169.07C123.578 169.336 115.493 162.875 115.493 162.875L114.8 156.064Z" fill="white" stroke="#263238" stroke-width="0.7" stroke-linecap="round" stroke-linejoin="round"/>
<path d="M119.273 154.23L119.812 151.143C119.812 151.143 126.952 151.633 129.808 151.612C132.664 151.591 135.156 151.227 135.135 148.196C135.114 145.165 133.448 134.826 133.448 134.826C133.448 134.826 136.654 134.091 137.893 132.656C139.132 131.221 137.34 129.45 135.723 127.315C134.106 125.18 132.657 122.877 132.468 120.378C132.279 117.879 127.939 109.703 127.939 109.703C127.939 109.703 128.639 108.45 126.308 105.79C123.977 103.13 112.021 102.668 104.37 106.49C96.7191 110.312 94.9761 115.828 95.0111 121.89C95.0461 127.952 98.5111 136.499 98.5111 136.499C98.5111 136.499 96.2501 145.788 96.0751 146.299C95.9001 146.81 93.8701 150.793 93.8701 150.793C93.8701 150.793 103.439 157.464 106.932 160.46C110.425 163.456 118.314 168.58 118.363 165.808C118.412 163.036 118.727 156.778 118.727 156.778L119.273 154.23Z" fill="white" stroke="#263238" stroke-width="0.7" stroke-linecap="round" stroke-linejoin="round"/>
<path d="M129.822 125.278C129.864 126.314 129.626 127.161 129.283 127.175C128.94 127.189 128.618 126.37 128.583 125.334C128.548 124.298 128.772 123.451 129.122 123.437C129.472 123.423 129.773 124.242 129.822 125.278Z" fill="#263238"/>
<path d="M124.803 121.855C124.803 121.855 126.392 119.167 130.508 120.749" stroke="#263238" stroke-width="1.4" stroke-linecap="round" stroke-linejoin="round"/>
<path d="M135.135 148.196C135.135 145.158 133.448 134.826 133.448 134.826C133.448 134.826 131.481 133.769 127.736 134.679C123.991 135.589 122.969 141.679 122.255 142.379C121.541 143.079 116.886 138.879 115.08 136.002C113.274 133.125 112 128.204 111.804 125.327C111.608 122.45 118.377 121.001 119.434 118.327C120.491 115.653 115.5 112.804 117.243 111.019C118.986 109.234 122.591 109.92 124.376 110.263C125.593 110.427 126.831 110.233 127.939 109.703C127.939 109.703 128.639 108.45 126.308 105.79C123.977 103.13 112.021 102.668 104.37 106.49C96.719 110.312 94.976 115.828 95.011 121.89C95.046 126.79 97.314 133.342 98.168 135.652C98.8908 135.964 99.6696 136.126 100.457 136.128C101.157 135.946 101.689 133.804 102.032 131.655C102.375 129.506 107.534 126.986 107.534 126.986C107.534 126.986 108.465 133.405 108.472 134.651C108.479 135.897 107.772 142.148 111.216 145.151C113.913 147.386 116.788 149.397 119.812 151.164C119.812 151.164 126.952 151.654 129.808 151.633C132.664 151.612 135.156 151.227 135.135 148.196Z" fill="#263238" stroke="#263238" stroke-width="0.7" stroke-linecap="round" stroke-linejoin="round"/>
<path d="M108.633 131.41C108.633 131.41 107.149 122.856 104.657 123.227C102.165 123.598 100.751 126.818 102.025 130.927C103.299 135.036 105.798 134.651 107.219 134.287" fill="white"/>
<path d="M108.633 131.41C108.633 131.41 107.149 122.856 104.657 123.227C102.165 123.598 100.751 126.818 102.025 130.927C103.299 135.036 105.798 134.651 107.219 134.287" stroke="#263238" stroke-width="0.7" stroke-linecap="round" stroke-linejoin="round"/>
<path d="M126.154 137.899C126.154 137.899 127.589 139.677 131.334 139.656" stroke="white" stroke-width="0.7" stroke-linecap="round" stroke-linejoin="round"/>
<path d="M86.0999 320.095H123.9C124.026 318.107 125.496 310.463 125.496 305.451C125.496 299.662 129.479 262.317 129.479 262.317L80.3179 261.673L81.9279 284.528L86.0999 320.095Z" fill="#263238" stroke="#263238" stroke-width="0.7" stroke-linecap="round" stroke-linejoin="round"/>
<path d="M91.0001 152.095C91.0001 152.095 82.3831 163.148 79.9541 169.343C77.5251 175.538 75.6421 176.616 76.1811 184.428C76.7201 192.24 80.5001 223.495 80.5001 223.495L72.9541 264.186C81.8605 267.377 91.2484 269.015 100.709 269.03C116.333 269.03 123.109 267.686 124.152 267.147C125.195 266.608 134.652 264.186 134.652 264.186C134.652 264.186 134.652 218.112 131.684 202.215C128.716 186.318 124.95 174.215 123.606 171.226C122.262 168.237 117.943 158.563 117.943 158.563L91.0001 152.095Z" fill="#263238" stroke="#263238" stroke-width="0.7" stroke-linecap="round" stroke-linejoin="round"/>
<path d="M123.627 171.226C122.276 168.265 117.964 158.563 117.964 158.563L91.0001 152.095C91.0001 152.095 89.1801 154.433 86.9751 157.562C92.8481 160.971 107.387 169.399 108.248 169.609C109.326 169.882 114.716 169.343 114.716 169.343L112.308 172.304C112.308 172.304 118.776 177.428 120.932 179.577C122.066 180.711 125.356 183.707 128.226 186.297C126.273 178.555 124.467 173.088 123.627 171.226Z" fill="#263238" stroke="#263238" stroke-width="0.7" stroke-linecap="round" stroke-linejoin="round"/>
<path d="M111.23 164.492L120.393 171.765L127.932 185.24L123.088 165.57L113.12 159.914L111.23 164.492Z" fill="white" stroke="#263238" stroke-width="0.7" stroke-linecap="round" stroke-linejoin="round"/>
<path d="M92.911 146.978L121.121 159.69V169.658L88.865 153.173L92.911 146.978Z" fill="white" stroke="#263238" stroke-width="0.7" stroke-linecap="round" stroke-linejoin="round"/>
<path d="M130.214 248.947H81.4658V288.392H130.214V248.947Z" fill="#00FFB0" stroke="#263238" stroke-width="0.7" stroke-miterlimit="10"/>
<path d="M108.829 267.749C108.829 267.749 112.455 272.474 113.876 272.95C115.072 273.441 116.062 274.332 116.676 275.47C117.306 276.415 118.076 283.506 118.566 283.982C119.056 284.458 119.042 285.557 117.306 284.766C115.57 283.975 114.506 281.266 114.506 281.266L115.136 287.566C115.136 287.566 116.536 287.881 115.451 288.672C114.366 289.463 113.4 290.562 112.455 290.072C111.614 289.571 110.824 288.99 110.096 288.336C108.97 288.714 107.771 288.822 106.596 288.651C104.867 288.336 105.196 288.966 103.607 287.86C102.018 286.754 102.025 288.021 101.241 285.97C100.02 282.3 99.0193 278.56 98.245 274.77C97.93 272.719 97.615 269.87 97.615 269.87L108.829 267.749Z" fill="white" stroke="#263238" stroke-width="0.7" stroke-linecap="round" stroke-linejoin="round"/>
<path d="M109.466 264.753L110.565 269.639L97.0131 271.529L96.3831 266.643L109.466 264.753Z" fill="white" stroke="#263238" stroke-width="0.7" stroke-linecap="round" stroke-linejoin="round"/>
<path d="M92.099 161.804C92.099 161.804 82.67 164.765 82.404 169.077C82.138 173.389 79.009 225.686 80.36 229.186C81.711 232.686 94.962 268.155 94.962 268.155L110.32 266.272C110.32 266.272 102.452 225.14 102.2 224.328C101.948 223.516 107.478 177.694 107.478 177.694" fill="#263238"/>
<path d="M92.099 161.804C92.099 161.804 82.67 164.765 82.404 169.077C82.138 173.389 79.009 225.686 80.36 229.186C81.711 232.686 94.962 268.155 94.962 268.155L110.32 266.272C110.32 266.272 102.452 225.14 102.2 224.328C101.948 223.516 107.478 177.694 107.478 177.694" stroke="#263238" stroke-width="0.7" stroke-linecap="round" stroke-linejoin="round"/>
<path d="M105.651 190.854L102.179 224.328L105.49 245.125" stroke="#878787" stroke-width="0.7" stroke-linecap="round" stroke-linejoin="round"/>
<path d="M106.183 185.73L106.001 187.508" stroke="#878787" stroke-width="0.7" stroke-linecap="round" stroke-linejoin="round"/>
<path d="M81.319 180.55L80.283 211.98" stroke="#878787" stroke-width="0.7" stroke-linecap="round" stroke-linejoin="round"/>
<path d="M116.543 239.637L126.903 239.259L127.834 242.99L110.67 244.089" stroke="#878787" stroke-width="0.7" stroke-linecap="round" stroke-linejoin="round"/>
<path d="M107.912 239.945L113.428 239.749" stroke="#878787" stroke-width="0.7" stroke-linecap="round" stroke-linejoin="round"/>
<path d="M89.2639 158.451L108.269 169.609L114.737 169.343L112.308 172.304L124.831 182.279" stroke="#878787" stroke-width="0.7" stroke-linecap="round" stroke-linejoin="round"/>
<path d="M8.03601 320.095H327.579" stroke="#263238" stroke-width="0.7" stroke-miterlimit="10"/>
</svg>
