<svg width="350" height="332" viewBox="0 0 350 332" fill="none" xmlns="http://www.w3.org/2000/svg">
<path d="M1.95658 102.184C1.95658 102.184 -2.92942 104.161 2.74085 114.545C8.41113 124.928 12.2384 130.034 12.2384 130.034C12.2384 130.034 13.2501 132.449 11.2031 132.881C9.15619 133.312 4.61526 132.708 3.76825 135.234C2.92124 137.759 4.8427 140.276 8.74052 142.339C12.6383 144.402 21.0065 149.217 21.7672 149.656C22.528 150.096 23.2652 151.225 21.9241 151.727C20.583 152.229 10.4267 153.57 11.3443 158.346C12.2619 163.122 24.0573 167.083 25.3435 167.538C26.6297 167.993 26.9121 168.526 26.8572 169.224C26.8023 169.922 23.3123 170.047 20.4418 170.541C17.5714 171.036 14.3245 172.11 15.0853 174.831C15.846 177.553 22.928 183.105 39.7819 184.313L47.6246 184.368L51.7264 177.631C59.5691 162.683 58.6358 153.735 56.73 151.656C54.8242 149.578 52.2048 151.758 50.2598 153.938C48.3148 156.119 46.3933 158.973 45.7502 158.644C45.1071 158.315 44.8326 157.797 45.1228 156.464C45.413 155.131 48.2599 143.029 44.7307 139.72C41.2015 136.41 34.6607 144.331 33.5078 145.21C32.3549 146.088 31.8137 144.841 31.8373 143.978C31.8608 143.116 32.198 133.445 32.5117 129.077C32.8255 124.709 31.8137 121.744 29.1159 121.101C26.418 120.458 24.622 124.654 23.1711 126.16C21.7202 127.665 20.2066 125.524 20.2066 125.524C20.2066 125.524 17.8773 119.58 12.0501 109.306C6.22301 99.0317 1.85463 102.247 1.85463 102.247" fill="#EBEBEB"/>
<path d="M48.0481 186.211C43.8052 178.651 36.4723 165.083 30.1275 153.468C23.7828 141.853 18.0184 131.351 13.8069 123.768C11.705 119.98 9.99533 116.921 8.81109 114.788L7.44646 112.349L7.10138 111.713C7.02295 111.564 6.99158 111.486 6.99158 111.486L7.1249 111.698L7.49351 112.325L8.88951 114.741C10.0973 116.842 11.8305 119.901 13.9481 123.681C18.1988 131.242 23.9789 141.72 30.3315 153.35C36.684 164.981 43.9934 178.549 48.2285 186.164" fill="#E0E0E0"/>
<path d="M10.0581 136.347C10.2454 136.376 10.4294 136.423 10.6071 136.488C10.96 136.59 11.4619 136.755 12.0815 136.959C13.3128 137.383 15.0068 138.002 16.8577 138.716L21.5633 140.574L22.9986 141.123C23.1808 141.182 23.3568 141.258 23.524 141.351C23.3339 141.328 23.1471 141.283 22.9672 141.218C22.6221 141.108 22.1202 140.951 21.5006 140.731C20.2693 140.3 18.5831 139.665 16.7322 138.943L11.9796 137.124L10.5365 136.575C10.3683 136.519 10.2076 136.442 10.0581 136.347Z" fill="#E0E0E0"/>
<path d="M24.0807 140.833C24.018 140.833 25.1473 137.265 26.5982 132.92C28.0491 128.575 29.2726 125.077 29.3354 125.077C29.3981 125.077 28.2766 128.646 26.8257 132.998C25.3748 137.351 24.1513 140.857 24.0807 140.833Z" fill="#E0E0E0"/>
<path d="M33.0294 159.107C33.113 158.931 33.2155 158.766 33.3353 158.613L34.2294 157.319C35.0136 156.229 36.0253 154.707 37.1076 152.997C38.1899 151.288 39.1232 149.703 39.782 148.551L40.5663 147.186C40.6521 147.012 40.7574 146.849 40.88 146.7C40.817 146.881 40.7383 147.057 40.6447 147.225C40.4878 147.562 40.2369 148.009 39.9232 148.629C39.3036 149.805 38.3546 151.405 37.3037 153.123C36.2528 154.84 35.1548 156.354 34.3627 157.421C33.9705 157.954 33.6411 158.385 33.4059 158.675C33.2972 158.833 33.1709 158.978 33.0294 159.107Z" fill="#E0E0E0"/>
<path d="M19.4537 157.844C19.6309 157.824 19.8098 157.824 19.987 157.844L21.4379 157.923C22.6692 157.993 24.3633 158.119 26.2298 158.268C28.0964 158.417 29.7904 158.566 31.0139 158.683L32.4648 158.84C32.6426 158.849 32.8189 158.878 32.9902 158.926C32.8136 158.955 32.6335 158.955 32.4569 158.926L31.006 158.848C29.7747 158.77 28.0807 158.652 26.2141 158.503C24.3476 158.354 22.6536 158.205 21.4301 158.079L19.9949 157.93C19.8117 157.923 19.63 157.894 19.4537 157.844Z" fill="#E0E0E0"/>
<path d="M25.2965 174.98C25.5261 174.96 25.7571 174.96 25.9867 174.98L27.8454 175.075C29.4139 175.169 31.5942 175.302 33.9941 175.475C36.3939 175.647 38.5585 175.812 40.1271 175.937L41.9858 176.11C42.2154 176.122 42.4436 176.154 42.6681 176.204C42.4411 176.224 42.2128 176.224 41.9858 176.204L40.1192 176.11C38.5507 176.023 36.3704 175.882 33.9784 175.718C31.5864 175.553 29.4061 175.38 27.8375 175.247L25.9788 175.082C25.7487 175.07 25.5202 175.036 25.2965 174.98Z" fill="#E0E0E0"/>
<path d="M42.2603 176.063C42.3617 175.839 42.4852 175.626 42.6289 175.427C42.9112 174.996 43.272 174.424 43.7112 173.741C44.6209 172.322 45.8601 170.353 47.1776 168.142C48.4952 165.93 49.6324 163.899 50.448 162.424C50.8402 161.711 51.1696 161.122 51.4205 160.675C51.5269 160.453 51.6529 160.24 51.797 160.04C51.7173 160.273 51.6176 160.499 51.499 160.715C51.295 161.138 50.9892 161.75 50.6049 162.503C49.8206 164.001 48.707 166.048 47.3894 168.267C46.0718 170.487 44.8013 172.439 43.8523 173.835C43.3818 174.533 42.9896 175.098 42.7151 175.482C42.5775 175.686 42.4255 175.88 42.2603 176.063Z" fill="#E0E0E0"/>
<path d="M213.184 88.2245C200.808 77.4251 199.64 59.7398 201.851 44.1877C202.22 41.5918 202.228 38.8154 203.718 36.6587C205.208 34.502 208.259 33.255 210.478 34.6039C212.313 35.7254 212.909 38.0704 213.796 40.0467C214.977 42.6856 216.88 44.9368 219.286 46.5405C220.854 47.5757 222.846 48.3286 224.579 47.5993C226.932 46.6032 227.56 43.5289 227.826 40.933C228.313 36.1019 228.801 31.2708 229.293 26.4396C229.56 23.8437 229.834 21.2007 230.908 18.8244C231.983 16.448 234.006 14.3619 236.54 13.9384C239.073 13.5149 241.975 15.2638 242.225 17.8597C242.204 18.9416 242.112 20.021 241.951 21.0909C241.904 22.1811 242.28 23.4437 243.269 23.828C244.257 24.2123 245.386 23.6241 246.241 22.9497C249.198 20.5968 251.378 17.4598 253.433 14.2756C255.488 11.0915 257.503 7.85245 260.24 5.26436C262.977 2.67627 266.577 0.770488 270.31 0.958713C274.043 1.14694 277.745 3.86836 278.294 7.60933C278.843 11.3503 276.31 14.8403 273.675 17.546C269.761 21.5673 265.286 25.0014 260.389 27.7415C259.453 28.1332 258.667 28.815 258.146 29.6865C257.362 31.357 258.844 33.2471 260.499 34C262.366 34.847 264.483 34.8784 266.475 35.3333C268.467 35.7882 270.561 36.9018 271.118 38.9017C271.902 41.6702 269.385 44.2034 267.008 45.7876C262.249 48.9578 256.981 51.287 251.433 52.6735C249.449 53.1676 247.378 53.5597 245.7 54.7361C244.021 55.9125 242.837 58.132 243.567 60.0613C244.296 61.9906 246.617 62.8298 248.657 62.6729C250.696 62.5161 252.578 61.6299 254.578 61.1044C258.28 60.1476 262.852 60.8848 264.773 64.2415C266.052 66.4296 265.879 69.2608 264.867 71.5901C263.74 73.8696 262.17 75.9013 260.248 77.5662C253.872 83.7337 245.976 88.1013 237.363 90.2243C228.791 92.2007 221.058 92.1458 213.168 88.2637" fill="#F5F5F5"/>
<path d="M218.266 78.8759C221.775 70.6524 225.752 62.637 230.179 54.8694L233.622 48.7364C234.759 46.7287 235.889 44.7367 237.104 42.8544C239.459 39.2488 242.009 35.7746 244.743 32.4472C247.339 29.2473 249.912 26.3142 252.335 23.5849C254.758 20.8556 257.088 18.3695 259.299 16.1814C262.766 12.7159 266.503 9.53219 270.475 6.66035C271.879 5.6408 272.993 4.8879 273.753 4.38597L274.624 3.82129C274.72 3.75437 274.823 3.69661 274.93 3.64875L274.647 3.86835L273.808 4.47224C273.063 4.9977 271.965 5.77412 270.585 6.82505C266.667 9.74968 262.973 12.9637 259.535 16.4402C257.346 18.6362 255.049 21.1458 252.633 23.8751C250.217 26.6043 247.661 29.5532 245.088 32.7452C242.374 36.0664 239.842 39.5327 237.504 43.1289C236.289 45.0033 235.152 46.9797 234.038 48.9953L230.595 55.1204C226.177 62.8727 222.197 70.8664 218.674 79.0642" fill="#E0E0E0"/>
<path d="M237.238 42.8466C237.152 42.476 237.108 42.0974 237.104 41.7172C237.042 40.9878 236.995 39.9291 236.947 38.6193C236.861 35.9999 236.861 32.3452 236.885 28.3846C236.908 24.424 236.846 20.7772 236.72 18.1891C236.657 16.8872 236.602 15.8363 236.548 15.0991C236.506 14.7211 236.506 14.3398 236.548 13.9619C236.666 14.3251 236.737 14.702 236.759 15.0834C236.869 15.8049 236.979 16.8637 237.081 18.1656C237.3 20.785 237.402 24.4397 237.387 28.4081C237.371 32.3765 237.332 35.9136 237.316 38.6037V41.7407C237.326 42.111 237.3 42.4814 237.238 42.8466Z" fill="#E0E0E0"/>
<path d="M271.228 40.2114C270.782 40.2588 270.333 40.2588 269.887 40.2114C269.024 40.2114 267.769 40.1644 266.232 40.2114C263.142 40.2114 258.876 40.3604 254.178 40.7369C249.48 41.1133 245.245 41.6388 242.194 42.1094C240.665 42.329 239.434 42.5407 238.579 42.6897C238.141 42.7924 237.695 42.8502 237.245 42.8623C237.668 42.7033 238.103 42.5826 238.547 42.5015C239.387 42.3054 240.618 42.0388 242.139 41.7643C245.19 41.2153 249.433 40.6349 254.146 40.2506C258.166 39.9189 262.2 39.7906 266.232 39.8663C267.801 39.8663 269.032 39.984 269.895 40.0546C270.343 40.0655 270.789 40.118 271.228 40.2114Z" fill="#E0E0E0"/>
<path d="M218.745 78.3034C218.662 78.169 218.599 78.0239 218.556 77.8721C218.439 77.5348 218.298 77.0878 218.117 76.6094C217.741 75.5036 217.239 73.8958 216.643 71.9038C215.443 67.9118 213.968 62.3514 212.423 56.2184C210.878 50.0854 209.443 44.4543 208.337 40.4781C207.788 38.5331 207.341 36.9253 207.004 35.7724L206.651 34.4078C206.598 34.2614 206.567 34.1082 206.557 33.9529C206.639 34.0873 206.703 34.2325 206.745 34.3843C206.863 34.7215 207.004 35.1686 207.184 35.647C207.561 36.7449 208.063 38.3605 208.659 40.3526C209.859 44.3445 211.333 49.905 212.886 56.038C214.439 62.171 215.858 67.7628 216.964 71.7783C217.513 73.7233 217.96 75.331 218.298 76.4839L218.65 77.778C218.71 77.9469 218.742 78.1244 218.745 78.3034Z" fill="#E0E0E0"/>
<path d="M264.554 68.8059C264.406 68.8702 264.25 68.915 264.091 68.9392L262.758 69.2373L257.856 70.2568C253.707 71.1274 248.006 72.39 241.7 73.7939C235.395 75.1977 229.67 76.4055 225.505 77.1898C223.427 77.5819 221.741 77.8799 220.572 78.0603L219.223 78.2642C219.067 78.3018 218.905 78.315 218.745 78.3034C218.892 78.2392 219.048 78.1944 219.207 78.1701L220.533 77.8799L225.442 76.8525C229.583 75.9898 235.293 74.7272 241.598 73.3155C247.904 71.9038 253.629 70.7039 257.786 69.9196C259.872 69.5274 261.558 69.2294 262.726 69.049L264.075 68.8451C264.233 68.8127 264.393 68.7995 264.554 68.8059Z" fill="#E0E0E0"/>
<path d="M292.678 120.787H337.577C337.577 120.787 333.601 113.564 322.049 114.615C311.014 115.619 310.449 111.062 304.842 110.498C299.234 109.933 294.552 114.239 292.678 120.787Z" fill="#F5F5F5"/>
<path d="M23.5868 15.9775H92.4849C92.4849 15.9775 86.3912 4.88006 68.6196 6.49566C51.6872 8.0642 50.8245 1.00577 42.2132 0.174441C33.6019 -0.656885 26.4572 5.9153 23.5868 15.9775Z" fill="#EBEBEB"/>
<path d="M294.027 282.206H350C350 282.206 345.051 272.975 330.644 274.363C316.88 275.642 316.182 269.822 309.187 269.109C302.191 268.395 296.356 273.846 294.027 282.206Z" fill="#EBEBEB"/>
<path d="M59.7495 39.2781H95.0966C95.0966 39.2781 91.9595 33.5922 82.8698 34.4235C74.1801 35.2078 73.7409 31.6237 69.3255 31.1845C64.91 30.7453 61.2239 34.1255 59.7495 39.2781Z" fill="#F5F5F5"/>
<path d="M276.357 297.397H311.696C311.696 297.397 308.559 291.711 299.469 292.535C290.788 293.319 290.34 289.735 285.925 289.296C281.51 288.856 277.824 292.244 276.357 297.397Z" fill="#F5F5F5"/>
<path d="M298.842 202.014C298.655 201.376 298.597 200.707 298.67 200.046C298.615 199.386 298.692 198.722 298.897 198.093C299.095 198.726 299.156 199.395 299.077 200.054C299.136 200.716 299.056 201.384 298.842 202.014Z" fill="#00FFB0"/>
<path d="M298.411 209.841C298.231 208.529 298.327 207.193 298.693 205.92C298.873 207.232 298.777 208.568 298.411 209.841Z" fill="#00FFB0"/>
<path d="M297.478 217.629C297.363 216.976 297.382 216.306 297.532 215.66C297.556 214.996 297.71 214.343 297.987 213.739C298.111 214.394 298.092 215.068 297.932 215.715C297.911 216.377 297.757 217.028 297.478 217.629Z" fill="#00FFB0"/>
<path d="M296.105 225.378C296.03 224.716 296.089 224.047 296.277 223.409C296.338 222.749 296.533 222.109 296.85 221.527C296.925 222.185 296.866 222.852 296.677 223.488C296.618 224.15 296.423 224.793 296.105 225.378Z" fill="#00FFB0"/>
<path d="M294.285 232.977C294.337 231.658 294.666 230.365 295.25 229.181C295.198 230.5 294.87 231.794 294.285 232.977Z" fill="#00FFB0"/>
<path d="M292.011 240.483C292.01 239.819 292.146 239.162 292.411 238.553C292.547 237.905 292.814 237.291 293.195 236.75C293.196 237.413 293.06 238.07 292.795 238.679C292.664 239.329 292.397 239.943 292.011 240.483Z" fill="#00FFB0"/>
<path d="M289.297 247.839C289.34 247.178 289.516 246.532 289.815 245.941C289.986 245.299 290.29 244.7 290.709 244.184C290.665 244.848 290.489 245.496 290.191 246.09C290.016 246.728 289.712 247.323 289.297 247.839Z" fill="#00FFB0"/>
<path d="M286.152 255.023C286.233 254.365 286.447 253.73 286.78 253.156C286.997 252.529 287.336 251.951 287.776 251.455C287.699 252.116 287.485 252.754 287.149 253.329C286.935 253.955 286.596 254.532 286.152 255.023Z" fill="#00FFB0"/>
<path d="M282.584 262.011C282.709 261.36 282.959 260.739 283.321 260.184C283.831 259.227 284.317 258.49 284.419 258.544C284.302 259.198 284.051 259.82 283.682 260.372C283.18 261.329 282.725 262.066 282.584 262.011Z" fill="#00FFB0"/>
<path d="M278.616 268.771C278.774 268.127 279.063 267.521 279.463 266.991C280.02 266.066 280.553 265.36 280.655 265.422C280.495 266.067 280.207 266.672 279.808 267.203C279.243 268.128 278.71 268.834 278.616 268.771Z" fill="#00FFB0"/>
<path d="M274.255 275.289C274.457 274.655 274.779 274.067 275.204 273.555C275.816 272.669 276.388 271.987 276.482 272.065C276.288 272.698 275.968 273.285 275.541 273.791C274.922 274.685 274.349 275.351 274.255 275.289Z" fill="#00FFB0"/>
<path d="M269.526 281.539C269.755 280.917 270.11 280.348 270.569 279.869C271.236 279.014 271.847 278.379 271.934 278.449C272.02 278.52 271.557 279.233 270.891 280.12C270.224 281.006 269.612 281.61 269.526 281.539Z" fill="#00FFB0"/>
<path d="M264.436 287.5C264.35 287.421 264.86 286.715 265.573 285.931C266.287 285.147 266.938 284.519 267.024 284.59C267.111 284.661 266.601 285.374 265.879 286.198C265.158 287.021 264.515 287.57 264.436 287.5Z" fill="#00FFB0"/>
<path d="M259.001 293.146C258.923 293.068 259.472 292.362 260.232 291.578C260.993 290.794 261.675 290.252 261.762 290.331C261.848 290.409 261.291 291.115 260.523 291.899C259.754 292.684 259.08 293.225 259.001 293.146Z" fill="#00FFB0"/>
<path d="M253.252 298.472C253.174 298.385 253.77 297.734 254.57 297.013C255.37 296.291 256.091 295.766 256.138 295.852C256.185 295.938 255.629 296.589 254.821 297.311C254.013 298.032 253.323 298.558 253.252 298.472Z" fill="#00FFB0"/>
<path d="M247.198 303.452C247.127 303.358 247.755 302.746 248.602 302.071C249.077 301.609 249.639 301.247 250.256 301.005C250.335 301.091 249.7 301.711 248.853 302.385C248.38 302.85 247.817 303.213 247.198 303.452Z" fill="#00FFB0"/>
<path d="M240.861 308.063C240.798 307.969 241.465 307.389 242.343 306.769C242.843 306.333 243.428 306.005 244.061 305.805C244.131 305.899 243.465 306.479 242.579 307.099C242.078 307.535 241.494 307.863 240.861 308.063Z" fill="#00FFB0"/>
<path d="M234.273 312.298C234.21 312.204 234.908 311.663 235.842 311.091C236.37 310.689 236.972 310.396 237.614 310.228C237.677 310.33 236.979 310.863 236.046 311.436C235.521 311.843 234.917 312.137 234.273 312.298Z" fill="#00FFB0"/>
<path d="M227.442 316.141C227.387 316.039 228.117 315.545 229.066 315.028C229.61 314.641 230.23 314.374 230.885 314.243C230.423 314.719 229.871 315.097 229.262 315.357C228.716 315.741 228.096 316.008 227.442 316.141Z" fill="#00FFB0"/>
<path d="M220.391 319.568C220.88 319.121 221.453 318.777 222.078 318.557C222.648 318.214 223.284 317.992 223.944 317.906C223.455 318.357 222.878 318.704 222.25 318.925C221.682 319.267 221.049 319.486 220.391 319.568Z" fill="#00FFB0"/>
<path d="M213.153 322.58C213.666 322.157 214.262 321.845 214.901 321.662C215.491 321.358 216.137 321.177 216.799 321.129C216.283 321.547 215.688 321.859 215.051 322.047C214.46 322.35 213.815 322.532 213.153 322.58Z" fill="#00FFB0"/>
<path d="M205.749 325.152C206.289 324.773 206.9 324.506 207.545 324.368C208.151 324.092 208.809 323.948 209.475 323.945C208.331 324.608 207.063 325.028 205.749 325.176V325.152Z" fill="#00FFB0"/>
<path d="M198.212 327.286C198.769 326.927 199.394 326.687 200.047 326.58C200.671 326.348 201.335 326.244 202 326.274C201.439 326.629 200.812 326.869 200.157 326.98C199.536 327.211 198.875 327.315 198.212 327.286Z" fill="#00FFB0"/>
<path d="M190.55 328.964C191.131 328.643 191.772 328.443 192.432 328.376C193.066 328.178 193.733 328.111 194.393 328.18C193.813 328.504 193.172 328.707 192.511 328.776C191.876 328.969 191.209 329.033 190.55 328.964Z" fill="#00FFB0"/>
<path d="M182.809 330.187C183.398 329.898 184.037 329.728 184.691 329.686C185.336 329.531 186.005 329.504 186.66 329.607C185.42 330.067 184.097 330.257 182.778 330.164L182.809 330.187Z" fill="#00FFB0"/>
<path d="M175.006 330.956C175.621 330.706 176.279 330.58 176.943 330.587C177.595 330.466 178.266 330.482 178.911 330.635C178.297 330.884 177.638 331.007 176.974 330.995C176.323 331.121 175.652 331.108 175.006 330.956Z" fill="#00FFB0"/>
<path d="M167.171 331.254C167.797 331.034 168.462 330.948 169.124 331.003C169.783 330.921 170.453 330.971 171.092 331.152C170.464 331.373 169.796 331.461 169.132 331.411C168.474 331.49 167.807 331.437 167.171 331.254Z" fill="#00FFB0"/>
<path d="M159.328 331.129C159.967 330.943 160.638 330.895 161.297 330.987C161.959 330.944 162.623 331.035 163.249 331.254C161.948 331.485 160.612 331.442 159.328 331.129Z" fill="#00FFB0"/>
<path d="M151.509 330.525C152.159 330.395 152.828 330.395 153.478 330.525C154.143 330.519 154.802 330.65 155.415 330.909C154.763 331.043 154.09 331.043 153.438 330.909C152.776 330.916 152.119 330.785 151.509 330.525Z" fill="#00FFB0"/>
<path d="M143.737 329.474C145.055 329.393 146.375 329.591 147.611 330.054C146.956 330.162 146.286 330.132 145.643 329.968C144.981 329.934 144.332 329.766 143.737 329.474Z" fill="#00FFB0"/>
<path d="M136.067 327.96C136.727 327.897 137.394 327.966 138.027 328.164C138.688 328.233 139.327 328.442 139.902 328.776C138.583 328.779 137.278 328.512 136.067 327.992V327.96Z" fill="#00FFB0"/>
<path d="M128.452 325.992C129.771 326.07 131.059 326.425 132.232 327.035C131.568 327.059 130.907 326.95 130.287 326.713C129.632 326.6 129.008 326.355 128.452 325.992Z" fill="#00FFB0"/>
<path d="M120.985 323.584C121.649 323.593 122.303 323.74 122.907 324.015C123.553 324.172 124.163 324.451 124.703 324.839C124.039 324.829 123.385 324.682 122.781 324.407C122.134 324.253 121.524 323.974 120.985 323.584Z" fill="#00FFB0"/>
<path d="M113.684 320.729C114.344 320.782 114.987 320.969 115.574 321.278C116.212 321.465 116.805 321.783 117.315 322.211C116.014 321.978 114.776 321.473 113.684 320.729Z" fill="#00FFB0"/>
<path d="M106.562 317.451C107.845 317.767 109.049 318.344 110.099 319.145C109.442 319.052 108.81 318.828 108.241 318.486C107.26 318.016 106.507 317.553 106.562 317.451Z" fill="#00FFB0"/>
<path d="M99.6453 313.757C100.295 313.895 100.911 314.162 101.457 314.541C102.066 314.801 102.616 315.183 103.073 315.663C102.421 315.529 101.804 315.262 101.261 314.879C100.312 314.361 99.5904 313.859 99.6453 313.757Z" fill="#00FFB0"/>
<path d="M92.9319 309.663C93.574 309.832 94.1745 310.131 94.6965 310.541C95.6141 311.122 96.3042 311.663 96.265 311.765C95.6211 311.589 95.0204 311.282 94.5004 310.863C93.5907 310.306 92.9319 309.757 92.9319 309.663Z" fill="#00FFB0"/>
<path d="M86.5243 305.185C87.1505 305.393 87.7291 305.724 88.2262 306.157C89.1046 306.785 89.7948 307.373 89.7006 307.467C89.0692 307.262 88.4872 306.928 87.9909 306.487C87.1125 305.859 86.4538 305.279 86.5243 305.185Z" fill="#00FFB0"/>
<path d="M80.3835 300.338C81.0038 300.577 81.5673 300.943 82.0383 301.413C82.8775 302.095 83.497 302.722 83.4343 302.809C82.8151 302.567 82.2519 302.202 81.7795 301.734C80.9168 301.052 80.2894 300.424 80.3835 300.338Z" fill="#00FFB0"/>
<path d="M74.4937 295.178C75.0895 295.458 75.6229 295.856 76.0623 296.346C76.8465 297.076 77.4426 297.734 77.372 297.821C77.3014 297.907 76.5877 297.381 75.8035 296.652C75.0192 295.923 74.4231 295.217 74.4937 295.178Z" fill="#00FFB0"/>
<path d="M68.9488 289.602C69.5297 289.921 70.0436 290.35 70.4624 290.864C71.2467 291.648 71.7643 292.331 71.6781 292.433C71.5918 292.535 70.8938 291.954 70.1644 291.178C69.4351 290.401 68.8625 289.688 68.9488 289.602Z" fill="#00FFB0"/>
<path d="M63.7257 283.759C63.8198 283.68 64.4629 284.284 65.1688 285.1C65.6452 285.561 66.0286 286.109 66.2981 286.715C66.2118 286.794 65.5687 286.19 64.8551 285.374C64.1414 284.559 63.6394 283.829 63.7257 283.759Z" fill="#00FFB0"/>
<path d="M58.8632 277.61C58.9573 277.547 59.5612 278.183 60.22 279.045C60.6743 279.529 61.0264 280.1 61.2552 280.724C61.1611 280.786 60.5572 280.151 59.8984 279.288C59.2396 278.426 58.7691 277.681 58.8632 277.61Z" fill="#00FFB0"/>
<path d="M54.3694 271.195C54.4635 271.132 55.0282 271.806 55.6321 272.7C56.0596 273.208 56.3773 273.798 56.5653 274.434C56.4791 274.504 55.9066 273.83 55.2948 272.928C54.8714 272.419 54.5565 271.829 54.3694 271.195Z" fill="#00FFB0"/>
<path d="M50.252 264.521C50.3539 264.466 50.8794 265.171 51.4362 266.089C51.8147 266.627 52.0814 267.235 52.2205 267.877C52.1264 267.932 51.6009 267.226 51.0441 266.309C50.6615 265.773 50.392 265.164 50.252 264.521Z" fill="#00FFB0"/>
<path d="M46.5422 257.627C46.6442 257.572 47.1304 258.309 47.6245 259.266C47.9859 259.823 48.2313 260.447 48.3461 261.101C48.2441 261.156 47.7579 260.419 47.2638 259.454C46.8992 258.902 46.6535 258.279 46.5422 257.627Z" fill="#00FFB0"/>
<path d="M43.2406 250.513C44.0051 251.584 44.5392 252.802 44.8091 254.09C44.7072 254.145 44.2602 253.376 43.821 252.388C43.5039 251.808 43.3066 251.171 43.2406 250.513Z" fill="#00FFB0"/>
<path d="M40.3857 243.22C40.7869 243.745 41.0801 244.345 41.2484 244.984C41.5424 245.579 41.7132 246.228 41.7504 246.89C41.3396 246.368 41.0406 245.768 40.872 245.126C40.579 244.531 40.4134 243.882 40.3857 243.22Z" fill="#00FFB0"/>
<path d="M37.931 235.769C38.3117 236.314 38.5784 236.93 38.7153 237.581C38.9761 238.193 39.1069 238.853 39.0996 239.518C38.7206 238.972 38.454 238.356 38.3153 237.706C38.0552 237.094 37.9244 236.434 37.931 235.769Z" fill="#00FFB0"/>
<path d="M35.9391 228.193C36.292 228.756 36.5218 229.386 36.6136 230.044C36.8357 230.67 36.9265 231.334 36.8802 231.997C36.5328 231.432 36.3058 230.802 36.2136 230.146C35.9918 229.52 35.8984 228.856 35.9391 228.193Z" fill="#00FFB0"/>
<path d="M34.4019 220.499C34.7166 221.087 34.9062 221.733 34.9587 222.397C35.1425 223.034 35.1958 223.701 35.1155 224.358C34.8025 223.773 34.6129 223.129 34.5587 222.468C34.3749 221.829 34.3216 221.16 34.4019 220.499Z" fill="#00FFB0"/>
<path d="M33.3273 212.735C33.608 213.338 33.7602 213.992 33.7744 214.657C33.9068 215.306 33.9068 215.976 33.7744 216.625C33.3366 215.367 33.1709 214.031 33.2881 212.704L33.3273 212.735Z" fill="#00FFB0"/>
<path d="M32.7 204.924C32.9381 205.541 33.0502 206.2 33.0294 206.861C33.1405 207.518 33.1138 208.191 32.9509 208.837C32.7121 208.218 32.6001 207.556 32.6215 206.892C32.5138 206.238 32.5404 205.568 32.7 204.924Z" fill="#00FFB0"/>
<path d="M32.543 197.081C32.7422 197.714 32.8141 198.381 32.7548 199.042C32.8288 199.701 32.7674 200.368 32.5744 201.002C32.37 200.37 32.2927 199.704 32.347 199.042C32.2732 198.382 32.34 197.714 32.543 197.081Z" fill="#00FFB0"/>
<path d="M32.8176 189.246C32.983 189.889 33.0177 190.558 32.9195 191.215C32.9531 191.877 32.8489 192.54 32.6137 193.16C32.4488 192.517 32.4142 191.848 32.5117 191.191C32.4754 190.529 32.5796 189.866 32.8176 189.246Z" fill="#00FFB0"/>
<path d="M33.5548 181.458C33.6936 182.107 33.6936 182.778 33.5548 183.427C33.546 184.091 33.4046 184.747 33.1392 185.356C33.0039 184.034 33.1482 182.698 33.5627 181.435L33.5548 181.458Z" fill="#00FFB0"/>
<path d="M34.7547 173.686C34.8508 174.344 34.808 175.015 34.6292 175.655C34.5832 176.31 34.4072 176.95 34.1116 177.537C34.0156 176.879 34.0583 176.209 34.2371 175.569C34.2815 174.913 34.4575 174.273 34.7547 173.686Z" fill="#00FFB0"/>
<path d="M36.4174 166.016C36.3922 167.34 36.0903 168.643 35.5312 169.843C35.4792 169.18 35.5619 168.513 35.7743 167.883C35.8586 167.223 36.0775 166.588 36.4174 166.016Z" fill="#00FFB0"/>
<path d="M38.5192 158.464C38.41 159.781 38.0338 161.061 37.4134 162.228C37.3952 161.565 37.5154 160.905 37.7663 160.291C37.8927 159.638 38.1487 159.016 38.5192 158.464Z" fill="#00FFB0"/>
<path d="M41.0681 151.052C41.0467 151.716 40.8864 152.368 40.5975 152.966C40.4317 153.607 40.1413 154.209 39.7427 154.738C39.7641 154.075 39.9244 153.423 40.2132 152.825C40.3769 152.183 40.6675 151.58 41.0681 151.052Z" fill="#00FFB0"/>
<path d="M44.0561 143.813C43.9916 144.474 43.7942 145.114 43.4758 145.696C43.2706 146.329 42.9428 146.915 42.5111 147.421C42.5763 146.76 42.7765 146.119 43.0993 145.539C43.2951 144.904 43.621 144.316 44.0561 143.813Z" fill="#00FFB0"/>
<path d="M47.4441 136.755C47.1052 138.032 46.5072 139.225 45.6874 140.261C45.7905 139.605 46.0281 138.977 46.3854 138.418C46.8952 137.43 47.3657 136.684 47.4441 136.755Z" fill="#00FFB0"/>
<path d="M51.2872 129.893C51.1547 130.54 50.8875 131.152 50.5029 131.689C49.9617 132.622 49.4441 133.343 49.3422 133.257C49.483 132.61 49.7495 131.998 50.1264 131.453C50.6754 130.544 51.193 129.83 51.2872 129.893Z" fill="#00FFB0"/>
<path d="M55.5065 123.281C55.3256 123.92 55.016 124.515 54.5967 125.03C54.0007 125.932 53.4438 126.599 53.3497 126.552C53.534 125.914 53.8433 125.32 54.2595 124.803C54.8555 123.901 55.4124 123.219 55.5065 123.281Z" fill="#00FFB0"/>
<path d="M60.1023 116.929C59.8894 117.557 59.5475 118.134 59.0984 118.623C58.4475 119.485 57.8514 120.136 57.7573 120.074C57.6632 120.011 58.1181 119.289 58.769 118.38C59.42 117.47 59.9925 116.858 60.1023 116.929Z" fill="#00FFB0"/>
<path d="M65.0667 110.874C65.153 110.953 64.6511 111.658 63.9609 112.505C63.2708 113.352 62.6277 113.948 62.5414 113.878C62.4551 113.807 62.9492 113.094 63.6472 112.247C64.3452 111.4 64.9805 110.788 65.0667 110.874Z" fill="#00FFB0"/>
<path d="M70.3686 105.094C70.4549 105.173 69.9137 105.878 69.1687 106.663C68.4236 107.447 67.757 108.019 67.6785 107.949C67.6001 107.878 68.1334 107.165 68.8785 106.38C69.6235 105.596 70.2902 105.016 70.3686 105.094Z" fill="#00FFB0"/>
<path d="M76.0073 99.6434C76.0857 99.7297 75.5054 100.428 74.7211 101.134C73.9368 101.839 73.231 102.404 73.1526 102.326C73.0741 102.247 73.6467 101.581 74.4388 100.835C75.2309 100.09 75.9289 99.5571 76.0073 99.6434Z" fill="#00FFB0"/>
<path d="M81.9521 94.5378C82.0227 94.6241 81.4031 95.2593 80.5796 95.9495C80.1125 96.4218 79.555 96.7952 78.9405 97.0475C78.8699 96.9612 79.4816 96.3259 80.313 95.6358C80.7775 95.1604 81.3357 94.7865 81.9521 94.5378Z" fill="#00FFB0"/>
<path d="M88.1791 89.7851C88.2497 89.8792 87.5987 90.4674 86.7282 91.1105C86.2347 91.5529 85.6592 91.894 85.0342 92.1144C84.9636 92.0281 85.6145 91.4321 86.4851 90.7812C86.975 90.3359 87.5518 89.9967 88.1791 89.7851Z" fill="#00FFB0"/>
<path d="M94.6808 85.4089C94.7435 85.503 94.0534 86.0598 93.1515 86.648C92.635 87.0631 92.0402 87.3698 91.4026 87.55C91.3398 87.4558 92.0221 86.899 92.9319 86.303C93.4455 85.8852 94.0414 85.5806 94.6808 85.4089Z" fill="#00FFB0"/>
<path d="M101.426 81.417C101.48 81.5189 100.767 82.0287 99.857 82.5698C99.3149 82.9505 98.7013 83.2173 98.0532 83.3541C98.4951 82.8704 99.0282 82.4786 99.6218 82.2012C100.163 81.8195 100.777 81.5526 101.426 81.417Z" fill="#00FFB0"/>
<path d="M108.398 77.8329C107.92 78.2916 107.354 78.649 106.735 78.8838C106.173 79.2403 105.542 79.4754 104.884 79.5739C105.362 79.1152 105.927 78.7578 106.547 78.523C107.11 78.1677 107.74 77.9327 108.398 77.8329Z" fill="#00FFB0"/>
<path d="M115.566 74.6644C115.063 75.0984 114.475 75.4242 113.841 75.6212C113.26 75.9425 112.619 76.1376 111.958 76.1937C112.462 75.7627 113.05 75.4397 113.684 75.2448C114.266 74.9273 114.906 74.73 115.566 74.6644Z" fill="#00FFB0"/>
<path d="M122.907 71.9273C122.382 72.3328 121.778 72.624 121.134 72.7821C120.533 73.0622 119.883 73.2195 119.221 73.2449C119.746 72.843 120.35 72.5545 120.993 72.3979C121.593 72.1141 122.244 71.9541 122.907 71.9273Z" fill="#00FFB0"/>
<path d="M130.404 69.6372C129.852 70.0045 129.23 70.2553 128.577 70.3744C127.963 70.6253 127.303 70.7455 126.64 70.7274C127.804 70.1025 129.087 69.731 130.404 69.6372Z" fill="#00FFB0"/>
<path d="M138.02 67.7863C136.821 68.3392 135.52 68.6357 134.2 68.6569C134.771 68.3157 135.407 68.0992 136.067 68.0216C136.695 67.8094 137.359 67.7293 138.02 67.7863Z" fill="#00FFB0"/>
<path d="M145.737 66.3903C144.507 66.8737 143.19 67.0928 141.87 67.0334C142.461 66.7315 143.107 66.5527 143.768 66.508C144.41 66.3383 145.079 66.2984 145.737 66.3903Z" fill="#00FFB0"/>
<path d="M153.525 65.457C152.26 65.8658 150.925 66.0047 149.603 65.8649C150.212 65.5999 150.869 65.4611 151.533 65.457C152.189 65.3149 152.868 65.3149 153.525 65.457Z" fill="#00FFB0"/>
<path d="M161.352 64.9708C160.729 65.2072 160.063 65.3088 159.399 65.2688C158.742 65.3617 158.073 65.3244 157.43 65.1591C158.053 64.9227 158.718 64.8211 159.383 64.861C160.04 64.7682 160.709 64.8055 161.352 64.9708Z" fill="#00FFB0"/>
<path d="M169.186 64.9473C168.552 65.1403 167.885 65.2017 167.226 65.1277C166.564 65.182 165.897 65.1047 165.265 64.9002C166.561 64.6439 167.897 64.6599 169.186 64.9473Z" fill="#00FFB0"/>
<path d="M177.021 65.3865C175.709 65.5635 174.375 65.4701 173.1 65.112C173.745 64.958 174.414 64.9341 175.069 65.0414C175.736 65.0195 176.402 65.137 177.021 65.3865Z" fill="#00FFB0"/>
<path d="M184.817 66.2649C184.161 66.3789 183.49 66.3629 182.841 66.2178C182.179 66.1968 181.528 66.0421 180.927 65.7629C182.255 65.6526 183.591 65.8237 184.848 66.2649H184.817Z" fill="#00FFB0"/>
<path d="M192.534 67.606C191.211 67.6325 189.898 67.3841 188.676 66.8766C189.336 66.7967 190.006 66.8527 190.644 67.0413C191.306 67.1003 191.949 67.2924 192.534 67.606Z" fill="#00FFB0"/>
<path d="M200.173 69.402C198.851 69.3585 197.554 69.0322 196.369 68.4451C197.69 68.4987 198.984 68.8244 200.173 69.402Z" fill="#00FFB0"/>
<path d="M207.686 71.6606C206.369 71.5352 205.094 71.1316 203.945 70.4764C204.606 70.4814 205.259 70.6173 205.867 70.8764C206.521 71.0084 207.141 71.2755 207.686 71.6606Z" fill="#00FFB0"/>
<path d="M215.051 74.3428C214.388 74.3007 213.74 74.1274 213.145 73.8331C212.504 73.6594 211.906 73.355 211.388 72.939C212.051 72.9812 212.699 73.1544 213.294 73.4488C213.935 73.6216 214.533 73.9261 215.051 74.3428Z" fill="#00FFB0"/>
<path d="M222.243 77.4642C221.586 77.3828 220.951 77.1723 220.376 76.8447C219.747 76.6322 219.168 76.2932 218.674 75.8486C219.332 75.9267 219.967 76.1375 220.541 76.4682C221.552 76.9153 222.337 77.3623 222.243 77.4642Z" fill="#00FFB0"/>
<path d="M229.246 81.0013C228.59 80.8871 227.966 80.6388 227.411 80.2719C226.454 79.77 225.717 79.2838 225.772 79.1818C226.424 79.2981 227.046 79.5463 227.599 79.9112C228.214 80.1623 228.774 80.5328 229.246 81.0013Z" fill="#00FFB0"/>
<path d="M236.014 84.9462C235.369 84.7961 234.763 84.5129 234.234 84.1149C233.308 83.558 232.603 83.0247 232.665 82.9228C233.311 83.0827 233.918 83.3678 234.454 83.7619C235.371 84.3188 236.077 84.8521 236.014 84.9462Z" fill="#00FFB0"/>
<path d="M242.547 89.291C241.913 89.0941 241.324 88.7743 240.814 88.3499C239.928 87.7382 239.245 87.1657 239.316 87.0715C239.951 87.2646 240.541 87.5848 241.049 88.0127C241.943 88.6244 242.61 89.1969 242.547 89.291Z" fill="#00FFB0"/>
<path d="M248.813 94.0045C248.191 93.7709 247.62 93.4164 247.135 92.9614C246.288 92.2948 245.645 91.6909 245.716 91.5968C246.337 91.8279 246.905 92.1827 247.386 92.6399C248.217 93.3065 248.884 93.9104 248.813 94.0045Z" fill="#00FFB0"/>
<path d="M254.79 99.1101C254.711 99.1964 254.005 98.6866 253.182 97.9729C252.358 97.2592 251.762 96.6161 251.841 96.5299C251.919 96.4436 252.625 96.9534 253.448 97.6671C254.272 98.3807 254.868 98.9925 254.79 99.1101Z" fill="#00FFB0"/>
<path d="M260.46 104.482C260.381 104.561 259.676 104.012 258.891 103.259C258.379 102.837 257.953 102.321 257.636 101.737C257.715 101.659 258.421 102.208 259.205 102.969C259.989 103.729 260.538 104.404 260.46 104.482Z" fill="#00FFB0"/>
<path d="M265.801 110.215C265.714 110.294 265.064 109.706 264.334 108.906C263.605 108.106 263.087 107.392 263.173 107.337C263.26 107.282 263.911 107.847 264.64 108.655C265.369 109.462 265.887 110.145 265.801 110.215Z" fill="#00FFB0"/>
<path d="M270.804 116.254C270.71 116.325 270.091 115.697 269.416 114.858C268.95 114.384 268.585 113.822 268.342 113.203C268.436 113.125 269.055 113.752 269.73 114.599C270.196 115.073 270.561 115.636 270.804 116.254Z" fill="#00FFB0"/>
<path d="M275.439 122.575C275.345 122.638 274.757 121.972 274.138 121.093C273.7 120.595 273.37 120.014 273.165 119.383C273.259 119.313 273.84 119.972 274.467 120.858C274.9 121.361 275.23 121.945 275.439 122.575Z" fill="#00FFB0"/>
<path d="M279.69 129.155C279.596 129.21 279.055 128.512 278.482 127.587C278.077 127.06 277.781 126.458 277.612 125.815C277.706 125.752 278.255 126.45 278.828 127.383C279.237 127.906 279.531 128.51 279.69 129.155Z" fill="#00FFB0"/>
<path d="M283.557 135.971C283.455 136.026 282.953 135.296 282.435 134.347C282.054 133.802 281.788 133.186 281.651 132.536C281.753 132.481 282.255 133.202 282.772 134.151C283.155 134.698 283.422 135.317 283.557 135.971Z" fill="#00FFB0"/>
<path d="M287.008 143.029C286.557 142.542 286.21 141.968 285.988 141.343C285.644 140.775 285.423 140.142 285.337 139.484C285.787 139.972 286.134 140.545 286.357 141.171C286.702 141.737 286.924 142.371 287.008 143.029Z" fill="#00FFB0"/>
<path d="M290.042 150.229C289.62 149.718 289.308 149.125 289.125 148.488C288.812 147.903 288.628 147.259 288.584 146.598C289.003 147.111 289.315 147.703 289.501 148.339C289.813 148.924 289.997 149.568 290.042 150.229Z" fill="#00FFB0"/>
<path d="M292.638 157.624C292.262 157.086 291.995 156.478 291.854 155.836C291.584 155.229 291.439 154.572 291.431 153.907C291.806 154.449 292.073 155.059 292.215 155.703C292.49 156.307 292.634 156.961 292.638 157.624Z" fill="#00FFB0"/>
<path d="M294.795 165.161C294.197 163.986 293.85 162.698 293.776 161.381C294.374 162.557 294.721 163.844 294.795 165.161Z" fill="#00FFB0"/>
<path d="M296.505 172.831C295.985 171.617 295.719 170.31 295.721 168.989C296.05 169.567 296.256 170.208 296.324 170.871C296.517 171.505 296.579 172.172 296.505 172.831Z" fill="#00FFB0"/>
<path d="M297.76 180.557C297.464 179.96 297.298 179.308 297.273 178.643C297.114 177.999 297.084 177.33 297.187 176.674C297.648 177.928 297.843 179.263 297.76 180.596V180.557Z" fill="#00FFB0"/>
<path d="M298.552 188.352C298.292 187.743 298.164 187.085 298.175 186.423C298.044 185.771 298.044 185.099 298.175 184.447C298.435 185.059 298.563 185.719 298.552 186.384C298.684 187.033 298.684 187.703 298.552 188.352Z" fill="#00FFB0"/>
<path d="M298.889 196.187C298.665 195.562 298.576 194.896 298.63 194.234C298.546 193.578 298.594 192.911 298.771 192.274C298.997 192.898 299.088 193.564 299.038 194.226C299.122 194.883 299.071 195.55 298.889 196.187Z" fill="#00FFB0"/>
<path d="M288.317 203.536C288.388 202.132 288.427 200.744 288.435 199.348C288.443 197.952 288.435 196.414 288.435 194.956C288.435 196.414 288.474 197.881 288.435 199.348C288.396 200.814 288.388 202.132 288.317 203.536Z" fill="#263238"/>
<path d="M274.82 218.994C274.035 216.123 274.177 213.112 273.8 210.171C273.596 208.602 273.118 206.869 271.792 205.99C270.914 205.41 269.793 205.308 268.836 204.861C265.393 203.293 265.142 198.101 261.965 196.054C260.927 195.486 259.809 195.078 258.648 194.846C254.17 193.646 249.684 191.395 247.339 187.403C246.555 186.109 246.053 184.643 245.033 183.537C244.014 182.431 242.249 181.757 240.971 182.556C241.661 184.619 242.32 186.674 242.986 188.713C243.606 190.572 244.225 192.485 245.488 193.96C246.751 195.434 248.813 196.446 250.68 195.889C251.27 195.596 251.929 195.469 252.586 195.52C253.039 195.687 253.415 196.013 253.644 196.438C255.731 199.575 254.264 203.983 251.433 206.445C248.602 208.908 244.837 209.826 241.237 210.696C239.959 211.117 238.589 211.182 237.277 210.884C234.963 210.1 234.069 207.324 233.708 204.892C232.924 199.52 232.924 193.819 230.399 189.011C229.575 187.497 228.485 186.062 228.101 184.376C227.701 182.556 228.148 180.557 227.316 178.886C226.485 177.216 224.321 175.882 224.446 173.937C224.54 172.581 225.826 171.585 227.144 171.153C228.461 170.722 229.865 170.761 231.214 170.424C231.74 170.283 232.351 170 232.453 169.467C232.563 168.683 231.497 168.173 231.316 167.381C231.136 166.589 232.1 165.812 232.595 165.028C233.661 163.256 231.975 161.067 230.179 160.024C228.383 158.981 226.203 158.095 225.583 156.103C225.388 155.17 225.314 154.216 225.364 153.264C225.262 150.872 223.874 148.378 221.583 147.649C219.293 146.919 216.36 148.645 216.407 151.044C216.407 152.362 217.262 153.507 217.615 154.77C217.968 156.032 217.568 157.789 216.282 157.993C214.172 158.315 212.768 154.346 210.894 155.366C211.239 157.836 211.576 160.299 211.921 162.777C209.074 163.742 206.251 160.84 205.522 157.907C204.792 154.974 205.2 151.837 204.235 148.99C203.271 146.143 199.93 143.617 197.35 145.17C196.746 148.574 201.059 150.613 202.659 153.664C203.812 155.876 203.13 159.091 200.816 160.056C198.502 161.02 195.467 158.323 196.612 156.134C197.02 155.35 197.789 154.793 197.993 153.938C198.228 152.872 197.444 151.876 196.722 151.068C195.593 149.782 194.456 148.519 193.326 147.256C192.644 146.387 191.793 145.664 190.824 145.131C188.283 143.978 185.334 145.743 183.578 147.907C181.821 150.072 180.637 152.762 178.409 154.464C175.202 156.942 169.892 156.354 167.712 152.95C165.532 149.547 167.712 144.096 171.704 143.539C173.225 143.343 175.061 143.649 176.017 142.472C177.696 140.378 174.268 136.904 175.931 134.787C177.209 133.163 179.782 134.363 181.829 134.049C183.876 133.736 185.233 131.932 186.636 130.41C188.04 128.889 190.04 127.469 191.977 128.199C191.878 126.999 192.125 125.795 192.691 124.732C193.365 123.728 194.934 123.25 195.789 124.081C194.581 125.556 195.428 128.003 197.02 129.022C198.612 130.042 200.643 130.175 202.557 130.238C204.471 130.301 206.933 129.932 207.365 128.065C207.506 127.461 207.365 126.771 207.686 126.23C208.839 124.105 212.541 127.799 214.4 126.23C215.458 125.446 214.682 123.603 213.443 123.093C212.204 122.583 210.823 122.866 209.521 122.717C208.219 122.568 206.714 121.666 206.847 120.364C206.98 119.062 208.549 118.356 208.886 117.109C209.451 114.992 205.874 113.901 204.337 115.47C202.8 117.039 202.91 119.501 202.981 121.689C203.051 123.877 202.91 126.395 201.114 127.697C200.29 128.622 198.62 127.83 198.204 126.669C197.789 125.509 198.087 124.222 198.165 122.991C198.244 121.76 197.906 120.285 196.761 119.791C195.977 119.438 195.028 119.713 194.165 119.705C190.762 119.627 189.06 114.999 190.581 111.925C192.103 108.851 195.412 107.219 198.596 106.043C200.949 105.165 203.749 104.475 205.71 105.949C206.627 106.655 207.184 107.714 208.063 108.435C209.631 109.682 211.757 109.619 213.694 109.933C216.754 110.483 219.53 112.073 221.552 114.435C222.336 115.344 222.917 116.788 222.109 117.619C221.301 118.45 219.105 118.403 219.301 119.642C219.844 119.881 220.431 120.003 221.024 119.999C221.617 119.995 222.203 119.866 222.743 119.62C223.282 119.374 223.764 119.017 224.156 118.572C224.549 118.128 224.842 117.605 225.019 117.039C225.538 117.375 225.96 117.841 226.242 118.392C226.524 118.943 226.657 119.558 226.626 120.176C227.344 119.678 228.157 119.335 229.014 119.169C229.871 119.003 230.754 119.019 231.605 119.213C232.456 119.408 233.257 119.779 233.957 120.301C234.657 120.823 235.24 121.486 235.669 122.246C235.982 123.125 236.446 123.943 237.041 124.662C237.739 125.273 239.12 125.218 239.347 124.324C239.413 124.038 239.413 123.74 239.347 123.454C239.073 122.081 238.782 120.725 238.508 119.368C240.429 118.67 242.327 120.474 243.308 122.262C246.939 128.928 250.672 125.783 256.868 127.681C261.064 128.952 262.554 131.979 264.491 135.649C270.436 146.951 279.023 156.754 284.223 168.416C284.746 169.634 285.243 170.863 285.713 172.102C285.643 171.796 285.588 171.498 285.509 171.192C283.881 163.872 281.565 156.722 278.592 149.837C277.959 148.378 277.306 146.93 276.631 145.492C276.208 144.606 275.769 143.704 275.329 142.833C274.765 141.688 274.161 140.582 273.557 139.477C273.079 138.582 272.592 137.704 272.09 136.849C271.745 136.245 271.385 135.649 271.016 135.045C270.647 134.441 270.232 133.696 269.777 133.022L268.436 130.92C268.301 130.695 268.154 130.478 267.997 130.269C267.534 129.54 267.032 128.818 266.53 128.097C266.498 128.013 266.447 127.938 266.381 127.877C266.255 127.681 266.106 127.485 265.957 127.289C265.557 126.677 265.11 126.081 264.687 125.493C263.981 124.528 263.26 123.564 262.507 122.63C261.903 121.846 261.268 121.062 260.617 120.278C259.966 119.493 259.479 118.897 258.891 118.223C258.303 117.548 257.746 116.897 257.158 116.246C256.444 115.462 255.723 114.678 254.97 113.847C252.907 111.643 250.766 109.525 248.539 107.517C247.99 107.008 247.449 106.514 246.892 106.027C246.335 105.541 245.762 105.039 245.198 104.561C244.633 104.082 244.068 103.596 243.48 103.133C242.892 102.671 242.327 102.184 241.747 101.73C241.167 101.275 240.814 100.985 240.335 100.639C240.102 100.442 239.858 100.256 239.606 100.083C238.602 99.2983 237.575 98.5141 236.539 97.8317C236.022 97.4631 235.504 97.0945 234.971 96.7416C234.312 96.271 233.63 95.824 232.948 95.3927C232.853 95.314 232.751 95.2457 232.642 95.1888C232.03 94.7888 231.426 94.4045 230.791 93.9967C229.912 93.4634 229.026 92.9222 228.14 92.4281C227.128 91.8321 226.117 91.236 225.073 90.6714C224.03 90.1067 222.783 89.4165 221.615 88.8362C220.446 88.2558 219.262 87.6519 218.062 87.0872C216.862 86.5226 215.662 85.9971 214.447 85.4638C212.047 84.4286 209.592 83.4639 207.114 82.5777L206.98 82.5228C206.031 82.1856 205.075 81.8562 204.118 81.5581C204.059 81.5257 203.995 81.5019 203.93 81.4876C203.522 81.3542 203.09 81.2131 202.659 81.0876C200.871 80.5151 199.067 80.0053 197.232 79.519C197.013 79.4504 196.79 79.3928 196.565 79.3465C196.04 79.1896 195.506 79.072 194.957 78.9387C193.75 78.6407 192.526 78.3662 191.295 78.1152C190.064 77.8642 188.715 77.5819 187.421 77.3309C186.127 77.08 184.699 76.8604 183.335 76.6643C179.722 76.1415 176.122 75.7833 172.535 75.5898C171.68 75.5271 170.849 75.4879 170.002 75.4644C169.155 75.4408 168.245 75.4016 167.367 75.3938C166.488 75.3859 165.602 75.3938 164.74 75.3938C163.877 75.3938 162.983 75.3938 162.097 75.4408C161.351 75.4408 160.583 75.4408 159.83 75.5271C157.969 75.616 156.126 75.7415 154.301 75.9036C153.446 75.9741 152.591 76.0682 151.728 76.178C150.866 76.2878 150.011 76.382 149.172 76.4996C147.752 76.6878 146.364 76.9153 144.976 77.1505L141.588 77.778H141.509C140.357 78.0054 139.243 78.2564 138.106 78.523H137.925C136.882 78.7661 135.847 79.025 134.827 79.3073C133.541 79.6288 132.271 79.9975 131.024 80.3661C129.957 80.6798 128.906 81.0013 127.887 81.3464C126.867 81.6915 125.659 82.0836 124.561 82.4757L124.444 82.5149C123.385 82.8914 122.326 83.2992 121.307 83.707C120.287 84.1149 119.166 84.5541 118.091 85.0246C117.087 85.4481 116.107 85.8716 115.119 86.3187C114.742 86.4834 114.382 86.6637 113.997 86.8441C112.954 87.3225 111.935 87.8245 110.86 88.3421C109.59 88.9617 108.358 89.6283 107.127 90.2949C106.037 90.8831 104.97 91.4949 103.919 92.1066C97.8278 95.6477 92.0525 99.7069 86.6576 104.239C84.7597 105.808 82.9558 107.439 81.1677 109.102C79.6698 110.537 78.2032 111.988 76.7836 113.509C77.0973 113.509 77.4111 113.509 77.7169 113.509C79.4658 113.627 81.2853 113.949 82.9558 113.423C84.5244 112.921 85.7008 111.776 87.1438 111.07C90.8299 109.172 96.3747 109.502 97.857 105.651C98.3589 104.349 98.2099 102.835 98.8922 101.62C100.178 99.3532 103.441 99.4709 106.013 99.8865C107.111 100.043 108.366 100.381 108.735 101.455C108.822 101.834 108.828 102.227 108.752 102.608C108.676 102.989 108.521 103.35 108.296 103.667C106.037 107.95 102.373 111.326 97.9197 113.227C94.2807 114.796 89.6927 115.729 88.2183 119.399C88.4928 120.756 90.8534 120.968 90.8456 122.372C90.8456 123.47 89.3633 123.822 88.7202 124.724C87.7869 126.018 89.2143 127.971 90.8221 128.128C92.4298 128.285 93.9199 127.344 95.2532 126.411C99.2216 123.666 103.394 120.701 105.331 116.27C106.115 114.443 106.664 112.239 108.382 111.196C108.905 110.93 109.482 110.789 110.069 110.785C110.655 110.78 111.235 110.911 111.762 111.168C112.29 111.424 112.751 111.8 113.108 112.265C113.466 112.73 113.711 113.271 113.825 113.847C115.472 113.219 117.926 112.929 118.483 114.631C118.574 115.243 118.597 115.864 118.554 116.482C118.695 119.015 121.895 120.615 121.887 123.148C121.887 126.065 117.966 127.014 115.056 127.069C112.405 127.069 109.754 127.124 107.096 127.171C105.939 127.088 104.78 127.285 103.715 127.744C103.189 127.992 102.764 128.413 102.51 128.937C102.256 129.46 102.189 130.055 102.319 130.622C102.633 131.191 103.018 131.718 103.465 132.191C105.308 134.653 102.892 138.833 99.8412 138.465C98.7981 138.347 97.8334 137.822 96.8061 137.633C93.7474 137.053 90.9162 139.406 89.0575 141.908C87.1987 144.41 85.6616 147.343 82.9402 148.833C78.5482 151.241 71.8192 149.562 69.239 153.86C68.2037 155.593 68.3057 157.726 68.3292 159.75C68.3527 161.773 68.1645 163.969 66.7607 165.436C65.3568 166.902 62.3844 166.8 61.7962 164.871C61.6273 164.007 61.7173 163.112 62.055 162.299C62.923 159.522 63.783 156.744 64.6353 153.962C65.2705 151.892 65.898 149.57 64.9019 147.688C63.4981 145.013 59.5454 144.676 56.9965 146.292C54.4476 147.907 53.0751 150.809 52.0321 153.617C51.2478 155.703 50.2753 158.668 48.7303 160.95C47.946 163.303 47.3029 165.655 46.699 168.055C46.0951 170.455 45.5618 172.981 45.1305 175.498C45.5171 175.259 45.889 174.997 46.2442 174.714C47.6323 173.639 50.84 168.706 52.6595 171.616C52.8786 171.996 52.9665 172.438 52.9098 172.873C52.8531 173.308 52.6549 173.712 52.3458 174.024C51.5615 174.808 50.1733 174.808 49.5224 175.655C48.7381 176.682 49.4048 178.196 50.3067 179.074C51.2086 179.953 52.4399 180.643 53.0202 181.78C54.1261 184 52.3458 186.862 53.4124 189.121C54.33 191.058 56.8083 191.536 58.9023 192.07L59.616 192.297C60.8237 188.148 63.302 184.996 69.2546 184.525C77.4738 183.866 86.9791 191.976 90.5946 198.642C94.6179 206.077 95.614 215.896 102.774 220.382C107.903 223.582 115.817 223.84 117.675 229.589C119.362 234.742 114.429 239.542 113.025 244.773C112.115 248.239 112.758 251.902 112.523 255.454C112.288 259.007 110.625 262.999 107.198 264.011C105.3 264.56 103.065 264.136 101.425 265.273C98.5158 267.328 99.8569 272.63 96.9864 274.685C95.959 275.398 94.6336 275.524 93.4886 275.924C87.3164 277.994 86.2498 286.472 88.0693 292.723C88.1399 292.95 88.2104 293.154 88.2732 293.382C105.477 307.365 126.148 316.426 148.089 319.6C167.961 322.503 188.243 320.462 207.137 313.655C211.112 312.219 215.01 310.578 218.815 308.738C224.681 305.924 230.309 302.64 235.645 298.919C239.339 296.358 242.884 293.59 246.264 290.629C248.617 288.574 250.915 286.41 253.127 284.182C254.248 283.029 255.362 281.876 256.421 280.669C264.319 272.034 270.923 262.299 276.027 251.768C279.15 245.37 281.695 238.706 283.635 231.856C284.419 229.173 285.086 226.452 285.682 223.691C284.954 224.265 284.12 224.69 283.228 224.942C282.336 225.194 281.403 225.267 280.482 225.158C277.651 224.64 275.604 221.848 274.82 218.994Z" fill="#00FFB0"/>
<path d="M210.141 265.619C206.431 269.767 205.051 275.43 203.42 280.747C201.789 286.064 199.498 291.648 194.793 294.629C190.087 297.609 182.441 296.283 180.864 290.943C180.002 288.049 181.107 284.935 180.864 281.923C180.527 278.002 177.931 274.638 177.021 270.81C176.237 267.54 176.739 264.128 177.115 260.787C179.202 242.561 177.515 222.97 167.077 207.881C165.798 206.022 164.3 204.179 162.23 203.3C160.984 202.792 159.617 202.655 158.295 202.907C156.972 203.159 155.751 203.789 154.779 204.72C153.603 205.888 152.842 207.488 151.47 208.422C148.482 210.453 144.121 208.061 142.804 204.696C141.486 201.332 142.286 197.552 143.094 194.03C144.108 189.659 145.115 185.291 146.113 180.925C146.639 178.643 147.258 176.22 149.031 174.651C151.548 172.463 155.43 172.91 158.356 171.31C162.191 169.224 163.367 164.346 166.089 160.926C168.81 157.507 175.876 156.919 176.284 161.264C185.742 146.849 198.385 172.133 208.133 171.781C210.965 171.671 213.843 170.737 216.564 171.53C221.364 172.926 223.113 178.69 224.109 183.592C225.756 191.727 227.405 199.86 229.058 207.99C229.685 211.088 230.571 214.563 233.332 216.115C235.442 217.307 238.132 217.017 240.265 218.162C245.912 221.197 242.618 230.287 237.222 233.746C231.826 237.204 224.689 238.859 221.552 244.443C219.199 248.655 219.803 254.074 217.317 258.215C215.553 261.172 212.447 263.023 210.141 265.619Z" fill="#263238"/>
<path d="M232.03 273.932C230.03 273.932 227.858 272.622 226.187 273.712C225.207 274.347 224.831 275.563 224.329 276.614C223.672 278.109 222.492 279.314 221.011 280.002C220.267 280.329 219.445 280.433 218.643 280.302C217.842 280.171 217.095 279.811 216.494 279.265C215.927 278.687 215.609 277.91 215.609 277.1C215.609 276.291 215.927 275.513 216.494 274.936C217.103 274.523 217.734 274.144 218.384 273.798C221.333 271.72 220.211 266.905 222.611 264.27C224.031 262.701 226.117 261.234 227.646 259.682C228.822 258.482 229.34 257.47 231.199 257.376C239.332 256.96 240.532 274.002 232.03 273.932Z" fill="#263238"/>
<path d="M55.5065 214.743C55.6241 211.206 57.2789 207.896 57.8593 204.391C58.2514 201.967 58.4475 199.387 58.7612 196.94C56.6945 196.548 54.6698 195.959 52.7145 195.183C52.2895 195.066 51.9181 194.806 51.6636 194.446C51.5132 194.02 51.4914 193.559 51.6008 193.121C51.844 190.368 49.4676 188.18 47.303 186.47C46.2268 185.567 45.0599 184.779 43.8209 184.117C43.8209 184.407 43.7424 184.674 43.7189 184.964C42.2779 198.203 43.0064 211.589 45.8757 224.593C47.1556 230.378 48.8675 236.059 50.9969 241.588C51.8675 243.941 52.8635 246.333 53.9223 248.647C55.232 251.525 56.628 254.356 58.173 257.109C59.5925 259.752 61.1376 262.348 62.8002 264.866C65.0616 268.351 67.5013 271.717 70.1096 274.951C72.4206 277.837 74.8649 280.611 77.4425 283.272C73.3879 264.513 69.7724 245.439 60.6199 228.656C58.1887 224.28 55.3496 219.747 55.5065 214.743Z" fill="#00FFB0"/>
<path d="M44.6208 178.321C44.5032 179.051 44.3698 179.772 44.26 180.502C44.3698 179.788 44.5032 179.106 44.6208 178.321Z" fill="#263238"/>
<g opacity="0.6">
<path d="M83.5205 289.194C84.4459 290.033 85.3792 290.856 86.336 291.664C85.3635 290.856 84.4303 290.033 83.5205 289.194Z" fill="#263238"/>
</g>
<path d="M237.238 233.761C242.633 230.303 245.927 221.213 240.28 218.178C238.147 217.033 235.457 217.323 233.348 216.131C230.587 214.563 229.701 211.104 229.073 208.006C227.426 199.871 225.777 191.738 224.125 183.607C223.128 178.706 221.38 172.941 216.58 171.545C213.858 170.761 210.98 171.686 208.149 171.796C198.4 172.149 185.758 146.864 176.3 161.279C175.9 156.934 168.841 157.523 166.104 160.942C163.367 164.361 162.183 169.24 158.371 171.326C155.446 172.894 151.564 172.479 149.046 174.667C147.274 176.235 146.694 178.643 146.129 180.941C145.125 185.307 144.119 189.675 143.109 194.046C142.325 197.567 141.541 201.34 142.819 204.712C144.098 208.084 148.497 210.469 151.485 208.437C152.858 207.504 153.619 205.904 154.795 204.736C155.767 203.804 156.988 203.175 158.31 202.923C159.632 202.671 160.999 202.807 162.246 203.316C164.316 204.194 165.814 206.037 167.092 207.896C177.531 222.986 179.217 242.577 177.131 260.803C176.755 264.144 176.261 267.556 177.037 270.826C177.947 274.653 180.543 278.018 180.88 281.939C181.139 284.951 180.033 288.064 180.88 290.958C182.448 296.299 190.111 297.625 194.808 294.644C199.506 291.664 201.796 286.088 203.435 280.763C205.075 275.438 206.447 269.783 210.157 265.634C212.462 263.062 215.568 261.187 217.348 258.231C219.835 254.09 219.215 248.67 221.583 244.459C224.689 238.859 231.803 237.212 237.238 233.761Z" fill="#00FFB0"/>
<g opacity="0.6">
<path d="M45.0914 175.482C45.0443 175.71 44.9894 175.914 44.958 176.149C45.0051 175.914 45.0914 175.71 45.0914 175.482Z" fill="#263238"/>
</g>
<path d="M59.6395 192.266L58.9258 192.038C56.824 191.505 54.3457 191.027 53.436 189.089C52.3693 186.831 54.1496 183.968 53.0438 181.749C52.4635 180.588 51.2635 179.945 50.3302 179.043C49.397 178.141 48.7147 176.651 49.546 175.624C50.1969 174.761 51.5694 174.761 52.3693 173.992C52.6796 173.681 52.878 173.276 52.9333 172.841C52.9887 172.405 52.8979 171.963 52.6752 171.585C50.8635 168.675 47.6559 173.608 46.2677 174.682C45.9126 174.966 45.5407 175.228 45.1541 175.467C45.107 175.694 45.0521 175.898 45.0207 176.133C44.8874 176.847 44.7855 177.584 44.6678 178.321C44.5502 179.059 44.4168 179.772 44.3071 180.502C44.2208 181.098 44.158 181.694 44.0796 182.29C44.0012 182.886 43.9149 183.482 43.8522 184.07C45.0912 184.732 46.2582 185.52 47.3343 186.423C49.4989 188.133 51.8753 190.344 51.6321 193.074C51.5227 193.512 51.5445 193.973 51.6949 194.399C51.9494 194.759 52.3208 195.019 52.7458 195.136C54.7011 195.912 56.7258 196.501 58.7925 196.893" fill="#00FFB0"/>
<path d="M58.7454 196.94C58.4317 199.387 58.2357 201.967 57.8435 204.391C57.2789 207.896 55.624 211.206 55.4907 214.743C55.3339 219.747 58.1729 224.28 60.5806 228.672C69.7331 245.455 73.3485 264.528 77.4032 283.288C78.4934 284.449 79.607 285.555 80.7442 286.637C81.6383 287.51 82.5454 288.362 83.4656 289.194C84.3911 290.033 85.3244 290.856 86.2812 291.664C86.94 292.229 87.6066 292.778 88.2967 293.327C88.234 293.099 88.1634 292.895 88.0928 292.668C86.2733 286.394 87.3086 277.939 93.5121 275.869C94.6885 275.469 95.9826 275.343 97.01 274.63C99.9118 272.575 98.5393 267.273 101.449 265.219C103.088 264.081 105.323 264.505 107.221 263.956C110.648 262.944 112.28 258.976 112.546 255.399C112.813 251.823 112.139 248.184 113.048 244.718C114.452 239.487 119.385 234.687 117.699 229.534C115.801 223.786 107.888 223.527 102.798 220.327C95.6375 215.857 94.6415 206.022 90.6182 198.587C87.0027 191.944 77.4973 183.835 69.2782 184.47C63.3256 184.941 60.8473 188.093 59.6395 192.242" fill="#00FFB0"/>
<path d="M57.0124 146.253C59.5612 144.637 63.514 144.974 64.9178 147.649C65.9138 149.562 65.2864 151.884 64.6512 153.923C63.7937 156.699 62.9336 159.478 62.0709 162.26C61.7332 163.073 61.6431 163.968 61.8121 164.832C62.4003 166.761 65.4119 166.848 66.7765 165.397C68.1412 163.946 68.3451 161.718 68.3451 159.711C68.3451 157.703 68.2196 155.554 69.2548 153.821C71.8351 149.523 78.5641 151.201 82.956 148.794C85.6774 147.304 87.2225 144.37 89.0733 141.869C90.9242 139.367 93.779 137.014 96.8219 137.594C97.8493 137.782 98.814 138.308 99.857 138.426C102.908 138.763 105.347 134.583 103.48 132.151C103.034 131.679 102.649 131.152 102.335 130.583C102.204 130.016 102.272 129.421 102.526 128.897C102.78 128.374 103.205 127.953 103.731 127.705C104.796 127.246 105.955 127.049 107.112 127.132C109.77 127.085 112.421 127.061 115.072 127.03C118.005 127.03 121.887 126.05 121.903 123.109C121.903 120.576 118.711 118.976 118.57 116.442C118.613 115.825 118.589 115.204 118.499 114.592C117.942 112.898 115.488 113.188 113.841 113.807C113.727 113.232 113.482 112.69 113.124 112.226C112.766 111.761 112.306 111.385 111.778 111.128C111.251 110.872 110.671 110.74 110.085 110.745C109.498 110.75 108.921 110.891 108.398 111.156C106.68 112.2 106.163 114.403 105.347 116.231C103.41 120.662 99.2375 123.626 95.2691 126.371C93.9358 127.281 92.4457 128.238 90.8379 128.089C89.2302 127.94 87.8028 125.979 88.7361 124.685C89.3792 123.791 90.8458 123.438 90.8615 122.332C90.8615 120.96 88.5087 120.717 88.2342 119.36C89.7086 115.69 94.2966 114.741 97.9356 113.188C102.396 111.288 106.066 107.909 108.327 103.62C108.552 103.303 108.708 102.942 108.784 102.561C108.859 102.18 108.853 101.787 108.766 101.408C108.406 100.373 107.143 100.036 106.045 99.8395C103.473 99.4238 100.21 99.3062 98.9238 101.573C98.2414 102.788 98.3905 104.302 97.8885 105.604C96.4063 109.47 90.8301 109.125 87.1754 111.023C85.7323 111.753 84.5324 112.898 82.9874 113.376C81.3169 113.901 79.4974 113.58 77.7485 113.462C77.4426 113.462 77.1289 113.462 76.8152 113.462C75.5447 114.78 74.3055 116.137 73.1056 117.517C71.9057 118.897 70.7528 120.309 69.5921 121.744C64.1745 128.543 59.5048 135.905 55.6634 143.704C54.2988 146.441 53.0518 149.241 51.8989 152.103C50.746 154.966 49.703 157.883 48.7618 160.856C50.3304 158.573 51.2872 155.609 52.0636 153.523C53.0989 150.77 54.5027 147.868 57.0124 146.253Z" fill="#00FFB0"/>
<g opacity="0.6">
<path d="M285.682 172.126C286.037 173.752 286.356 175.378 286.639 177.004C286.356 175.373 286.037 173.746 285.682 172.126Z" fill="#263238"/>
</g>
<path d="M287.376 213.974C287.619 212.225 287.823 210.484 287.972 208.743C288.121 207.002 288.247 205.269 288.317 203.536C288.388 202.132 288.427 200.744 288.435 199.348C288.443 197.952 288.435 196.415 288.435 194.956C288.338 190.598 288.002 186.25 287.431 181.929C287.211 180.282 286.96 178.635 286.647 177.004C286.333 175.373 286.043 173.749 285.69 172.126C285.24 170.887 284.743 169.658 284.2 168.44C279 156.777 270.412 146.974 264.467 135.673C262.53 132.002 261.04 128.975 256.844 127.705C250.649 125.807 246.915 128.952 243.284 122.285C242.304 120.497 240.406 118.693 238.485 119.391C238.759 120.748 239.049 122.105 239.324 123.477C239.39 123.764 239.39 124.062 239.324 124.348C239.096 125.242 237.716 125.297 237.018 124.685C236.429 123.958 235.972 123.132 235.669 122.246C235.24 121.488 234.657 120.827 233.959 120.307C233.26 119.786 232.461 119.417 231.612 119.222C230.763 119.027 229.882 119.011 229.027 119.175C228.171 119.34 227.359 119.68 226.642 120.176C226.673 119.558 226.54 118.943 226.258 118.392C225.976 117.841 225.554 117.375 225.034 117.039C224.858 117.605 224.564 118.128 224.172 118.572C223.78 119.017 223.298 119.374 222.758 119.62C222.219 119.866 221.633 119.995 221.04 119.999C220.447 120.003 219.86 119.881 219.317 119.642C219.121 118.419 221.254 118.513 222.125 117.619C222.995 116.725 222.313 115.344 221.568 114.435C219.539 112.088 216.764 110.512 213.709 109.972C211.772 109.659 209.623 109.721 208.078 108.474C207.184 107.753 206.628 106.694 205.726 105.988C203.765 104.475 200.934 105.204 198.612 106.082C195.428 107.29 192.095 108.906 190.597 111.964C189.099 115.023 190.777 119.666 194.181 119.744C195.044 119.744 195.985 119.478 196.777 119.831C197.922 120.325 198.259 121.791 198.181 123.03C198.102 124.269 197.773 125.548 198.22 126.709C198.667 127.869 200.306 128.661 201.13 127.736C202.926 126.465 203.09 123.924 202.996 121.728C202.902 119.533 202.832 117.07 204.353 115.509C205.875 113.949 209.467 115.031 208.902 117.148C208.565 118.395 206.988 119.109 206.863 120.403C206.737 121.697 208.227 122.638 209.537 122.756C210.847 122.873 212.251 122.623 213.458 123.132C214.666 123.642 215.474 125.446 214.415 126.269C212.557 127.838 208.855 124.152 207.702 126.269C207.388 126.811 207.522 127.501 207.38 128.105C206.949 129.971 204.486 130.316 202.573 130.277C200.659 130.238 198.651 130.12 197.036 129.061C195.42 128.003 194.597 125.595 195.805 124.12C194.95 123.289 193.381 123.768 192.707 124.771C192.141 125.834 191.893 127.038 191.993 128.238C190.056 127.509 188.025 128.936 186.652 130.45C185.28 131.963 183.868 133.775 181.845 134.089C179.821 134.402 177.225 133.202 175.947 134.826C174.284 136.943 177.711 140.418 176.033 142.512C175.076 143.688 173.241 143.382 171.72 143.578C167.696 144.112 165.532 149.57 167.728 152.989C169.924 156.409 175.217 156.981 178.425 154.503C180.652 152.801 181.845 150.127 183.593 147.947C185.342 145.766 188.299 144.025 190.84 145.17C191.809 145.703 192.659 146.426 193.342 147.296C194.471 148.558 195.608 149.821 196.738 151.107C197.459 151.891 198.244 152.911 198.008 153.978C197.804 154.833 197.036 155.405 196.628 156.174C195.483 158.385 198.534 161.075 200.832 160.095C203.13 159.115 203.828 155.915 202.675 153.703C201.106 150.652 196.761 148.613 197.365 145.21C199.946 143.641 203.294 146.158 204.251 149.029C205.208 151.899 204.8 155.036 205.537 157.946C206.275 160.856 209.09 163.781 211.937 162.816C211.592 160.338 211.255 157.875 210.91 155.405C212.784 154.385 214.188 158.354 216.298 158.032C217.584 157.828 217.992 156.079 217.631 154.809C217.27 153.538 216.462 152.401 216.423 151.084C216.376 148.684 219.293 146.966 221.599 147.688C223.905 148.409 225.277 150.911 225.379 153.303C225.33 154.255 225.404 155.209 225.599 156.142C226.219 158.111 228.422 159.005 230.195 160.064C231.967 161.122 233.677 163.295 232.61 165.067C232.132 165.852 231.152 166.502 231.332 167.42C231.512 168.338 232.579 168.698 232.469 169.506C232.367 170.04 231.756 170.29 231.23 170.463C229.881 170.8 228.477 170.769 227.16 171.192C225.842 171.616 224.556 172.62 224.462 173.977C224.336 175.922 226.485 177.176 227.332 178.925C228.179 180.674 227.709 182.596 228.117 184.415C228.501 186.101 229.591 187.552 230.414 189.05C232.971 193.858 232.916 199.559 233.724 204.932C234.085 207.363 234.979 210.139 237.292 210.924C238.605 211.221 239.974 211.156 241.253 210.735C244.884 209.865 248.672 208.924 251.449 206.485C254.225 204.045 255.746 199.583 253.66 196.477C253.431 196.052 253.055 195.726 252.601 195.56C251.945 195.508 251.286 195.635 250.696 195.928C248.829 196.485 246.774 195.505 245.504 193.999C244.233 192.493 243.622 190.611 243.002 188.752C242.335 186.713 241.677 184.658 240.986 182.596C242.265 181.811 244.014 182.462 245.049 183.576C246.084 184.69 246.578 186.148 247.355 187.442C249.707 191.434 254.186 193.717 258.664 194.885C259.824 195.118 260.943 195.525 261.981 196.093C265.158 198.14 265.409 203.3 268.852 204.9C269.808 205.347 270.93 205.449 271.808 206.03C273.134 206.908 273.612 208.626 273.816 210.21C274.192 213.151 274.036 216.162 274.835 219.033C275.635 221.903 277.667 224.68 280.584 225.142C281.505 225.251 282.438 225.178 283.33 224.926C284.222 224.675 285.056 224.25 285.784 223.676C286.325 221.048 286.803 218.405 287.188 215.715C287.258 215.096 287.337 214.539 287.376 213.974Z" fill="#00FFB0"/>
<path d="M231.191 257.376C229.332 257.47 228.838 258.482 227.638 259.682C226.109 261.25 224.023 262.717 222.603 264.27C220.203 266.905 221.325 271.72 218.376 273.798C217.726 274.144 217.095 274.523 216.486 274.936C215.919 275.513 215.601 276.291 215.601 277.1C215.601 277.91 215.919 278.687 216.486 279.265C217.087 279.811 217.834 280.171 218.635 280.302C219.437 280.433 220.26 280.329 221.003 280.002C222.484 279.314 223.664 278.109 224.321 276.614C224.823 275.563 225.199 274.347 226.179 273.712C227.85 272.622 230.022 273.924 232.022 273.932C240.532 274.002 239.332 256.96 231.191 257.376Z" fill="#00FFB0"/>
<g opacity="0.3">
<path d="M237.238 233.761C242.633 230.303 245.927 221.213 240.28 218.178C238.147 217.033 235.457 217.323 233.348 216.131C230.587 214.563 229.701 211.104 229.073 208.006C227.426 199.871 225.777 191.738 224.125 183.607C223.128 178.706 221.38 172.941 216.58 171.545C213.858 170.761 210.98 171.686 208.149 171.796C198.4 172.149 185.758 146.864 176.3 161.279C175.9 156.934 168.841 157.523 166.104 160.942C163.367 164.361 162.183 169.24 158.371 171.326C155.446 172.894 151.564 172.479 149.046 174.667C147.274 176.235 146.694 178.643 146.129 180.941C145.125 185.307 144.119 189.675 143.109 194.046C142.325 197.567 141.541 201.34 142.819 204.712C144.098 208.084 148.497 210.469 151.485 208.437C152.858 207.504 153.619 205.904 154.795 204.736C155.767 203.804 156.988 203.175 158.31 202.923C159.632 202.671 160.999 202.807 162.246 203.316C164.316 204.194 165.814 206.037 167.092 207.896C177.531 222.986 179.217 242.577 177.131 260.803C176.755 264.144 176.261 267.556 177.037 270.826C177.947 274.653 180.543 278.018 180.88 281.939C181.139 284.951 180.033 288.064 180.88 290.958C182.448 296.299 190.111 297.625 194.808 294.644C199.506 291.664 201.796 286.088 203.435 280.763C205.075 275.438 206.447 269.783 210.157 265.634C212.462 263.062 215.568 261.187 217.348 258.231C219.835 254.09 219.215 248.67 221.583 244.459C224.689 238.859 231.803 237.212 237.238 233.761Z" fill="black"/>
</g>
<path opacity="0.3" d="M77.419 283.288C78.5091 284.449 79.6228 285.555 80.76 286.637C81.6541 287.51 82.5612 288.362 83.4814 289.194C84.4069 290.033 85.3401 290.856 86.2969 291.664C86.9557 292.229 87.6224 292.778 88.3125 293.327C88.2498 293.099 88.1792 292.895 88.1086 292.668C86.2891 286.394 87.3243 277.939 93.5279 275.869C94.7043 275.469 95.9984 275.343 97.0258 274.63C99.9276 272.575 98.5551 267.273 101.465 265.219C103.104 264.081 105.339 264.505 107.237 263.956C110.664 262.944 112.296 258.976 112.562 255.399C112.829 251.823 112.154 248.184 113.064 244.718C114.468 239.487 119.401 234.687 117.715 229.534C115.817 223.786 107.904 223.527 102.814 220.327C95.6533 215.857 94.6573 206.022 90.634 198.587C87.0185 191.944 77.5131 183.835 69.294 184.47C63.3414 184.941 60.8631 188.093 59.6553 192.242L58.9416 192.015C56.8398 191.481 54.3615 191.003 53.4517 189.066C52.3851 186.807 54.1654 183.945 53.0596 181.725C52.4792 180.564 51.2793 179.921 50.346 179.019C49.4127 178.117 48.7304 176.627 49.5617 175.6C50.2127 174.737 51.5851 174.737 52.3851 173.969C52.6954 173.658 52.8937 173.253 52.9491 172.817C53.0044 172.381 52.9137 171.94 52.691 171.561C50.8793 168.651 47.6716 173.584 46.2835 174.659C45.9284 174.942 45.5565 175.204 45.1698 175.443C45.1228 175.671 45.0679 175.874 45.0365 176.11C44.9032 176.823 44.8012 177.561 44.6836 178.298C44.5659 179.035 44.4326 179.749 44.3228 180.478C44.2365 181.074 44.1738 181.67 44.0954 182.266C44.0169 182.862 43.9307 183.458 43.8679 184.047C43.8679 184.337 43.7895 184.603 43.766 184.894C42.3018 198.153 43.0144 211.563 45.8757 224.593C47.1556 230.378 48.8675 236.059 50.9969 241.588C51.8675 243.941 52.8635 246.333 53.9223 248.647C55.232 251.525 56.628 254.356 58.173 257.109C59.5925 259.752 61.1376 262.348 62.8002 264.866C65.0616 268.351 67.5013 271.717 70.1096 274.951C72.4206 277.837 74.8649 280.611 77.4425 283.272" fill="black"/>
<g opacity="0.3">
<path d="M57.0124 146.253C59.5612 144.637 63.514 144.974 64.9178 147.649C65.9138 149.562 65.2864 151.884 64.6512 153.923C63.7937 156.699 62.9336 159.478 62.0709 162.26C61.7332 163.073 61.6431 163.968 61.8121 164.832C62.4003 166.761 65.4119 166.848 66.7765 165.397C68.1412 163.946 68.3451 161.718 68.3451 159.711C68.3451 157.703 68.2196 155.554 69.2548 153.821C71.8351 149.523 78.5641 151.201 82.956 148.794C85.6774 147.304 87.2225 144.37 89.0733 141.869C90.9242 139.367 93.779 137.014 96.8219 137.594C97.8493 137.782 98.814 138.308 99.857 138.426C102.908 138.763 105.347 134.583 103.48 132.151C103.034 131.679 102.649 131.152 102.335 130.583C102.204 130.016 102.272 129.421 102.526 128.897C102.78 128.374 103.205 127.953 103.731 127.705C104.796 127.246 105.955 127.049 107.112 127.132C109.77 127.085 112.421 127.061 115.072 127.03C118.005 127.03 121.887 126.05 121.903 123.109C121.903 120.576 118.711 118.976 118.57 116.442C118.613 115.825 118.589 115.204 118.499 114.592C117.942 112.898 115.488 113.188 113.841 113.807C113.727 113.232 113.482 112.69 113.124 112.226C112.766 111.761 112.306 111.385 111.778 111.128C111.251 110.872 110.671 110.74 110.085 110.745C109.498 110.75 108.921 110.891 108.398 111.156C106.68 112.2 106.163 114.403 105.347 116.231C103.41 120.662 99.2375 123.626 95.2691 126.371C93.9358 127.281 92.4457 128.238 90.8379 128.089C89.2302 127.94 87.8028 125.979 88.7361 124.685C89.3792 123.791 90.8458 123.438 90.8615 122.332C90.8615 120.96 88.5087 120.717 88.2342 119.36C89.7086 115.69 94.2966 114.741 97.9356 113.188C102.396 111.288 106.066 107.909 108.327 103.62C108.552 103.303 108.708 102.942 108.784 102.561C108.859 102.18 108.853 101.787 108.766 101.408C108.406 100.373 107.143 100.036 106.045 99.8395C103.473 99.4238 100.21 99.3062 98.9238 101.573C98.2414 102.788 98.3905 104.302 97.8885 105.604C96.4063 109.47 90.8301 109.125 87.1754 111.023C85.7323 111.753 84.5324 112.898 82.9874 113.376C81.3169 113.901 79.4974 113.58 77.7485 113.462C77.4426 113.462 77.1289 113.462 76.8152 113.462C75.5447 114.78 74.3055 116.137 73.1056 117.517C71.9057 118.897 70.7528 120.309 69.5921 121.744C64.1745 128.543 59.5048 135.905 55.6634 143.704C54.2988 146.441 53.0518 149.241 51.8989 152.103C50.746 154.966 49.703 157.883 48.7618 160.856C50.3304 158.573 51.2872 155.609 52.0636 153.523C53.0989 150.77 54.5027 147.868 57.0124 146.253Z" fill="black"/>
</g>
<g opacity="0.3">
<path d="M287.376 213.974C287.619 212.225 287.823 210.484 287.972 208.743C288.121 207.002 288.246 205.269 288.317 203.536C288.388 202.132 288.427 200.744 288.435 199.348C288.442 197.952 288.435 196.415 288.435 194.956C288.337 190.598 288.002 186.25 287.431 181.929C287.211 180.282 286.96 178.635 286.647 177.004C286.333 175.373 286.043 173.749 285.69 172.126C285.24 170.887 284.743 169.658 284.2 168.44C279 156.777 270.412 146.974 264.467 135.673C262.53 132.002 261.04 128.975 256.844 127.705C250.649 125.807 246.915 128.952 243.284 122.285C242.304 120.497 240.406 118.693 238.484 119.391C238.759 120.748 239.049 122.105 239.324 123.477C239.39 123.764 239.39 124.062 239.324 124.348C239.096 125.242 237.716 125.297 237.018 124.685C236.429 123.958 235.972 123.132 235.669 122.246C235.24 121.488 234.657 120.827 233.959 120.307C233.26 119.786 232.461 119.417 231.612 119.222C230.763 119.027 229.882 119.011 229.026 119.175C228.171 119.34 227.359 119.68 226.642 120.176C226.672 119.558 226.54 118.943 226.258 118.392C225.976 117.841 225.554 117.375 225.034 117.039C224.858 117.605 224.564 118.128 224.172 118.572C223.78 119.017 223.298 119.374 222.758 119.62C222.219 119.866 221.633 119.995 221.04 119.999C220.447 120.003 219.86 119.881 219.317 119.642C219.121 118.419 221.254 118.513 222.125 117.619C222.995 116.725 222.313 115.344 221.568 114.435C219.539 112.088 216.764 110.512 213.709 109.972C211.772 109.659 209.623 109.721 208.078 108.474C207.184 107.753 206.627 106.694 205.726 105.988C203.765 104.475 204.518 107.682 202.196 108.568C199.012 109.776 197.287 110.137 195.781 113.196C195.48 113.809 195.218 114.44 194.997 115.086C194.689 115.919 194.677 116.832 194.963 117.673C195.248 118.514 195.814 119.231 196.565 119.705L196.801 119.831C197.946 120.325 198.283 121.791 198.204 123.03C198.126 124.269 197.797 125.548 198.244 126.709C198.691 127.869 200.33 128.661 201.153 127.736C202.949 126.465 203.114 123.924 203.02 121.728C202.926 119.532 202.855 117.07 204.377 115.509C205.898 113.948 209.49 115.031 208.925 117.148C208.588 118.395 207.012 119.109 206.886 120.403C206.761 121.697 208.251 122.638 209.561 122.756C210.87 122.873 212.274 122.623 213.482 123.132C214.69 123.642 215.498 125.446 214.439 126.269C212.58 127.838 208.878 124.152 207.725 126.269C207.412 126.811 207.545 127.501 207.404 128.105C206.972 129.971 204.51 130.316 202.596 130.277C200.683 130.238 198.675 130.12 197.059 129.061C195.444 128.003 194.62 125.595 195.828 124.12C194.973 123.289 193.405 123.768 192.73 124.771C192.165 125.834 191.917 127.038 192.016 128.238C190.079 127.509 188.048 128.936 186.676 130.45C185.303 131.963 183.891 133.775 181.868 134.089C179.845 134.402 177.249 133.202 175.97 134.826C174.308 136.943 177.735 140.418 176.057 142.512C175.1 143.688 173.265 143.382 171.743 143.578C167.72 144.112 165.555 149.57 167.751 152.989C169.947 156.409 175.241 156.981 178.449 154.503C180.676 152.801 181.868 150.127 183.617 147.947C185.366 145.766 188.323 144.025 190.864 145.17C191.832 145.703 192.683 146.426 193.365 147.296C194.495 148.558 195.632 149.821 196.761 151.107C197.483 151.891 198.267 152.911 198.032 153.978C197.828 154.833 197.059 155.405 196.652 156.174C195.506 158.385 198.557 161.075 200.855 160.095C203.153 159.115 203.851 155.915 202.698 153.703C201.13 150.652 196.785 148.613 197.389 145.21C199.969 143.641 203.318 146.158 204.275 149.029C205.231 151.899 204.824 155.036 205.561 157.946C206.298 160.856 209.114 163.781 211.96 162.816C211.615 160.338 211.278 157.875 210.933 155.405C212.807 154.385 214.211 158.354 216.321 158.032C217.607 157.828 218.015 156.079 217.654 154.809C217.293 153.538 216.486 152.401 216.446 151.084C216.399 148.684 219.317 146.966 221.623 147.688C223.928 148.409 225.301 150.911 225.403 153.303C225.353 154.255 225.427 155.209 225.622 156.142C226.242 158.111 228.446 159.005 230.218 160.064C231.991 161.122 233.7 163.295 232.634 165.067C232.155 165.852 231.175 166.502 231.355 167.42C231.536 168.338 232.602 168.698 232.493 169.506C232.391 170.04 231.779 170.29 231.254 170.463C229.905 170.8 228.501 170.769 227.183 171.192C225.866 171.616 224.579 172.62 224.485 173.977C224.36 175.922 226.509 177.176 227.356 178.925C228.203 180.674 227.732 182.596 228.14 184.415C228.524 186.101 229.614 187.552 230.438 189.05C232.995 193.858 232.94 199.559 233.747 204.932C234.108 207.363 235.002 210.139 237.316 210.924C238.629 211.221 239.998 211.156 241.276 210.735C244.908 209.865 248.696 208.924 251.472 206.485C254.248 204.045 255.77 199.583 253.684 196.477C253.455 196.052 253.078 195.726 252.625 195.56C251.968 195.508 251.309 195.635 250.719 195.928C248.853 196.485 246.798 195.505 245.527 193.999C244.257 192.493 243.645 190.611 243.025 188.752C242.359 186.713 241.7 184.658 241.01 182.596C242.288 181.811 244.037 182.462 245.072 183.576C246.108 184.69 246.602 186.148 247.378 187.442C249.731 191.434 254.209 193.717 258.687 194.885C259.848 195.118 260.966 195.525 262.005 196.093C265.181 198.14 265.432 203.3 268.875 204.9C269.832 205.347 270.953 205.449 271.832 206.03C273.157 206.908 273.635 208.626 273.839 210.21C274.216 213.151 274.059 216.162 274.859 219.033C275.659 221.903 277.69 224.68 280.608 225.142C281.528 225.251 282.461 225.178 283.353 224.926C284.246 224.675 285.079 224.25 285.807 223.676C286.348 221.048 286.827 218.405 287.211 215.715C287.258 215.096 287.337 214.539 287.376 213.974Z" fill="black"/>
</g>
<g opacity="0.3">
<path d="M231.191 257.376C229.332 257.47 228.838 258.482 227.638 259.682C226.109 261.25 224.023 262.717 222.603 264.27C220.203 266.905 221.325 271.72 218.376 273.798C217.726 274.144 217.095 274.523 216.486 274.936C215.919 275.513 215.601 276.291 215.601 277.1C215.601 277.91 215.919 278.687 216.486 279.265C217.087 279.811 217.834 280.171 218.635 280.302C219.437 280.433 220.26 280.329 221.003 280.002C222.484 279.314 223.664 278.109 224.321 276.614C224.823 275.563 225.199 274.347 226.179 273.712C227.85 272.622 230.022 273.924 232.022 273.932C240.532 274.002 239.332 256.96 231.191 257.376Z" fill="black"/>
</g>
<path d="M61.0748 80.468C59.4542 79.9682 57.7366 79.8684 56.069 80.1771C54.4013 80.4858 52.8333 81.1937 51.4989 82.2405C51.4989 82.2405 45.0443 87.1735 47.5775 94.4123C48.5345 97.0674 50.4093 99.2928 52.8635 100.686C53.7885 101.224 54.7661 101.666 55.781 102.004C59.2945 103.141 69.5057 105.745 69.5057 105.745L70.6272 104.882C70.541 101.745 69.0587 92.334 68.5332 89.3224C67.8352 85.5971 65.1687 81.6836 61.0748 80.468ZM63.4276 95.6044C62.3376 96.4393 61.0244 96.9322 59.6542 97.0206C58.2839 97.1091 56.9183 96.7891 55.73 96.1012C54.5416 95.4134 53.584 94.3885 52.9783 93.1563C52.3725 91.924 52.1459 90.5398 52.327 89.1787C52.5081 87.8177 53.0888 86.5409 53.9957 85.51C54.9026 84.479 56.0949 83.7402 57.4218 83.387C58.7486 83.0338 60.1504 83.0821 61.4498 83.5258C62.7493 83.9694 63.8879 84.7886 64.7217 85.8795C65.2758 86.6028 65.6819 87.4282 65.9168 88.3086C66.1516 89.1889 66.2107 90.107 66.0905 91.0102C65.9703 91.9134 65.6733 92.784 65.2164 93.5723C64.7594 94.3607 64.1516 95.0512 63.4276 95.6044Z" fill="#00FFB0"/>
<path opacity="0.4" d="M61.0748 80.468C59.4542 79.9682 57.7366 79.8684 56.069 80.1771C54.4013 80.4858 52.8333 81.1937 51.4989 82.2405C51.4989 82.2405 45.0443 87.1735 47.5775 94.4123C48.5345 97.0674 50.4093 99.2928 52.8635 100.686C53.7885 101.224 54.7661 101.666 55.781 102.004C59.2945 103.141 69.5057 105.745 69.5057 105.745L70.6272 104.882C70.541 101.745 69.0587 92.334 68.5332 89.3224C67.8352 85.5971 65.1687 81.6836 61.0748 80.468ZM63.4276 95.6044C62.3376 96.4393 61.0244 96.9322 59.6542 97.0206C58.2839 97.1091 56.9183 96.7891 55.73 96.1012C54.5416 95.4134 53.584 94.3885 52.9783 93.1563C52.3725 91.924 52.1459 90.5398 52.327 89.1787C52.5081 87.8177 53.0888 86.5409 53.9957 85.51C54.9026 84.479 56.0949 83.7402 57.4218 83.387C58.7486 83.0338 60.1504 83.0821 61.4498 83.5258C62.7493 83.9694 63.8879 84.7886 64.7217 85.8795C65.2758 86.6028 65.6819 87.4282 65.9168 88.3086C66.1516 89.1889 66.2107 90.107 66.0905 91.0102C65.9703 91.9134 65.6733 92.784 65.2164 93.5723C64.7594 94.3607 64.1516 95.0512 63.4276 95.6044Z" fill="black"/>
<path d="M62.2435 79.6445C60.6241 79.1447 58.9078 79.0449 57.2414 79.3536C55.575 79.6623 54.0083 80.3703 52.6754 81.417C52.6754 81.417 46.2208 86.35 48.754 93.5888C49.711 96.2439 51.5859 98.4693 54.04 99.863C54.9653 100.405 55.946 100.847 56.9653 101.181C60.471 102.318 70.6822 104.922 70.6822 104.922C70.6822 104.922 70.3685 92.0987 69.7097 88.4989C68.9961 84.7736 66.3374 80.868 62.2435 79.6445ZM63.4669 95.6436C62.7454 96.2075 61.9186 96.6217 61.035 96.8622C60.1514 97.1026 59.2287 97.1644 58.3209 97.0439C57.4132 96.9234 56.5386 96.623 55.7483 96.1604C54.958 95.6978 54.2679 95.0821 53.7185 94.3496C52.8835 93.2595 52.3907 91.9463 52.3023 90.5761C52.2138 89.2059 52.5338 87.8402 53.2217 86.6519C53.9095 85.4636 54.9344 84.506 56.1666 83.9002C57.3989 83.2945 58.7831 83.0678 60.1441 83.2489C61.5052 83.43 62.782 84.0108 63.8129 84.9177C64.8439 85.8246 65.5827 87.0168 65.9359 88.3437C66.2891 89.6706 66.2408 91.0724 65.7971 92.3718C65.3534 93.6712 64.5343 94.8098 63.4434 95.6436H63.4669Z" fill="#00FFB0"/>
<path d="M54.9967 84.5776C53.8653 85.455 53.0322 86.6603 52.6111 88.0288C52.19 89.3973 52.2015 90.8624 52.6439 92.2242C52.3502 90.9594 52.4787 89.6333 53.0097 88.4484C53.5407 87.2636 54.445 86.2851 55.5845 85.6626C56.7239 85.0401 58.0358 84.8077 59.3198 85.0011C60.6037 85.1944 61.7891 85.8028 62.6947 86.7332C63.6003 87.6637 64.1764 88.865 64.3349 90.1537C64.4934 91.4424 64.2257 92.7476 63.5726 93.8698C62.9195 94.992 61.917 95.8695 60.7182 96.3683C59.5194 96.867 58.1902 96.9596 56.9339 96.6318C58.0674 97.0337 59.2859 97.1342 60.4699 96.9234C61.654 96.7126 62.7629 96.1978 63.6881 95.4293C64.6133 94.6609 65.3229 93.6653 65.7474 92.5401C66.1719 91.4148 66.2968 90.1986 66.1097 89.0105C65.9227 87.8225 65.4301 86.7035 64.6804 85.7631C63.9306 84.8228 62.9494 84.0933 61.8329 83.6464C60.7164 83.1994 59.5029 83.0503 58.3113 83.2135C57.1198 83.3767 55.9911 83.8468 55.0359 84.5776H54.9967Z" fill="#00FFB0"/>
<path opacity="0.4" d="M54.9967 84.5776C53.8653 85.455 53.0322 86.6603 52.6111 88.0288C52.19 89.3973 52.2015 90.8624 52.6439 92.2242C52.3502 90.9594 52.4787 89.6333 53.0097 88.4484C53.5407 87.2636 54.445 86.2851 55.5845 85.6626C56.7239 85.0401 58.0358 84.8077 59.3198 85.0011C60.6037 85.1944 61.7891 85.8028 62.6947 86.7332C63.6003 87.6637 64.1764 88.865 64.3349 90.1537C64.4934 91.4424 64.2257 92.7476 63.5726 93.8698C62.9195 94.992 61.917 95.8695 60.7182 96.3683C59.5194 96.867 58.1902 96.9596 56.9339 96.6318C58.0674 97.0337 59.2859 97.1342 60.4699 96.9234C61.654 96.7126 62.7629 96.1978 63.6881 95.4293C64.6133 94.6609 65.3229 93.6653 65.7474 92.5401C66.1719 91.4148 66.2968 90.1986 66.1097 89.0105C65.9227 87.8225 65.4301 86.7035 64.6804 85.7631C63.9306 84.8228 62.9494 84.0933 61.8329 83.6464C60.7164 83.1994 59.5029 83.0503 58.3113 83.2135C57.1198 83.3767 55.9911 83.8468 55.0359 84.5776H54.9967Z" fill="black"/>
<path d="M322.809 175.631C324 174.423 324.881 172.945 325.375 171.322C325.87 169.699 325.964 167.981 325.648 166.314C325.648 166.314 324.245 158.315 316.661 157.201C313.862 156.821 311.019 157.462 308.653 159.005C307.746 159.572 306.902 160.235 306.136 160.981C303.516 163.577 296.497 171.436 296.497 171.436L296.74 172.839C299.548 174.196 308.63 177.255 311.516 178.141C315.155 179.255 319.845 178.698 322.809 175.631ZM308.293 170.737C308.056 169.386 308.225 167.994 308.779 166.738C309.334 165.482 310.248 164.419 311.406 163.683C312.564 162.947 313.915 162.57 315.287 162.601C316.659 162.633 317.991 163.07 319.115 163.858C320.239 164.646 321.104 165.75 321.6 167.03C322.097 168.309 322.203 169.707 321.905 171.047C321.607 172.387 320.918 173.608 319.926 174.557C318.934 175.506 317.683 176.139 316.331 176.376C315.433 176.535 314.512 176.516 313.622 176.318C312.731 176.121 311.888 175.749 311.142 175.225C310.395 174.702 309.759 174.035 309.27 173.265C308.781 172.495 308.449 171.636 308.293 170.737Z" fill="#00FFB0"/>
<path opacity="0.4" d="M322.809 175.631C324 174.423 324.881 172.945 325.375 171.322C325.87 169.699 325.964 167.981 325.648 166.314C325.648 166.314 324.245 158.315 316.661 157.201C313.862 156.821 311.019 157.462 308.653 159.005C307.746 159.572 306.902 160.235 306.136 160.981C303.516 163.577 296.497 171.436 296.497 171.436L296.74 172.839C299.548 174.196 308.63 177.255 311.516 178.141C315.155 179.255 319.845 178.698 322.809 175.631ZM308.293 170.737C308.056 169.386 308.225 167.994 308.779 166.738C309.334 165.482 310.248 164.419 311.406 163.683C312.564 162.947 313.915 162.57 315.287 162.601C316.659 162.633 317.991 163.07 319.115 163.858C320.239 164.646 321.104 165.75 321.6 167.03C322.097 168.309 322.203 169.707 321.905 171.047C321.607 172.387 320.918 173.608 319.926 174.557C318.934 175.506 317.683 176.139 316.331 176.376C315.433 176.535 314.512 176.516 313.622 176.318C312.731 176.121 311.888 175.749 311.142 175.225C310.395 174.702 309.759 174.035 309.27 173.265C308.781 172.495 308.449 171.636 308.293 170.737Z" fill="black"/>
<path d="M323.005 177.043C324.197 175.837 325.08 174.36 325.577 172.739C326.074 171.118 326.171 169.401 325.86 167.734C325.86 167.734 324.448 159.726 316.872 158.621C314.072 158.245 311.23 158.882 308.857 160.417C307.953 160.988 307.112 161.653 306.348 162.401C303.705 164.989 296.685 172.831 296.685 172.831C296.685 172.831 308.214 178.463 311.712 179.537C315.343 180.674 320.033 180.117 323.005 177.043ZM308.238 170.769C307.999 169.417 308.167 168.025 308.72 166.768C309.273 165.512 310.187 164.447 311.345 163.71C312.503 162.972 313.853 162.595 315.226 162.625C316.598 162.655 317.931 163.092 319.055 163.879C320.18 164.667 321.045 165.77 321.542 167.05C322.04 168.33 322.146 169.728 321.849 171.068C321.552 172.408 320.863 173.63 319.871 174.579C318.879 175.528 317.628 176.162 316.276 176.4C315.378 176.564 314.455 176.548 313.563 176.353C312.67 176.158 311.825 175.787 311.077 175.262C310.329 174.738 309.693 174.07 309.206 173.297C308.718 172.524 308.389 171.662 308.238 170.761V170.769Z" fill="#00FFB0"/>
<path d="M321.939 168.338C321.689 166.925 321.009 165.625 319.991 164.615C318.973 163.606 317.667 162.936 316.253 162.699C317.511 163.022 318.628 163.748 319.435 164.766C320.241 165.784 320.692 167.039 320.718 168.337C320.744 169.636 320.344 170.907 319.579 171.957C318.814 173.007 317.727 173.778 316.483 174.151C315.238 174.524 313.906 174.48 312.69 174.024C311.473 173.569 310.44 172.727 309.747 171.629C309.054 170.53 308.739 169.235 308.852 167.941C308.965 166.647 309.498 165.426 310.371 164.463C309.491 165.283 308.839 166.318 308.479 167.466C308.12 168.614 308.065 169.836 308.32 171.012C308.575 172.187 309.131 173.276 309.933 174.172C310.736 175.068 311.758 175.74 312.899 176.122C314.039 176.504 315.26 176.583 316.44 176.352C317.621 176.12 318.72 175.585 319.632 174.8C320.544 174.015 321.235 173.007 321.64 171.874C322.044 170.741 322.147 169.522 321.939 168.338Z" fill="#00FFB0"/>
<path opacity="0.4" d="M321.939 168.338C321.689 166.925 321.009 165.625 319.991 164.615C318.973 163.606 317.667 162.936 316.253 162.699C317.511 163.022 318.628 163.748 319.435 164.766C320.241 165.784 320.692 167.039 320.718 168.337C320.744 169.636 320.344 170.907 319.579 171.957C318.814 173.007 317.727 173.778 316.483 174.151C315.238 174.524 313.906 174.48 312.69 174.024C311.473 173.569 310.44 172.727 309.747 171.629C309.054 170.53 308.739 169.235 308.852 167.941C308.965 166.647 309.498 165.426 310.371 164.463C309.491 165.283 308.839 166.318 308.479 167.466C308.12 168.614 308.065 169.836 308.32 171.012C308.575 172.187 309.131 173.276 309.933 174.172C310.736 175.068 311.758 175.74 312.899 176.122C314.039 176.504 315.26 176.583 316.44 176.352C317.621 176.12 318.72 175.585 319.632 174.8C320.544 174.015 321.235 173.007 321.64 171.874C322.044 170.741 322.147 169.522 321.939 168.338Z" fill="black"/>
<path d="M39.5074 296.746C39.2795 298.428 39.463 300.14 40.0422 301.736C40.6213 303.331 41.5789 304.762 42.8327 305.906C42.8327 305.906 48.7618 311.459 55.483 307.789C57.9532 306.404 59.8432 304.177 60.8081 301.515C61.1792 300.513 61.4421 299.474 61.5924 298.417C62.1336 294.77 63.0198 284.3 63.0198 284.3L61.9846 283.327C58.9259 283.931 49.8284 286.935 46.9893 287.962C43.4522 289.272 40.0328 292.535 39.5074 296.746ZM54.0477 291.939C55.0507 292.877 55.7529 294.091 56.0656 295.428C56.3782 296.765 56.2872 298.165 55.804 299.45C55.3209 300.736 54.4673 301.849 53.3513 302.649C52.2353 303.449 50.907 303.9 49.5346 303.945C48.1621 303.99 46.8072 303.627 45.6412 302.902C44.4751 302.177 43.5504 301.122 42.9841 299.871C42.4177 298.62 42.2352 297.229 42.4595 295.874C42.6839 294.52 43.305 293.262 44.2444 292.26C45.5056 290.922 47.2464 290.139 49.0844 290.083C50.9224 290.027 52.7075 290.703 54.0477 291.962V291.939Z" fill="#263238"/>
<path d="M38.5035 295.758C38.2756 297.439 38.4591 299.15 39.0383 300.744C39.6175 302.338 40.5751 303.768 41.8288 304.91C41.8288 304.91 47.7579 310.463 54.4791 306.801C56.9516 305.418 58.8424 303.191 59.8043 300.526C60.178 299.512 60.4409 298.46 60.5885 297.389C61.1297 293.742 62.0159 283.272 62.0159 283.272C62.0159 283.272 49.4205 285.688 45.9854 286.935C42.4484 288.253 39.0289 291.515 38.5035 295.758ZM54.0791 291.915C55.0821 292.853 55.7843 294.067 56.0969 295.404C56.4096 296.742 56.3185 298.141 55.8354 299.427C55.3522 300.712 54.4986 301.825 53.3826 302.625C52.2666 303.426 50.9384 303.877 49.5659 303.922C48.1935 303.967 46.8385 303.604 45.6725 302.878C44.5065 302.153 43.5818 301.098 43.0154 299.847C42.4491 298.596 42.2665 297.205 42.4909 295.851C42.7152 294.496 43.3363 293.238 44.2757 292.237C44.8953 291.567 45.6417 291.027 46.4715 290.648C47.3014 290.268 48.1983 290.058 49.1102 290.028C50.0221 289.998 50.9309 290.149 51.7838 290.473C52.6368 290.797 53.4169 291.287 54.0791 291.915Z" fill="#455A64"/>
<path d="M44.5659 302.095C45.6124 303.074 46.9365 303.705 48.3562 303.902C49.7759 304.099 51.2216 303.851 52.4949 303.193C51.295 303.689 49.9655 303.779 48.7096 303.449C47.4538 303.119 46.3406 302.386 45.5403 301.363C44.74 300.341 44.2966 299.084 44.2778 297.786C44.259 296.487 44.6659 295.219 45.4363 294.173C46.2066 293.128 47.2981 292.363 48.5439 291.997C49.7896 291.63 51.1212 291.682 52.335 292.143C53.5487 292.605 54.578 293.451 55.2654 294.553C55.9529 295.655 56.2606 296.951 56.1417 298.244C56.3527 297.06 56.2522 295.841 55.8501 294.707C55.448 293.574 54.7582 292.564 53.8483 291.777C52.9383 290.99 51.8395 290.453 50.6595 290.219C49.4796 289.985 48.2591 290.061 47.1176 290.441C45.9762 290.821 44.953 291.491 44.1485 292.385C43.3439 293.279 42.7856 294.367 42.5283 295.543C42.271 296.718 42.3235 297.939 42.6807 299.088C43.0379 300.237 43.6876 301.273 44.5659 302.095Z" fill="#263238"/>
<path d="M279.251 98.6395C279.414 97.4475 279.285 96.2337 278.875 95.1025C278.465 93.9713 277.787 92.9567 276.898 92.1458C276.898 92.1458 272.687 88.2244 267.91 90.8047C266.162 91.7836 264.821 93.3552 264.13 95.2358C263.859 95.9478 263.665 96.6865 263.55 97.4396C263.166 100.028 262.53 107.478 262.53 107.478L263.267 108.168C265.44 107.737 271.894 105.612 273.918 104.882C276.451 103.965 278.882 101.651 279.251 98.6395ZM268.93 102.059C268.219 101.394 267.721 100.532 267.499 99.584C267.277 98.6357 267.341 97.6429 267.684 96.7311C268.026 95.8193 268.631 95.0294 269.422 94.4614C270.213 93.8934 271.155 93.5726 272.128 93.5397C273.102 93.5069 274.063 93.7633 274.891 94.2766C275.718 94.79 276.375 95.5372 276.778 96.4238C277.181 97.3104 277.312 98.2966 277.155 99.2578C276.998 100.219 276.559 101.112 275.894 101.824C275.001 102.777 273.766 103.337 272.461 103.381C271.155 103.425 269.885 102.95 268.93 102.059Z" fill="#263238"/>
<path d="M279.965 99.3611C280.128 98.1691 279.999 96.9553 279.589 95.8241C279.179 94.6929 278.501 93.6782 277.612 92.8673C277.612 92.8673 273.4 88.946 268.624 91.5262C266.871 92.5068 265.53 94.0851 264.844 95.973C264.573 96.685 264.378 97.4237 264.264 98.1768C263.879 100.765 263.244 108.215 263.244 108.215C263.244 108.215 272.193 106.498 274.632 105.62C277.071 104.741 279.588 102.373 279.965 99.3611ZM268.906 102.09C268.429 101.651 268.045 101.121 267.774 100.531C267.504 99.9416 267.354 99.3041 267.333 98.6559C267.312 98.0076 267.42 97.3616 267.651 96.7556C267.882 96.1496 268.232 95.5956 268.679 95.126C269.345 94.4155 270.207 93.9184 271.156 93.6976C272.104 93.4768 273.097 93.5422 274.008 93.8855C274.92 94.2288 275.709 94.8347 276.276 95.6264C276.843 96.4182 277.163 97.3604 277.195 98.3338C277.227 99.3072 276.969 100.268 276.455 101.095C275.94 101.922 275.192 102.578 274.305 102.981C273.418 103.383 272.432 103.513 271.471 103.354C270.51 103.196 269.618 102.756 268.906 102.09Z" fill="#455A64"/>
<path d="M275.667 94.8672C274.924 94.1705 273.984 93.721 272.976 93.5805C271.967 93.4401 270.94 93.6156 270.036 94.0829C270.887 93.7304 271.831 93.6665 272.722 93.9008C273.614 94.1352 274.404 94.6549 274.972 95.3806C275.54 96.1064 275.855 96.9982 275.868 97.9197C275.882 98.8413 275.593 99.7419 275.047 100.484C274.5 101.226 273.726 101.769 272.841 102.029C271.957 102.289 271.012 102.253 270.151 101.926C269.289 101.598 268.559 100.998 268.07 100.216C267.582 99.4344 267.364 98.5143 267.448 97.5965C267.298 98.4366 267.37 99.3011 267.655 100.105C267.94 100.91 268.429 101.626 269.075 102.184C269.72 102.742 270.499 103.123 271.336 103.29C272.173 103.456 273.039 103.402 273.849 103.133C274.659 102.864 275.385 102.39 275.956 101.756C276.527 101.122 276.924 100.35 277.107 99.5168C277.29 98.6834 277.254 97.8168 277.002 97.0017C276.749 96.1866 276.289 95.4511 275.667 94.8672Z" fill="#263238"/>
<path d="M130.867 251.329H159.956C159.956 251.329 157.383 246.623 149.893 247.329C142.741 247.98 142.38 245.024 138.741 244.663C135.102 244.302 132.083 247.086 130.867 251.329Z" fill="white"/>
<path d="M150.866 226.091H193.914C193.914 226.091 190.111 219.166 179.013 220.17C168.426 221.135 167.892 216.766 162.544 216.249C157.195 215.731 152.662 219.817 150.866 226.091Z" fill="white"/>
<path d="M95.0337 161.742H123.197C123.197 161.742 120.703 157.217 113.456 157.875C106.531 158.503 106.178 155.64 102.665 155.295C99.1511 154.95 96.2101 157.64 95.0337 161.742Z" fill="white"/>
</svg>
