<svg width="257" height="256" viewBox="0 0 257 256" fill="none" xmlns="http://www.w3.org/2000/svg">
<path d="M128.357 254.307C198.193 254.307 254.807 197.693 254.807 127.857C254.807 58.0202 198.193 1.40659 128.357 1.40659C58.5203 1.40659 1.90674 58.0202 1.90674 127.857C1.90674 197.693 58.5203 254.307 128.357 254.307Z" fill="#15CE5B"/>
<path d="M58.5059 187.743H87.1903C89.4243 187.743 91.2367 185.931 91.2367 183.697V107.245C91.2367 105.011 89.4243 103.199 87.1903 103.199H58.5059V187.743Z" fill="white"/>
<path d="M187.631 124.285C193.473 124.285 198.208 119.55 198.208 113.708C198.208 107.866 193.473 103.131 187.631 103.131H154.108C159.941 92.6248 160.118 60.7116 146.276 56.8788C143.654 56.1538 141.052 58.1545 140.76 60.8606C138.327 83.2563 124.625 111.095 110.693 111.901H99.8408V178.653H105.469C108.498 178.653 111.393 179.687 113.922 181.359C120.23 185.535 130.852 187.979 141.033 187.724H145.956V187.74H179.777C185.619 187.74 190.354 183.006 190.354 177.164C190.354 171.322 185.619 166.587 179.777 166.587H184.492C190.334 166.587 195.069 161.852 195.069 156.01C195.069 150.168 190.334 145.433 184.492 145.433H187.634C193.476 145.433 198.21 140.698 198.21 134.856C198.21 129.014 193.473 124.285 187.631 124.285Z" fill="white"/>
</svg>
