<svg width="127" height="71" viewBox="0 0 127 71" fill="none" xmlns="http://www.w3.org/2000/svg">
<path d="M51.2386 28.6481L58.5584 16.6588C55.0247 15.9437 47.3263 14.6396 45.3071 14.6396C43.2878 14.6396 42.1941 15.3968 41.8996 15.7754L40.7638 17.2898C39.8383 17.2057 37.6592 17.1131 36.3466 17.416C34.706 17.7946 33.444 19.5615 33.0654 20.0663C32.7625 20.4701 32.5605 21.0759 32.5605 21.3283C32.5605 21.8331 32.6868 21.8331 32.6868 21.8331C32.6868 21.8331 33.0233 22.0855 33.444 21.8331C34.075 21.4545 34.9079 21.0759 35.7156 21.0759C36.5233 21.0759 37.3142 21.3283 37.6087 21.4545L51.2386 28.6481Z" fill="#15CE5B"/>
<path d="M65.1104 8.40786C65.7194 7.36105 66.0239 6.83765 66.3749 6.46246C67.5654 5.18998 69.3788 4.7105 71.0426 5.22826C71.5332 5.38092 72.0566 5.68541 73.1034 6.2944L57.8863 32.4514L52.8331 29.5117L65.1104 8.40786Z" fill="url(#paint0_linear_61_120)"/>
<path d="M75.6821 5.77798C76.2911 4.73118 76.5956 4.20778 76.9466 3.83259C78.137 2.56011 79.9504 2.08063 81.6143 2.59839C82.1048 2.75105 82.6282 3.05555 83.675 3.66453L64.6212 36.4166L59.568 33.4768L75.6821 5.77798Z" fill="url(#paint1_linear_61_120)"/>
<path d="M86.8278 1.89305L66.2567 36.9775H68.907C69.0332 36.9775 72.0621 37.2299 74.7123 33.57L93.769 1.38823L92.6332 0.75722L91.876 0.378609C90.6139 -0.126202 89.2509 -0.126204 88.3423 0.378609C87.4336 0.883422 86.954 1.59857 86.8278 1.89305Z" fill="url(#paint2_linear_61_120)"/>
<path d="M6.67564 61.2574C5.65087 61.2574 4.72858 61.0818 3.90876 60.7304C3.08895 60.3644 2.44481 59.852 1.97634 59.1933C1.50788 58.5345 1.27364 57.7659 1.27364 56.8875H3.95268C4.01124 57.5463 4.26743 58.088 4.72126 58.5125C5.18973 58.9371 5.84119 59.1493 6.67564 59.1493C7.53938 59.1493 8.2128 58.9444 8.6959 58.5345C9.17901 58.1099 9.42056 57.5683 9.42056 56.9095C9.42056 56.3971 9.26684 55.9799 8.95941 55.6578C8.66662 55.3357 8.29331 55.0869 7.83949 54.9112C7.4003 54.7355 6.78544 54.5452 5.9949 54.3402C4.99941 54.0767 4.18692 53.8132 3.55741 53.5497C2.94255 53.2716 2.41553 52.847 1.97634 52.2761C1.53715 51.7051 1.31756 50.9439 1.31756 49.9923C1.31756 49.1139 1.53715 48.3453 1.97634 47.6866C2.41553 47.0278 3.03039 46.5227 3.82093 46.1714C4.61146 45.82 5.52644 45.6443 6.56585 45.6443C8.04444 45.6443 9.2522 46.0177 10.1891 46.7643C11.1407 47.4963 11.6677 48.5064 11.7702 49.7947H9.00333C8.95941 49.2384 8.6959 48.7626 8.2128 48.3673C7.72969 47.972 7.09287 47.7744 6.30233 47.7744C5.58499 47.7744 4.99941 47.9574 4.54559 48.3234C4.09176 48.6894 3.86485 49.2164 3.86485 49.9045C3.86485 50.3729 4.00392 50.7609 4.28207 51.0683C4.57486 51.3611 4.94085 51.5953 5.38004 51.771C5.81923 51.9467 6.41945 52.137 7.18071 52.3419C8.19084 52.6201 9.01065 52.8983 9.64015 53.1764C10.2843 53.4546 10.826 53.8864 11.2651 54.472C11.719 55.0429 11.9459 55.8115 11.9459 56.7777C11.9459 57.5536 11.7336 58.2856 11.3091 58.9737C10.8992 59.6617 10.2916 60.218 9.48644 60.6426C8.6959 61.0525 7.75897 61.2574 6.67564 61.2574ZM25.9892 54.7575C25.9892 55.2113 25.96 55.6212 25.9014 55.9872H16.6565C16.7297 56.9534 17.0884 57.7293 17.7325 58.3149C18.3767 58.9005 19.1672 59.1933 20.1041 59.1933C21.451 59.1933 22.4025 58.6296 22.9588 57.5024H25.6598C25.2939 58.615 24.6278 59.53 23.6615 60.2473C22.71 60.95 21.5242 61.3014 20.1041 61.3014C18.9476 61.3014 17.9082 61.0452 16.9859 60.5328C16.0782 60.0058 15.3609 59.2738 14.8339 58.3369C14.3215 57.3853 14.0653 56.2873 14.0653 55.0429C14.0653 53.7986 14.3142 52.7079 14.8119 51.771C15.3243 50.8194 16.0343 50.0875 16.942 49.5751C17.8643 49.0627 18.9183 48.8065 20.1041 48.8065C21.246 48.8065 22.2635 49.0554 23.1565 49.5531C24.0495 50.0509 24.7449 50.7536 25.2426 51.6612C25.7404 52.5542 25.9892 53.5863 25.9892 54.7575ZM23.3761 53.9669C23.3614 53.0446 23.032 52.3054 22.3879 51.749C21.7438 51.1927 20.9459 50.9146 19.9943 50.9146C19.1306 50.9146 18.3913 51.1927 17.7764 51.749C17.1616 52.2907 16.7956 53.03 16.6785 53.9669H23.3761ZM30.9562 50.7609C31.3221 50.146 31.8053 49.6702 32.4055 49.3335C33.0203 48.9822 33.745 48.8065 34.5795 48.8065V51.3977H33.9426C32.9618 51.3977 32.2152 51.6466 31.7028 52.1443C31.205 52.6421 30.9562 53.5058 30.9562 54.7355V61.1037H28.4528V49.0041H30.9562V50.7609ZM41.5579 58.8639L44.9836 49.0041H47.6406L43.0292 61.1037H40.0427L35.4532 49.0041H38.1322L41.5579 58.8639ZM50.8066 47.4011C50.3527 47.4011 49.9721 47.2474 49.6647 46.9399C49.3572 46.6325 49.2035 46.2519 49.2035 45.7981C49.2035 45.3442 49.3572 44.9636 49.6647 44.6562C49.9721 44.3487 50.3527 44.195 50.8066 44.195C51.2457 44.195 51.619 44.3487 51.9265 44.6562C52.2339 44.9636 52.3876 45.3442 52.3876 45.7981C52.3876 46.2519 52.2339 46.6325 51.9265 46.9399C51.619 47.2474 51.2457 47.4011 50.8066 47.4011ZM52.0363 49.0041V61.1037H49.5329V49.0041H52.0363ZM54.4885 55.0429C54.4885 53.7986 54.7374 52.7079 55.2351 51.771C55.7475 50.8194 56.4502 50.0875 57.3432 49.5751C58.2362 49.0627 59.261 48.8065 60.4175 48.8065C61.8815 48.8065 63.0893 49.1578 64.0408 49.8605C65.007 50.5486 65.6585 51.5368 65.9952 52.8251H63.2942C63.0746 52.2248 62.7233 51.7564 62.2402 51.4197C61.7571 51.0829 61.1495 50.9146 60.4175 50.9146C59.3928 50.9146 58.573 51.2806 57.9581 52.0126C57.3579 52.7299 57.0578 53.74 57.0578 55.0429C57.0578 56.3459 57.3579 57.3633 57.9581 58.0953C58.573 58.8273 59.3928 59.1933 60.4175 59.1933C61.8669 59.1933 62.8257 58.5564 63.2942 57.2828H65.9952C65.6439 58.5125 64.9851 59.4934 64.0189 60.2254C63.0527 60.9427 61.8522 61.3014 60.4175 61.3014C59.261 61.3014 58.2362 61.0452 57.3432 60.5328C56.4502 60.0058 55.7475 59.2738 55.2351 58.3369C54.7374 57.3853 54.4885 56.2873 54.4885 55.0429ZM79.5795 54.7575C79.5795 55.2113 79.5502 55.6212 79.4916 55.9872H70.2467C70.3199 56.9534 70.6786 57.7293 71.3228 58.3149C71.9669 58.9005 72.7574 59.1933 73.6944 59.1933C75.0412 59.1933 75.9928 58.6296 76.5491 57.5024H79.2501C78.8841 58.615 78.218 59.53 77.2518 60.2473C76.3002 60.95 75.1144 61.3014 73.6944 61.3014C72.5378 61.3014 71.4984 61.0452 70.5761 60.5328C69.6685 60.0058 68.9511 59.2738 68.4241 58.3369C67.9117 57.3853 67.6555 56.2873 67.6555 55.0429C67.6555 53.7986 67.9044 52.7079 68.4022 51.771C68.9145 50.8194 69.6246 50.0875 70.5322 49.5751C71.4545 49.0627 72.5086 48.8065 73.6944 48.8065C74.8363 48.8065 75.8537 49.0554 76.7467 49.5531C77.6397 50.0509 78.3351 50.7536 78.8329 51.6612C79.3306 52.5542 79.5795 53.5863 79.5795 54.7575ZM76.9663 53.9669C76.9517 53.0446 76.6223 52.3054 75.9781 51.749C75.334 51.1927 74.5361 50.9146 73.5846 50.9146C72.7208 50.9146 71.9815 51.1927 71.3667 51.749C70.7518 52.2907 70.3858 53.03 70.2687 53.9669H76.9663ZM86.4349 61.3014C85.4833 61.3014 84.6269 61.133 83.8657 60.7963C83.119 60.4449 82.5261 59.9765 82.087 59.3909C81.6478 58.7907 81.4135 58.1246 81.3843 57.3926H83.9755C84.0194 57.905 84.2609 58.3369 84.7001 58.6882C85.1539 59.0249 85.7176 59.1933 86.391 59.1933C87.0937 59.1933 87.6354 59.0615 88.016 58.798C88.4112 58.5198 88.6089 58.1685 88.6089 57.7439C88.6089 57.2901 88.3893 56.9534 87.9501 56.7338C87.5256 56.5142 86.8448 56.2727 85.9079 56.0092C85.0002 55.7603 84.2609 55.5187 83.69 55.2845C83.119 55.0503 82.6213 54.6916 82.1968 54.2085C81.7868 53.7254 81.5819 53.0886 81.5819 52.298C81.5819 51.6539 81.7722 51.0683 82.1528 50.5413C82.5335 49.9996 83.0751 49.5751 83.7778 49.2676C84.4952 48.9602 85.315 48.8065 86.2373 48.8065C87.6134 48.8065 88.7187 49.1578 89.5531 49.8605C90.4022 50.5486 90.8561 51.4929 90.9146 52.6933H88.4112C88.3673 52.1516 88.1477 51.7198 87.7525 51.3977C87.3572 51.0756 86.8229 50.9146 86.1494 50.9146C85.4907 50.9146 84.9856 51.039 84.6342 51.2879C84.2829 51.5368 84.1072 51.8662 84.1072 52.2761C84.1072 52.5981 84.2243 52.869 84.4586 53.0886C84.6928 53.3082 84.9783 53.4838 85.315 53.6156C85.6517 53.7327 86.1494 53.8864 86.8082 54.0767C87.6866 54.311 88.4039 54.5525 88.9602 54.8014C89.5312 55.0356 90.0216 55.387 90.4315 55.8554C90.8414 56.3239 91.0537 56.9461 91.0683 57.722C91.0683 58.41 90.878 59.0249 90.4974 59.5666C90.1168 60.1082 89.5751 60.5328 88.8724 60.8402C88.1843 61.1476 87.3718 61.3014 86.4349 61.3014ZM94.7834 61.2574C94.3296 61.2574 93.9489 61.1037 93.6415 60.7963C93.3341 60.4889 93.1804 60.1082 93.1804 59.6544C93.1804 59.2006 93.3341 58.82 93.6415 58.5125C93.9489 58.2051 94.3296 58.0514 94.7834 58.0514C95.2226 58.0514 95.5959 58.2051 95.9033 58.5125C96.2108 58.82 96.3645 59.2006 96.3645 59.6544C96.3645 60.1082 96.2108 60.4889 95.9033 60.7963C95.5959 61.1037 95.2226 61.2574 94.7834 61.2574ZM105.175 48.8065C106.126 48.8065 106.975 49.0041 107.722 49.3994C108.483 49.7947 109.076 50.3802 109.501 51.1561C109.925 51.932 110.138 52.869 110.138 53.9669V61.1037H107.656V54.3402C107.656 53.2569 107.385 52.4298 106.844 51.8588C106.302 51.2733 105.563 50.9805 104.626 50.9805C103.689 50.9805 102.942 51.2733 102.386 51.8588C101.844 52.4298 101.573 53.2569 101.573 54.3402V61.1037H99.0701V49.0041H101.573V50.3876C101.983 49.8898 102.503 49.5019 103.133 49.2237C103.777 48.9456 104.457 48.8065 105.175 48.8065ZM118.206 48.8065C119.143 48.8065 119.97 48.9968 120.687 49.3774C121.419 49.7434 121.99 50.2046 122.4 50.7609V49.0041H124.925V61.3014C124.925 62.414 124.691 63.4021 124.223 64.2659C123.754 65.1442 123.073 65.8323 122.18 66.3301C121.302 66.8278 120.248 67.0767 119.018 67.0767C117.379 67.0767 116.017 66.6887 114.934 65.9128C113.851 65.1516 113.236 64.1122 113.089 62.7946H115.571C115.761 63.4241 116.164 63.9292 116.778 64.3098C117.408 64.7051 118.155 64.9027 119.018 64.9027C120.028 64.9027 120.841 64.5953 121.456 63.9804C122.085 63.3655 122.4 62.4725 122.4 61.3014V59.2811C121.975 59.852 121.397 60.3352 120.665 60.7304C119.948 61.111 119.128 61.3014 118.206 61.3014C117.152 61.3014 116.186 61.0379 115.307 60.5108C114.443 59.9692 113.755 59.2225 113.243 58.271C112.745 57.3048 112.496 56.2141 112.496 54.999C112.496 53.7839 112.745 52.7079 113.243 51.771C113.755 50.8341 114.443 50.1094 115.307 49.597C116.186 49.07 117.152 48.8065 118.206 48.8065ZM122.4 55.0429C122.4 54.2085 122.224 53.4838 121.873 52.869C121.536 52.2541 121.09 51.7856 120.533 51.4636C119.977 51.1415 119.377 50.9805 118.733 50.9805C118.089 50.9805 117.488 51.1415 116.932 51.4636C116.376 51.771 115.922 52.2322 115.571 52.847C115.234 53.4472 115.066 54.1646 115.066 54.999C115.066 55.8335 115.234 56.5655 115.571 57.195C115.922 57.8245 116.376 58.3076 116.932 58.6443C117.503 58.9664 118.103 59.1274 118.733 59.1274C119.377 59.1274 119.977 58.9664 120.533 58.6443C121.09 58.3222 121.536 57.8537 121.873 57.2389C122.224 56.6094 122.4 55.8774 122.4 55.0429Z" fill="#15CE5B"/>
<defs>
<linearGradient id="paint0_linear_61_120" x1="78.479" y1="-0.97263" x2="47.2982" y2="-5.15196" gradientUnits="userSpaceOnUse">
<stop stop-color="#0FCC55"/>
<stop offset="1" stop-color="#006124"/>
</linearGradient>
<linearGradient id="paint1_linear_61_120" x1="90.1897" y1="-5.56055" x2="58.5446" y2="-12.1936" gradientUnits="userSpaceOnUse">
<stop stop-color="#0FCC55"/>
<stop offset="1" stop-color="#006124"/>
</linearGradient>
<linearGradient id="paint2_linear_61_120" x1="98.4385" y1="-10.9797" x2="53.384" y2="61.0823" gradientUnits="userSpaceOnUse">
<stop stop-color="#0FCC55"/>
<stop offset="1" stop-color="#006124"/>
</linearGradient>
</defs>
</svg>
