<svg width="11" height="11" viewBox="0 0 11 11" fill="none" xmlns="http://www.w3.org/2000/svg">
<g id="vuesax/bold/location">
<path id="Vector" d="M3.9265 9.33149L3.92657 9.33155C4.36846 9.75677 4.93434 9.96876 5.50017 9.96876C6.06619 9.96876 6.63156 9.75667 7.0684 9.3323L7.06924 9.33148C8.36753 8.08314 9.73551 6.16403 9.22751 3.9236C8.77548 1.93494 7.04288 1.03126 5.50017 1.03126H5.50016H5.50016H5.50015H5.50015H5.50015H5.50014H5.50014H5.50013H5.50013H5.50013H5.50012H5.50012H5.50011H5.50011H5.50011H5.5001H5.5001H5.50009H5.50009H5.50008H5.50008H5.50007H5.50007H5.50007H5.50006H5.50006H5.50005H5.50005H5.50004H5.50004H5.50003H5.50003H5.50002H5.50002H5.50001H5.50001H5.5H5.5H5.49999H5.49998H5.49998H5.49997H5.49996H5.49996H5.49995H5.49994H5.49994H5.49993H5.49993H5.49992H5.49992H5.49992H5.49991H5.49991H5.4999H5.4999H5.4999H5.49989H5.49989H5.49988H5.49988H5.49988H5.49987H5.49987H5.49986H5.49986H5.49985H5.49985H5.49985H5.49984H5.49984H5.49983H5.49983H5.49982H5.49982H5.49981H5.49981H5.4998H5.4998H5.49979H5.49979H5.49978H5.49978H5.49977H5.49977H5.49976H5.49976H5.49975H5.49974H5.49974H5.49973H5.49973H5.49972H5.49972H5.49971H5.49971H5.4997H5.49969H5.49969H5.49968H5.49968H5.49967H5.49966H5.49966H5.49965H5.49965H5.49964H5.49963H5.49963H5.49962H5.49961H5.49961H5.4996H5.49959H5.49959H5.49958H5.49957H5.49957H5.49956H5.49955H5.49954H5.49954H5.49953H5.49952H5.49952H5.49951H5.4995H5.49949H5.49949H5.49948H5.49947H5.49946H5.49946H5.49945H5.49944H5.49943H5.49942H5.49942H5.49941H5.4994H5.49939H5.49938H5.49938H5.49937H5.49936H5.49935H5.49934H5.49933H5.49932H5.49932H5.49931H5.4993H5.49929H5.49928H5.49927H5.49926H5.49925H5.49924H5.49923H5.49923H5.49922H5.49921H5.4992H5.49919H5.49918H5.49917H5.49916H5.49915H5.49914H5.49913H5.49912H5.49911H5.4991H5.49909H5.49908H5.49907H5.49906H5.49905H5.49904H5.49903H5.49902H5.499H5.49899H5.49898H5.49897H5.49896H5.49895H5.49894H5.49893H5.49892H5.49891H5.49889H5.49888H5.49887H5.49886H5.49885H5.49884H5.49882H5.49881H5.4988H5.49879H5.49878H5.49876H5.49875H5.49874H5.49873H5.49871H5.4987H5.49869H5.49868H5.49866H5.49865H5.49864H5.49863H5.49861H5.4986H5.49859H5.49857H5.49856H5.49855H5.49853H5.49852H5.49851H5.49849H5.49848H5.49846H5.49845H5.49844H5.49842H5.49841H5.49839H5.49838H5.49836H5.49835H5.49834H5.49832H5.49831H5.49829H5.49828H5.49826H5.49825H5.49823H5.49822H5.4982H5.49819H5.49817H5.49816H5.49814H5.49812H5.49811H5.49809H5.49808H5.49806H5.49805H5.49803H5.49801H5.498H5.49798H5.49796H5.49795H5.49793H5.49791H5.4979H5.49788H5.49786H5.49785H5.49783H5.49781H5.4978H5.49778H5.49776H5.49774H5.49773H5.49771H5.49769H5.49767H5.49765H5.49764H5.49762H5.4976H5.49758H5.49756H5.49754H5.49753H5.49751H5.49749H5.49747H5.49745H5.49743H5.49741H5.49739H5.49737H5.49735H5.49734H5.49732H5.4973H5.49728H5.49726H5.49724H5.49722H5.4972H5.49718H5.49716H5.49714H5.49712H5.4971H5.49707H5.49705H5.49703H5.49701H5.49699H5.49697H5.49695H5.49693H5.49691H5.49689H5.49686H5.49684H5.49682H5.4968H5.49678H5.49675H5.49673H5.49671H5.49669H5.49667H5.49664H5.49662H5.4966H5.49657H5.49655H5.49653H5.49651H5.49648H5.49646H5.49644H5.49641H5.49639H5.49637H5.49634H5.49632H5.49629H5.49627H5.49625H5.49622H5.4962H5.49617H5.49615H5.49612H5.4961H5.49607H5.49605H5.49602H5.496H5.49597H5.49595H5.49592H5.4959H5.49587H5.49585H5.49582H5.49579H5.49577H5.49574H5.49572H5.49569H5.49566H5.49564H5.49561H5.49558C3.95684 1.03126 2.22015 1.93086 1.76824 3.91902L3.9265 9.33149ZM3.9265 9.33149C2.6284 8.08331 1.26026 6.15963 1.76822 3.91913L3.9265 9.33149ZM3.82725 4.72543C3.82725 5.64949 4.5761 6.39834 5.50017 6.39834C6.42423 6.39834 7.17308 5.64949 7.17308 4.72543C7.17308 3.80136 6.42423 3.05251 5.50017 3.05251C4.5761 3.05251 3.82725 3.80136 3.82725 4.72543Z" fill="#FFD700" stroke="#3C3C3C" stroke-width="0.458333"/>
</g>
</svg>
