<svg width="54" height="54" viewBox="0 0 54 54" fill="none" xmlns="http://www.w3.org/2000/svg">
<g id="Frame 36729">
<rect width="54" height="54" rx="27" fill="#F3FFCC"/>
<g id="Group 34481">
<g id="Group 34480">
<path id="Traced layer" fill-rule="evenodd" clip-rule="evenodd" d="M16.1796 14.0732C15.8693 14.1696 15.4536 14.556 15.3041 14.8869C15.1932 15.1323 15.1879 15.1927 15.1879 16.194C15.1879 17.1953 15.1932 17.2557 15.3041 17.5011C15.4629 17.8526 15.8699 18.2204 16.2092 18.319C16.4314 18.3837 16.9087 18.3921 19.6832 18.3804L22.8996 18.3668L23.1496 18.2349C23.4611 18.0705 23.7711 17.7241 23.8721 17.4277C23.983 17.1019 23.983 15.286 23.8721 14.9603C23.7711 14.6639 23.4611 14.3175 23.1496 14.1531L22.8996 14.0211L19.6538 14.0117C16.9318 14.0037 16.3712 14.0136 16.1796 14.0732ZM36.4351 14.414C36.1245 14.5119 35.7085 14.899 35.5596 15.2287L35.4433 15.486V18.733V21.9801L35.5596 22.2374C35.6314 22.3964 35.7773 22.5876 35.9414 22.7376C36.3392 23.1013 36.5138 23.1381 37.7498 23.1189C38.7414 23.1035 38.7675 23.1004 39.0124 22.9712C39.1499 22.8986 39.3514 22.7381 39.4602 22.6145C39.8229 22.2023 39.8117 22.3257 39.8117 18.733C39.8117 15.1404 39.8229 15.2638 39.4602 14.8516C39.3514 14.728 39.1499 14.5675 39.0124 14.4949C38.7653 14.3645 38.7496 14.3628 37.7129 14.3524C36.9003 14.3443 36.612 14.3581 36.4351 14.414ZM32.5392 15.1049C29.7023 15.4088 27.329 17.49 26.6555 20.2645C26.4672 21.0402 26.4321 21.8553 26.448 25.0807L26.4626 28.0348L30.111 28.0473L33.7595 28.0599V25.2275V22.3952H33.9051H34.0508L34.015 22.09C33.9682 21.6923 33.9682 15.7738 34.015 15.3761L34.0508 15.0709L33.3805 15.0788C33.0118 15.083 32.6332 15.0948 32.5392 15.1049ZM17.1335 26.3743C17.0224 26.4147 16.704 26.5459 16.4258 26.6658L15.92 26.8838L15.9055 28.5579C15.8854 30.8881 15.9795 31.7357 16.3918 32.9382C17.1656 35.195 18.828 37.0757 20.9472 38.0917C21.6262 38.4172 21.9324 38.5297 22.6282 38.7092C25.0916 39.3449 27.6862 38.8948 29.8304 37.4597C32.2717 35.8257 33.7595 33.0635 33.7595 30.1648V29.5241H30.1033H26.4471L26.4289 30.0245C26.4077 30.6071 26.3107 30.8601 25.9817 31.1911C25.6654 31.5093 25.3224 31.648 24.8519 31.648C24.1869 31.648 23.6905 31.3422 23.4009 30.754L23.2412 30.4298L23.2168 28.65L23.1924 26.8703L22.5703 26.608C21.6684 26.2277 21.6015 26.2261 20.8752 26.5674C20.0896 26.9366 19.6889 27.0212 19.1999 26.9215C18.9919 26.879 18.6212 26.7415 18.3097 26.5912C17.7183 26.3058 17.455 26.2573 17.1335 26.3743Z" fill="#2C2B46"/>
<path id="Traced layer_2" opacity="0.4" fill-rule="evenodd" clip-rule="evenodd" d="M15.8958 22.512C15.8958 24.0322 15.9074 25.276 15.9217 25.276C15.936 25.276 16.0293 25.2408 16.1292 25.1979C16.6195 24.9867 17.0216 24.8782 17.4088 24.8523C17.772 24.8282 17.8709 24.8407 18.2031 24.9527C18.4118 25.0231 18.7631 25.1716 18.9839 25.2826C19.2085 25.3956 19.4605 25.4864 19.5564 25.4889C19.6705 25.4919 19.9234 25.4006 20.3132 25.2156C20.6352 25.0628 20.9974 24.9156 21.1182 24.8884C21.6151 24.7765 22.27 24.8727 22.8936 25.1489C23.0513 25.2188 23.1886 25.276 23.1987 25.276C23.2088 25.276 23.217 24.0375 23.217 22.5239V19.7717L22.9746 19.8158C22.67 19.8712 16.0974 19.8467 15.9812 19.7898C15.9003 19.7502 15.8958 19.8962 15.8958 22.512Z" fill="#2C2B46"/>
</g>
</g>
</g>
</svg>
