<svg width="54" height="54" viewBox="0 0 54 54" fill="none" xmlns="http://www.w3.org/2000/svg">
<g id="Frame 36729">
<rect width="54" height="54" rx="27" fill="#E7FFFF"/>
<g id="Group 34482">
<g id="Group 34479">
<path id="Traced layer" opacity="0.4" fill-rule="evenodd" clip-rule="evenodd" d="M18.3888 14.0863C18.1447 14.21 17.9973 14.4537 17.9973 14.7339C17.9973 15.014 18.1447 15.2578 18.3888 15.3815C18.5452 15.4608 18.7475 15.4666 20.9589 15.4547C23.2967 15.4422 23.3627 15.4392 23.4939 15.3412C23.7359 15.1604 23.8243 14.9979 23.8243 14.7339C23.8243 14.4699 23.7359 14.3073 23.4939 14.1266C23.3627 14.0285 23.2967 14.0255 20.9589 14.013C18.7475 14.0012 18.5452 14.0069 18.3888 14.0863ZM37.4728 14.0842C37.3794 14.1327 37.2531 14.247 37.1922 14.3383C37.0957 14.4827 37.0814 14.5664 37.0814 14.9852V15.4663L36.6299 15.4664C36.1064 15.4664 35.9017 15.5429 35.7279 15.8031C35.4958 16.1508 35.6318 16.6562 36.0086 16.8456C36.1336 16.9085 36.2975 16.931 36.6299 16.931L37.0814 16.9311V17.4122C37.0814 17.831 37.0957 17.9147 37.1922 18.0592C37.4892 18.504 38.0786 18.4937 38.4189 18.0376C38.4986 17.9308 38.5217 17.811 38.5372 17.4225L38.5566 16.9399L39.0358 16.9233C39.4268 16.9098 39.5397 16.8882 39.6496 16.806C39.8915 16.6252 39.9799 16.4627 39.9799 16.1987C39.9799 15.9348 39.8915 15.7723 39.6496 15.5914C39.5397 15.5092 39.4268 15.4876 39.0358 15.4741L38.5566 15.4575L38.5372 14.9749C38.5166 14.4593 38.4666 14.3368 38.1943 14.1334C38.0138 13.9985 37.6817 13.9759 37.4728 14.0842ZM15.4115 17.016C15.1674 17.1397 15.02 17.3834 15.02 17.6636C15.02 17.9437 15.1674 18.1874 15.4115 18.3112C15.568 18.3905 15.7713 18.3963 18.006 18.3844C20.3684 18.3719 20.4341 18.369 20.5654 18.2709C20.8074 18.0901 20.8958 17.9276 20.8958 17.6636C20.8958 17.3995 20.8074 17.237 20.5654 17.0562C20.4341 16.9581 20.3684 16.9552 18.006 16.9427C15.7713 16.9308 15.568 16.9366 15.4115 17.016ZM33.0313 34.6897C32.9379 34.7382 32.8115 34.8525 32.7506 34.9437C32.6542 35.0882 32.6398 35.1719 32.6398 35.5907V36.0718L32.1884 36.0719C31.6648 36.0719 31.4601 36.1483 31.2864 36.4086C31.0542 36.7563 31.1902 37.2617 31.567 37.4511C31.6921 37.514 31.856 37.5365 32.1884 37.5365L32.6398 37.5366V38.0177C32.6398 38.4365 32.6542 38.5202 32.7506 38.6646C33.0477 39.1095 33.637 39.0992 33.9774 38.6431C34.057 38.5363 34.0801 38.4164 34.0957 38.028L34.1151 37.5454L34.5942 37.5288C34.9852 37.5153 35.0982 37.4937 35.208 37.4115C35.4499 37.2306 35.5383 37.0682 35.5383 36.8042C35.5383 36.5402 35.4499 36.3777 35.208 36.1969C35.0982 36.1147 34.9852 36.0931 34.5942 36.0796L34.1151 36.063L34.0957 35.5804C34.075 35.0648 34.0251 34.9422 33.7528 34.7389C33.5722 34.604 33.2401 34.5814 33.0313 34.6897Z" fill="#2C2B46"/>
<path id="Traced layer_2" fill-rule="evenodd" clip-rule="evenodd" d="M27.832 15.1591C27.1988 15.2448 26.3196 15.5868 25.7455 15.9709C25.145 16.3725 22.5741 18.9724 22.3171 19.4378C22.0159 19.9832 21.8944 20.4331 21.8665 21.1061L21.8421 21.692L23.8853 19.6629C26.0496 17.5135 26.1346 17.4428 26.7793 17.2533C27.1235 17.1522 27.8083 17.1522 28.1525 17.2533C28.8457 17.457 29.4425 17.957 29.7519 18.593L29.9312 18.9616L30.2726 18.8433C30.7576 18.6753 31.4039 18.6763 31.888 18.8459C33.3579 19.3606 34.0198 20.8906 33.4047 22.3512C33.3816 22.4058 33.4697 22.4698 33.751 22.603C34.9862 23.1874 35.5143 24.6567 34.9614 25.97C34.9354 26.0317 35.0097 26.0874 35.3045 26.2275C35.7612 26.4445 36.2552 26.921 36.4584 27.3406C36.8419 28.1324 36.8338 28.9802 36.4352 29.7447C36.3112 29.9825 35.9763 30.3483 34.7528 31.5821C33.9127 32.4293 33.2253 33.1408 33.2253 33.1631C33.2253 33.1855 33.5163 33.1932 33.872 33.1802C34.4046 33.1607 34.5876 33.1333 34.9092 33.0245C35.6553 32.7722 35.866 32.6093 37.3412 31.1454C38.7998 29.6978 39.0621 29.3916 39.3947 28.7477C40.1016 27.3789 40.1501 25.659 39.5209 24.2706C39.1363 23.4222 39.1327 23.4181 35.4508 19.7233C31.6723 15.9315 31.6178 15.8831 30.7093 15.5119C30.027 15.233 29.4247 15.123 28.6296 15.132C28.2714 15.136 27.9125 15.1482 27.832 15.1591ZM26.9965 18.7278C26.9128 18.7736 25.1557 20.487 23.0918 22.5353C19.5104 26.0897 19.3377 26.2534 19.3056 26.1242C19.287 26.0498 19.2161 24.9782 19.1479 23.7428L19.0241 21.4967L18.8644 21.1812C18.4043 20.2716 17.1826 20.0974 16.5073 20.8452C16.211 21.1733 16.153 21.3663 16.0682 22.3065C15.9263 23.8795 15.832 24.6588 15.4335 27.5514C15.0554 30.2951 15.0474 30.381 15.0457 31.7262C15.0444 32.7632 15.0596 33.0448 15.1363 33.4108C15.413 34.7304 16.006 35.7853 17.0666 36.8445C18.0971 37.8736 19.3524 38.5466 20.828 38.8613C21.4991 39.0044 22.8556 39.0189 23.5478 38.8904C24.5259 38.7087 25.5151 38.3077 26.3641 37.7488C26.8095 37.4556 27.243 37.0385 30.9675 33.3197C33.3605 30.9303 35.1139 29.1423 35.1623 29.042C35.208 28.9473 35.254 28.7379 35.2646 28.5768C35.3032 27.9872 34.8708 27.489 34.278 27.4398C33.7823 27.3987 33.779 27.4012 32.0295 29.1402C30.2985 30.8607 30.304 30.8565 29.8868 30.7782C29.4234 30.6912 29.1879 30.1705 29.4149 29.7345C29.4668 29.6349 30.4135 28.6525 31.5187 27.5514C32.8541 26.2209 33.5588 25.4839 33.6197 25.3541C33.8066 24.9553 33.7039 24.3938 33.3901 24.0994C33.0965 23.824 32.5889 23.7345 32.211 23.8914C32.0875 23.9427 31.3588 24.6358 29.9307 26.0605C28.0957 27.8911 27.809 28.1584 27.6489 28.1878C27.0724 28.2937 26.6509 27.8722 26.7564 27.2951C26.7858 27.1341 27.1045 26.7961 29.3924 24.4996C30.8239 23.0629 32.0271 21.8214 32.0663 21.7409C32.1791 21.5089 32.2027 21.2934 32.1453 21.0189C32.1014 20.8096 32.0464 20.7197 31.8356 20.5134C31.4591 20.1451 31.039 20.0745 30.5896 20.3042C30.4957 20.3522 29.2877 21.5261 27.9052 22.9127C26.5227 24.2994 25.31 25.4764 25.2105 25.5283C24.7747 25.7555 24.2541 25.5199 24.1672 25.0562C24.0872 24.6297 24.041 24.687 26.2962 22.4245C27.7202 20.9958 28.4131 20.2668 28.4644 20.1433C28.6899 19.5997 28.4258 18.9381 27.8945 18.7161C27.6535 18.6154 27.1906 18.6214 26.9965 18.7278Z" fill="#2C2B46"/>
</g>
</g>
</g>
</svg>
