<svg width="54" height="54" viewBox="0 0 54 54" fill="none" xmlns="http://www.w3.org/2000/svg">
<g id="Frame 36729">
<rect width="54" height="54" rx="27" fill="#FFE2FF"/>
<g id="Group 34483">
<path id="Traced layer" fill-rule="evenodd" clip-rule="evenodd" d="M22.8266 14.0602C22.6459 14.1439 22.4838 14.3161 22.415 14.4976C22.3814 14.5865 22.363 15.3145 22.363 16.5582V18.4813L21.1462 18.4959C19.8075 18.512 19.8096 18.5115 19.5595 18.8467C19.4624 18.9769 19.4589 19.0407 19.4589 20.6834C19.4589 22.326 19.4624 22.3899 19.5595 22.52C19.7724 22.8053 19.8919 22.8549 20.4099 22.8729L20.8904 22.8895L20.9118 25.1434C20.9317 27.2294 20.9412 27.4327 21.039 27.873C21.331 29.1877 21.9053 30.2372 22.8501 31.1824C23.6177 31.9503 24.434 32.4603 25.4216 32.7888C25.8456 32.9299 26.5157 33.0857 26.6982 33.0857C26.7764 33.0857 26.8008 33.1459 26.852 33.4641C27.0057 34.4202 27.5003 35.5745 28.0938 36.3617C29.2494 37.8944 31.0482 38.8592 32.9695 38.9768C33.3921 39.0027 33.501 38.9939 33.6535 38.9215C34.1498 38.6858 34.2157 37.983 33.7711 37.6663C33.6546 37.5833 33.514 37.5528 33.099 37.5205C31.1803 37.3713 29.5882 36.3222 28.7773 34.6726C28.5635 34.2378 28.2688 33.3463 28.2688 33.1345C28.2688 33.1145 28.4631 33.0626 28.7005 33.0191C29.9739 32.786 31.0967 32.1998 32.0593 31.2654C33.1286 30.2276 33.7872 28.96 34.006 27.5193C34.059 27.1704 34.0765 26.5392 34.0767 24.9725L34.077 22.8895L34.5773 22.8729C35.0002 22.8588 35.1011 22.8394 35.2302 22.7473C35.5329 22.5313 35.5412 22.4759 35.5412 20.6834C35.5412 18.8908 35.5329 18.8354 35.2302 18.6194C35.0834 18.5147 35.0299 18.5099 33.8451 18.496L32.6127 18.4814V16.5258C32.6127 14.3644 32.6106 14.3477 32.3017 14.1272C32.191 14.0483 32.0796 14.0183 31.8964 14.0183C31.6234 14.0183 31.4577 14.1077 31.2735 14.3545C31.1763 14.4847 31.1724 14.5566 31.1591 16.4877L31.1453 18.4861H27.4863H23.8272V16.5281C23.8272 14.3717 23.824 14.3467 23.5239 14.1329C23.3436 14.0045 23.0199 13.9707 22.8266 14.0602ZM27.8109 22.9599C28.1142 23.1039 28.2853 23.4926 28.1981 23.84C28.1793 23.915 27.9681 24.1751 27.7231 24.425L27.2821 24.875L28.3582 25.4167C29.471 25.9768 29.6078 26.0774 29.664 26.3768C29.7368 26.765 29.6836 26.8487 28.7892 27.7541C28.3285 28.2205 27.8922 28.6331 27.8197 28.6711C27.4019 28.8897 26.8376 28.5674 26.7712 28.0723C26.735 27.8025 26.8379 27.624 27.308 27.1411C27.5235 26.9197 27.6906 26.7302 27.6793 26.7199C27.6679 26.7097 27.1719 26.4568 26.577 26.1581C25.5302 25.6324 25.492 25.608 25.3934 25.4042C25.1749 24.9526 25.2759 24.7673 26.2847 23.7697C26.7236 23.3357 27.1354 22.9595 27.1999 22.9337C27.3797 22.8617 27.6264 22.8723 27.8109 22.9599Z" fill="#2C2B46"/>
</g>
</g>
</svg>
