<svg width="54" height="54" viewBox="0 0 54 54" fill="none" xmlns="http://www.w3.org/2000/svg">
<g id="Frame 36729">
<rect width="54" height="54" rx="27" fill="#FFEECB"/>
<g id="Group 34256">
<g id="Group 34246">
<path id="Traced layer" opacity="0.4" fill-rule="evenodd" clip-rule="evenodd" d="M24.8832 31.1551C24.5443 31.3343 24.5258 31.4006 24.4956 32.5444C24.4659 33.6729 24.4342 33.8146 24.1424 34.122C23.9451 34.3301 23.554 34.5171 23.3149 34.5176C22.9315 34.5187 22.5854 34.7859 22.5207 35.1308C22.4733 35.3831 22.6136 35.7107 22.8328 35.8596C23.1557 36.079 23.9042 35.9962 24.5226 35.6728C24.8826 35.4844 25.4018 34.9765 25.6106 34.6084C25.8874 34.1205 25.9602 33.7072 25.9602 32.6251C25.9602 31.764 25.9507 31.6539 25.8598 31.4663C25.7869 31.3157 25.7026 31.2314 25.552 31.1585C25.2971 31.0351 25.1121 31.0342 24.8832 31.1551ZM27.1593 31.1685C26.7874 31.3817 26.7887 31.3735 26.7888 33.5183C26.7888 35.6386 26.7899 35.6457 27.1248 35.8695C27.4719 36.1013 27.9763 35.9655 28.1653 35.5893C28.2421 35.4365 28.2505 35.2312 28.2506 33.5183C28.2507 31.7603 28.2439 31.6042 28.1603 31.4472C28.0505 31.2408 27.751 31.0597 27.5197 31.0597C27.4259 31.0597 27.2637 31.1087 27.1593 31.1685ZM29.4837 31.1594C29.3375 31.2318 29.2504 31.3198 29.1791 31.4672C29.0888 31.6537 29.0791 31.7654 29.0791 32.6251C29.0791 33.7072 29.152 34.1205 29.4287 34.6084C29.6375 34.9765 30.1567 35.4844 30.5168 35.6728C31.1351 35.9962 31.8837 36.079 32.2066 35.8596C32.4257 35.7107 32.566 35.3831 32.5187 35.1308C32.454 34.7859 32.1079 34.5187 31.7245 34.5176C31.4853 34.5171 31.0943 34.3301 30.8969 34.122C30.6052 33.8146 30.5735 33.6729 30.5438 32.5444C30.5134 31.3946 30.4952 31.331 30.1458 31.1527C29.9081 31.0315 29.7387 31.0332 29.4837 31.1594Z" fill="#2C2B46"/>
<path id="Traced layer_2" fill-rule="evenodd" clip-rule="evenodd" d="M17.4404 17.0449C17.2976 17.0794 16.9931 17.2007 16.7635 17.3145C16.0353 17.6753 15.484 18.3214 15.1827 19.1668L15.0699 19.4835L15.0551 23.4616C15.0383 27.9385 15.0318 27.8391 15.3916 28.5722C15.7698 29.3428 16.5327 29.9702 17.3831 30.2098C17.5419 30.2545 17.9541 30.2964 18.3943 30.3125L19.1375 30.3397L19.1382 29.2732C19.1391 28.0585 19.1821 27.7883 19.4674 27.2077C19.7304 26.6726 20.2899 26.1201 20.8432 25.8493C21.5803 25.4885 21.2846 25.5038 27.5196 25.5038C33.7545 25.5038 33.4589 25.4885 34.196 25.8493C34.7492 26.1201 35.3088 26.6726 35.5717 27.2077C35.8571 27.7883 35.9001 28.0585 35.9009 29.2732L35.9016 30.3397L36.6448 30.3125C37.0851 30.2964 37.4973 30.2545 37.656 30.2098C38.5064 29.9702 39.2693 29.3428 39.6476 28.5722C40.0073 27.8391 40.0008 27.9385 39.9841 23.4616L39.9693 19.4835L39.8564 19.1668C39.5463 18.2966 38.9974 17.6646 38.2327 17.2978C37.9825 17.1777 37.6616 17.0557 37.5196 17.0266C37.114 16.9436 17.7862 16.9612 17.4404 17.0449ZM32.8129 19.8764C33.1609 20.1366 33.258 20.512 33.0642 20.8481C32.8769 21.173 32.7257 21.2193 31.9055 21.2031C31.2877 21.1909 31.1827 21.177 31.0696 21.0917C30.7235 20.831 30.6671 20.3659 30.9397 20.0195C31.1219 19.7878 31.2786 19.7504 32.0118 19.7638C32.5979 19.7745 32.6948 19.7881 32.8129 19.8764ZM36.2905 19.8369C36.3838 19.8838 36.5118 19.9989 36.5751 20.0927C36.7318 20.3253 36.71 20.759 36.5321 20.9495C36.3115 21.1856 36.1995 21.2136 35.4727 21.2136C34.8495 21.2136 34.782 21.2047 34.6296 21.1029C34.1622 20.7907 34.2034 20.0978 34.704 19.85C34.9783 19.7142 36.029 19.7056 36.2905 19.8369ZM21.9207 27.0167C21.4444 27.1103 20.938 27.513 20.7362 27.9586C20.6319 28.1889 20.6227 28.2827 20.6083 29.2667L20.5927 30.3266H27.5196H34.4465L34.4309 29.2667C34.4164 28.2827 34.4073 28.1889 34.303 27.9586C34.1745 27.6747 33.8242 27.3113 33.5369 27.1638C33.4291 27.1085 33.2233 27.0408 33.0795 27.0136C32.7561 26.9523 22.2339 26.9552 21.9207 27.0167Z" fill="#2C2B46"/>
</g>
</g>
</g>
</svg>
