<svg width="54" height="54" viewBox="0 0 54 54" fill="none" xmlns="http://www.w3.org/2000/svg">
<g id="Frame 36729">
<rect width="54" height="54" rx="27" fill="#D9FFFF"/>
<g id="Group 34258">
<g id="Group 34248">
<path id="Traced layer" opacity="0.4" fill-rule="evenodd" clip-rule="evenodd" d="M24.5685 19.0501C24.1574 19.153 23.8497 19.3287 23.5397 19.6374C23.2205 19.9555 23.0275 20.3057 22.9386 20.7285C22.9056 20.885 22.8842 21.5552 22.8842 22.425V23.8628H30.9395H38.9949V22.425C38.9949 21.5378 38.9737 20.8881 38.9396 20.7285C38.7596 19.8876 38.0835 19.211 37.2472 19.0352C36.8558 18.9528 24.9009 18.9669 24.5685 19.0501ZM32.7472 20.7878C32.9638 20.8983 33.1365 21.1795 33.1365 21.4218C33.1365 21.7949 32.7755 22.1541 32.4005 22.1541C32.1735 22.1541 31.8719 21.9642 31.7645 21.7537C31.5842 21.4003 31.6973 21.0144 32.0425 20.8054C32.2763 20.6639 32.4937 20.6585 32.7472 20.7878ZM35.6764 20.7878C35.893 20.8983 36.0657 21.1795 36.0657 21.4218C36.0657 21.7949 35.7048 22.1541 35.3298 22.1541C35.1027 22.1541 34.8011 21.9642 34.6937 21.7537C34.5134 21.4003 34.6266 21.0144 34.9718 20.8054C35.2055 20.6639 35.423 20.6585 35.6764 20.7878Z" fill="#2C2B46"/>
<path id="Traced layer_2" fill-rule="evenodd" clip-rule="evenodd" d="M15.6843 14.0699C15.2732 14.1728 14.9655 14.3485 14.6556 14.6572C14.3363 14.9753 14.1433 15.3255 14.0544 15.7483C14.0174 15.9242 14 17.0921 14 19.3976V22.7883H17.7104H21.4207V21.8098C21.4207 20.7279 21.4798 20.3064 21.7081 19.7605C22.0614 18.9154 22.8038 18.172 23.6557 17.8101C24.302 17.5355 24.5233 17.5156 26.9354 17.5156H29.1344V16.7613C29.1344 16.3464 29.1095 15.8906 29.079 15.7483C28.8991 14.9074 28.2229 14.2308 27.3866 14.055C26.9959 13.9728 16.0164 13.9868 15.6843 14.0699ZM18.0046 18.0045C18.1286 18.0678 18.2323 18.1714 18.2956 18.2955C18.3857 18.4721 18.3938 18.582 18.3938 19.6149C18.3938 20.6479 18.3857 20.7577 18.2956 20.9343C18.1845 21.1521 17.9035 21.3236 17.6579 21.3236C17.4309 21.3236 17.1292 21.1338 17.0218 20.9232C16.9386 20.76 16.9294 20.6272 16.9313 19.6047C16.9336 18.3162 16.9532 18.232 17.2999 18.0222C17.5337 17.8807 17.7511 17.8752 18.0046 18.0045ZM14 30.6216C14 35.1847 14.0157 37.0636 14.0554 37.249C14.2349 38.0877 14.909 38.7618 15.7477 38.9413C15.925 38.9793 16.9731 38.9967 19.0791 38.9967H22.1518L21.9821 38.7314C21.8083 38.4596 21.6641 38.1345 21.526 37.7029C21.4564 37.4852 21.4464 36.7465 21.4332 30.8559L21.4183 24.2529H17.7092H14V30.6216ZM22.8853 31.1586C22.8853 35.3214 22.9012 37.0643 22.9407 37.249C23.1202 38.0877 23.7943 38.7618 24.6331 38.9413C24.996 39.019 36.8798 39.0198 37.2484 38.9422C38.0769 38.7677 38.7688 38.076 38.9419 37.249C38.9799 37.0678 38.9961 35.2424 38.9961 31.1586V25.3269H30.9407H22.8853V31.1586ZM18.0046 25.8158C18.1286 25.879 18.2323 25.9827 18.2956 26.1068C18.3896 26.291 18.3938 26.3911 18.3938 28.4026C18.3938 30.4141 18.3896 30.5142 18.2956 30.6985C18.1845 30.9162 17.9035 31.0878 17.6579 31.0878C17.4309 31.0878 17.1292 30.8979 17.0218 30.6873C16.935 30.5172 16.9294 30.3734 16.9313 28.3924C16.9336 26.0137 16.927 26.0592 17.2999 25.8334C17.5337 25.692 17.7511 25.6865 18.0046 25.8158ZM32.088 26.9348C33.7148 27.3591 34.9897 28.6416 35.4399 30.3066C35.5327 30.6499 35.5521 30.8439 35.5521 31.4295C35.5521 32.0151 35.5327 32.2091 35.4399 32.5524C34.99 34.2163 33.7327 35.4826 32.088 35.9282C31.51 36.0848 30.3998 36.0845 29.8179 35.9276C28.1497 35.4779 26.8957 34.2302 26.4396 32.5662C26.2895 32.0185 26.2895 30.8405 26.4396 30.2928C26.944 28.4524 28.4263 27.1307 30.3305 26.8233C30.6688 26.7686 31.7026 26.8342 32.088 26.9348ZM30.2572 28.3321C29.3809 28.5203 28.5148 29.2004 28.1157 30.0137C27.8865 30.4808 27.7691 30.9604 27.7691 31.4295C27.7691 32.5967 28.4812 33.7423 29.5249 34.2545C30.465 34.7158 31.4164 34.7158 32.3565 34.2545C33.1806 33.8502 33.8533 32.9851 34.0409 32.0886C34.1902 31.3746 34.1002 30.6952 33.7657 30.0137C33.48 29.4314 32.9388 28.8902 32.3565 28.6045C31.6775 28.2713 30.9686 28.1793 30.2572 28.3321Z" fill="#2C2B46"/>
</g>
</g>
</g>
</svg>
