<svg width="16" height="16" viewBox="0 0 16 16" fill="none" xmlns="http://www.w3.org/2000/svg">
<g id="Group">
<path id="Vector" d="M14.7694 11.0409V7.32913C14.7694 4.13937 14.7694 2.54597 13.7894 1.55484C12.8094 0.564453 11.2316 0.564453 8.07755 0.564453C4.92274 0.564453 3.3457 0.564453 2.36572 1.55484C1.38574 2.54597 1.38574 4.14085 1.38574 7.32913V11.0416C1.38574 13.3436 1.38574 14.4953 1.9315 14.9979C2.19173 15.2381 2.52038 15.389 2.87058 15.4292C3.60445 15.5132 4.46174 14.7548 6.17559 13.2387C6.934 12.5688 7.31246 12.2335 7.7504 12.1457C7.96602 12.1011 8.18908 12.1011 8.40471 12.1457C8.84339 12.2335 9.22185 12.5688 9.97951 13.2387C11.6934 14.7548 12.5507 15.5132 13.2845 15.4285C13.634 15.389 13.9634 15.2381 14.2236 14.9979C14.7694 14.4953 14.7694 13.3436 14.7694 11.0409Z" stroke="white" stroke-width="1.1153"/>
<path id="Vector_2" opacity="0.5" d="M10.3079 3.53906H5.84668" stroke="white" stroke-width="1.1153" stroke-linecap="round"/>
</g>
</svg>

