<svg width="12" height="12" viewBox="0 0 12 12" fill="none" xmlns="http://www.w3.org/2000/svg">
<g id="vuesax/bold/star">
<g id="star">
<path id="Vector" d="M2.87017 8C2.92517 7.755 2.82517 7.405 2.65017 7.23L1.43517 6.015C1.05517 5.635 0.905174 5.23 1.01517 4.88C1.13017 4.53 1.48517 4.29 2.01517 4.2L3.57517 3.94C3.80017 3.9 4.07517 3.7 4.18017 3.495L5.04017 1.77C5.29017 1.275 5.63017 1 6.00017 1C6.37017 1 6.71017 1.275 6.96017 1.77L7.82017 3.495C7.88517 3.625 8.02017 3.75 8.16517 3.835L2.78017 9.22C2.71017 9.29 2.59017 9.225 2.61017 9.125L2.87017 8Z" fill="#FFC331"/>
<path id="Vector_2" d="M9.3499 7.23001C9.1699 7.41001 9.0699 7.75501 9.1299 8.00001L9.4749 9.50501C9.6199 10.13 9.5299 10.6 9.2199 10.825C9.0949 10.915 8.9449 10.96 8.7699 10.96C8.5149 10.96 8.2149 10.865 7.8849 10.67L6.4199 9.80001C6.1899 9.66501 5.8099 9.66501 5.5799 9.80001L4.1149 10.67C3.5599 10.995 3.0849 11.05 2.7799 10.825C2.6649 10.74 2.5799 10.625 2.5249 10.475L8.6049 4.39501C8.8349 4.16501 9.1599 4.06001 9.4749 4.11501L9.9799 4.20001C10.5099 4.29001 10.8649 4.53001 10.9799 4.88001C11.0899 5.23001 10.9399 5.63501 10.5599 6.01501L9.3499 7.23001Z" fill="#FFC331"/>
</g>
</g>
</svg>
